<?xml version="1.0" encoding="utf-8"?>
<!-- Generator: Adobe Illustrator 28.0.0, SVG Export Plug-In . SVG Version: 6.00 Build 0)  -->
<svg version="1.1" id="Layer_2" xmlns="http://www.w3.org/2000/svg" xmlns:xlink="http://www.w3.org/1999/xlink" x="0px" y="0px"
	 viewBox="0 0 28.6 45.5" style="enable-background:new 0 0 28.6 45.5;" xml:space="preserve">
<style type="text/css">
	.st0{fill:#282828;}
	.st1{fill:#0473EA;}
	.st2{fill:#50DD8C;}
	.st3{fill:#0A108F;}
	.st4{font-family:'HarmonyOS_Sans_Black';}
	.st5{font-size:1.545px;}
	.st6{fill:#D7D7D8;}
</style>
<g id="text">
	<path class="st0" d="M5.7,39.3l0.4,0.5c0.8,1.1,2.4,1.4,3.5,0.6L21.3,32c1.1-0.8,1.4-2.4,0.6-3.5l-0.4-0.5
		c-0.8-1.1-2.4-1.4-3.5-0.6L6.3,35.8C5.1,36.6,4.9,38.1,5.7,39.3z"/>
	<path class="st1" d="M20,32.9l2.2-1.6c0.6-0.4,0.7-1.2,0.3-1.8L11.5,13.9c-0.4-0.6-1.2-0.7-1.8-0.3l-2.2,1.6
		c-0.6,0.4-0.7,1.2-0.3,1.8l11.1,15.5C18.6,33.2,19.4,33.3,20,32.9z"/>
	<path class="st2" d="M6.8,16.6l0.4,0.5c0.8,1.1,2.4,1.4,3.5,0.6l10-7.2c1.1-0.8,1.4-2.4,0.6-3.5l-0.4-0.5c-0.8-1.1-2.4-1.4-3.5-0.6
		l-10,7.2C6.2,13.9,6,15.5,6.8,16.6z"/>
	<circle class="st1" cx="9" cy="15.4" r="1"/>
	<circle class="st0" cx="19.5" cy="29.8" r="1"/>
	<text transform="matrix(1 0 0 1 8.5656 15.9608)" class="st3 st4 st5">3</text>
	<text transform="matrix(1 0 0 1 18.9949 30.3718)" class="st6 st4 st5">7</text>
</g>
</svg>
