<?xml version="1.0" encoding="utf-8"?>
<!-- Generator: Adobe Illustrator 28.0.0, SVG Export Plug-In . SVG Version: 6.00 Build 0)  -->
<svg version="1.1" id="图层_1" xmlns="http://www.w3.org/2000/svg" xmlns:xlink="http://www.w3.org/1999/xlink" x="0px" y="0px"
	 viewBox="0 0 180 180" style="enable-background:new 0 0 180 180;" xml:space="preserve">
<style type="text/css">
	.st0{fill-opacity:0.3922;}
	.st1{fill:#FFFFFF;stroke:#005EEB;stroke-width:4.8109;stroke-linecap:round;stroke-linejoin:round;stroke-miterlimit:10;}
	.st2{fill:#005EEB;}
	.st3{fill:none;stroke:#005EEB;stroke-width:4.5855;stroke-linecap:round;stroke-linejoin:round;stroke-miterlimit:10;}
</style>
<g id="图层_x0020_1">
	<g id="_1839898965824">
		<path class="st0" d="M148.9,154.5c0,5.7-27,10.3-60.3,10.3c-33.3,0-60.3-4.6-60.3-10.3c0-5.7,27-10.3,60.3-10.3
			C121.9,144.2,148.9,148.8,148.9,154.5L148.9,154.5z"/>
		<path class="st1" d="M156.7,89.4c0,42.1-34.1,68.5-69.7,68.5s-63.8-18.2-63.8-60.2s28.9-76.2,64.5-76.2
			C123.3,21.4,156.7,47.3,156.7,89.4L156.7,89.4L156.7,89.4z"/>
		<path class="st1" d="M75.9,45.5C73.1,62.4,57.5,76.6,47,75.1S31.8,60.3,33.1,45.5s12-26.8,23.8-26.8S78.7,28.6,75.9,45.5
			L75.9,45.5z"/>
		<path class="st1" d="M79.6,42c2.3,18.8,16.7,31.4,28.8,29.7c12-1.7,22.5-15.7,19.1-31.6c-3.3-15.3-10.9-22.6-24.4-24.6
			C90.2,13.6,77.3,23.3,79.6,42L79.6,42L79.6,42z"/>
		<path class="st2" d="M117.2,118.7c0.8,23.6-11,32.1-30.9,32.1c-28,0-40.5-8.5-41.3-32.1C44.1,95.1,55.5,76,75.5,76
			C95.4,76,116.4,95.1,117.2,118.7L117.2,118.7L117.2,118.7z"/>
		<path class="st3" d="M101.3,45.4C101.3,45.4,101.3,45.4,101.3,45.4c0,1.5-1.3,2.7-2.8,2.7c-1.6,0-2.8-1.2-2.8-2.7c0,0,0,0,0,0
			s0,0,0,0c0-1.5,1.3-2.7,2.8-2.7C100,42.7,101.3,43.9,101.3,45.4C101.3,45.4,101.3,45.4,101.3,45.4L101.3,45.4z"/>
		<path class="st3" d="M62.2,46.4C62.2,46.4,62.2,46.4,62.2,46.4c0,1.5-1.3,2.7-2.8,2.7c-1.6,0-2.8-1.2-2.8-2.7c0,0,0,0,0,0
			c0,0,0,0,0,0c0-1.5,1.3-2.7,2.8-2.7C61,43.7,62.2,44.9,62.2,46.4C62.2,46.4,62.2,46.4,62.2,46.4L62.2,46.4z"/>
	</g>
</g>
</svg>
