<?xml version="1.0" encoding="UTF-8"?>
<!DOCTYPE svg PUBLIC "-//W3C//DTD SVG 1.1//EN" "http://www.w3.org/Graphics/SVG/1.1/DTD/svg11.dtd">
<!-- Creator: CorelDRAW -->
<svg xmlns="http://www.w3.org/2000/svg" xml:space="preserve" width="297mm" height="210mm" version="1.1" style="shape-rendering:geometricPrecision; text-rendering:geometricPrecision; image-rendering:optimizeQuality; fill-rule:evenodd; clip-rule:evenodd"
viewBox="0 0 29700 21000"
 xmlns:xlink="http://www.w3.org/1999/xlink"
 xmlns:xodm="http://www.corel.com/coreldraw/odm/2003">
 <defs>
  <style type="text/css">
   <![CDATA[
    .str0 {stroke:#373435;stroke-width:7.62;stroke-miterlimit:22.9256}
    .fil1 {fill:none}
    .fil3 {fill:#ED3237}
    .fil2 {fill:#2874AC}
    .fil5 {fill:#373435;fill-rule:nonzero}
    .fil4 {fill:#2874AC;fill-rule:nonzero}
    .fil0 {fill:#E6E7E8;fill-opacity:0.501961}
   ]]>
  </style>
 </defs>
 <g id="图层_x0020_1">
  <metadata id="CorelCorpID_0Corel-Layer"/>
  <g id="_2019034798912">
   <g>
    <path class="fil0" d="M19101.92 9223.13l-3615.92 -7937.97c-288.91,-555 -932.46,-543.74 -1180.07,-0.17l-3615.91 7937.95c-285.59,579.38 -269.35,1582.11 -44.02,2076.8l1030.83 2262.96c-221.52,164.87 -440.64,341.63 -656.71,530.15 635.99,633.83 861.63,1365.39 1036.31,2235.41 185.14,-226.29 386.21,-431.21 599.79,-615.52 549.73,1206.84 1099.98,2413.41 1649.71,3620.26 247.61,543.57 891.16,554.83 1180.07,-0.17 549.71,-1206.78 1099.9,-2413.28 1649.59,-3619.98 213.75,184.29 414.52,389.17 599.47,615.41 174.97,-870.02 400.36,-1601.58 1036.49,-2235.41 -215.93,-188.46 -434.93,-365.17 -656.59,-530.01l1030.77 -2262.81c249.85,-643.73 222.88,-1491.44 -43.81,-2076.9z"/>
    <path id="_1" class="fil1 str0" d="M19101.92 9223.13l-3615.92 -7937.97c-288.91,-555 -932.46,-543.74 -1180.07,-0.17l-3615.91 7937.95c-285.59,579.38 -269.35,1582.11 -44.02,2076.8l1030.83 2262.96c-221.52,164.87 -440.64,341.63 -656.71,530.15 635.99,633.83 861.63,1365.39 1036.31,2235.41 185.14,-226.29 386.21,-431.21 599.79,-615.52 549.73,1206.84 1099.98,2413.41 1649.71,3620.26 247.61,543.57 891.16,554.83 1180.07,-0.17 549.71,-1206.78 1099.9,-2413.28 1649.59,-3619.98 213.75,184.29 414.52,389.17 599.47,615.41 174.97,-870.02 400.36,-1601.58 1036.49,-2235.41 -215.93,-188.46 -434.93,-365.17 -656.59,-530.01l1030.77 -2262.81c249.85,-643.73 222.88,-1491.44 -43.81,-2076.9z"/>
   </g>
   <g>
    <path class="fil2 str0" d="M13459.15 13788.21l244.22 -58.8c12.26,58.29 11.75,112.57 -1.42,163.01 -13.17,50.44 -38.36,96.48 -75.38,138.04 -36.94,41.71 -91.15,81.19 -162.26,118.67 -86.49,45.58 -162.81,72.3 -228.5,80.1 -65.96,7.76 -132.94,-4.41 -200.77,-36.58 -67.65,-32.28 -123.45,-89.66 -167.11,-172.51 -58.24,-110.51 -68.05,-213.97 -29.25,-310.09 38.72,-96.26 122.16,-178.16 250.12,-245.61 100.2,-52.8 187.83,-77.34 263.19,-73.55 75.34,3.78 145.46,33.56 210.35,89.33l-195.68 154.95c-18.32,-16.36 -34.14,-27.08 -47.48,-32.17 -21.97,-8.48 -45.21,-11.72 -69.54,-9.82 -24.5,1.98 -48.94,9.5 -73.57,22.48 -55.57,29.28 -88.43,70.64 -98.24,123.87 -7.66,39.78 4.14,89.57 35.68,149.41 39.07,74.15 79.29,117.69 120.46,131.15 41.35,13.36 86.16,7.22 134.49,-18.25 47.04,-24.79 76.78,-54.57 89.14,-89.49 12.45,-34.75 12.9,-76.1 1.55,-124.14z"/>
    <path class="fil2 str0" d="M13937.02 13960.99l-122.17 -726.93 452.19 -75.99c83.81,-14.09 149,-18.95 195.17,-14.36 46.36,4.39 85.84,20.38 118.45,48.14 32.59,27.59 52.69,64.59 60.45,110.79 6.8,40.45 2.21,76.9 -13.52,109.66 -15.93,32.78 -40.57,61.29 -73.68,85.65 -21.38,15.42 -51.44,30.39 -90.46,44.61 33.81,3.53 58.83,8.56 75.25,15.02 10.81,4.28 27.5,14.49 49.74,30.8 22.35,16.39 36.34,30.32 45.62,38.8l197.89 180.86 -251.98 43.72 -248.66 -190.06c-27.36,-20.92 -62.22,-33.9 -78.2,-39.93 -21.23,-8.02 -44.52,-9.76 -69.26,-5.6l-23.91 4.02 49.57 295.01 -272.49 45.79zm199.82 -478.23l114.48 -19.24c12.27,-2.06 35.64,-9.3 70.1,-21.87 17.48,-6.08 30.92,-16.17 40.32,-30.27 9.2,-14.08 12.56,-29.09 9.89,-45 -3.95,-23.53 -15.97,-39.95 -36.06,-49.45 -20.13,-9.67 -54.91,-10.26 -104.39,-1.95l-119.17 20.03 24.83 147.75z"/>
    <path class="fil2 str0" d="M15658.99 13759.25l-386.79 -57.05 -92.57 134.66 -253.12 -16.9 511.02 -690.21 215.32 30.91 291.27 808.45 -241.13 -55.52 -44 -154.34zm-48.62 -151.94l-100.53 -262.71 -157.37 224.99 257.9 37.72z"/>
    <path class="fil2 str0" d="M16689.56 13943.11l202.87 148.16c-36.51,47.06 -78.22,81.8 -125.21,104.39 -46.97,22.6 -98.37,33.18 -154.01,31.85 -55.71,-1.18 -120.9,-16.95 -195.48,-46.92 -90.72,-36.45 -160.47,-77.34 -208.92,-122.38 -48.6,-45.28 -82.67,-104.21 -102.03,-176.75 -19.17,-72.46 -11.52,-152.13 23.39,-239.03 46.57,-115.91 119.11,-190.34 217.49,-222.95 98.45,-32.78 214.89,-22.16 349.11,31.77 105.1,42.22 180.51,93.16 226.38,153.06 45.87,59.89 68.54,132.62 68,218.18l-244.75 -48.92c0.62,-24.56 -1.44,-43.56 -6.19,-57.02 -7.76,-22.24 -20.32,-42.06 -37.52,-59.37 -17.36,-17.4 -38.91,-31.17 -64.74,-41.55 -58.28,-23.42 -111.08,-21.71 -158,5.26 -35.3,19.9 -65.62,61.11 -90.84,123.88 -31.24,77.76 -38.42,136.61 -22.04,176.71 16.58,40.16 50.24,70.35 100.94,90.72 49.34,19.82 91.29,23.23 125.91,10.06 34.55,-13 66.37,-39.41 95.64,-79.15z"/>
   </g>
   <path class="fil3 str0" d="M13993.56 10916.68c-212.54,25.72 -486.93,100.18 -629.34,247.11 -66.74,68.85 -39.35,196.84 127.24,232.44 161.86,34.59 2275.4,-99.82 2928.96,-774.66 234.07,-241.69 -419.63,-208.93 -535.76,-123.1 214.71,-12.99 406.27,5.2 262.78,159.99 -355.74,383.73 -1884.93,601.76 -2279.71,538.57 -279.33,-44.7 -32.17,-207.63 125.83,-280.35z"/>
   <path class="fil2 str0" d="M16766.68 11222.51l848.76 0 0 -1933.18 -848.76 0 0 1933.18zm848.76 -2157.8l0 -123.34 266.65 0 0 2644.75 -266.65 0 0 -139 -848.76 0 0 139 -266.64 0 0 -2644.75 266.64 0 0 123.34 848.76 0zm-286.31 1233.69l159.24 0 96.94 372.86 -180.11 0 -76.07 -292.59 0 380.82 241.39 0 0 224.61 -755.19 0 0 -224.61 247.15 0 0 -584.29 -247.15 0 0 -224.62 247.15 0 0 -227.23 -247.15 0 0 -224.62 755.19 0 0 224.62 -241.39 0 0 227.23 241.39 0 0 224.62 -241.39 0 0 123.2z"/>
   <path class="fil2 str0" d="M12128.79 10717.15l291.2 0 0 -1064.85 -291.2 0 0 1064.85zm0 -1289.46l291.2 0 0 -484.99 266.65 0 0 484.99 294.42 0 0 -95.67 266.65 0 0 1738.69 -266.65 0 0 -128.95 -294.42 0 0 645.21 -266.65 0 0 -645.21 -291.2 0 0 128.95 -266.65 0 0 -1738.69 266.65 0 0 95.67zm557.85 224.61l0 1064.85 294.42 0 0 -1064.85 -294.42 0z"/>
   <path class="fil2 str0" d="M18586.97 9356.2l-3173.06 -6965.76c-253.53,-487.02 -818.25,-477.14 -1035.54,-0.15l-3173.05 6965.75c-250.61,508.42 -236.36,1388.34 -38.62,1822.44l1093.9 2401.44c-52.53,34.49 -104.78,70.07 -156.7,106.72 14.39,32.79 28.92,65.75 43.55,98.86 -166.36,118.82 -330.31,248.6 -491.46,389.26 383.83,382.44 519.82,823.86 625.4,1348.81 180.28,-220.49 385.48,-407.41 608.31,-562.59l1488.67 3268.06c217.29,476.98 782.01,486.87 1035.54,-0.16l1488.75 -3268.22c-0.12,-0.08 -0.24,-0.15 -0.35,-0.23 238.96,162.03 449.71,355.06 620.68,576.71 96.12,-505.79 246.61,-970.83 614.23,-1354.42 -160.06,-143.94 -322.71,-276.05 -487.49,-396.54 13.18,-30.93 26.39,-61.83 39.57,-92.76 -52.66,-38.02 -105.68,-74.88 -159.02,-110.57l1095.13 -2404.11c219.25,-564.89 195.59,-1308.78 -38.44,-1822.54zm-5978.09 4012.98l-995.78 -2185.93c-224.31,-552.98 -215.37,-1274.36 37.47,-1829.42l2360.16 -5181.13 740.77 1163.56 0 813.91c0,40.22 -20.52,60.33 -54.04,70.49 -307.21,93.18 -527.06,351.73 -527.06,651.68 0,151.6 56.35,292.06 151.62,406.24 -95.26,114.19 -151.62,254.6 -151.62,406.17 0,151.6 56.36,292.01 151.62,406.2 -95.26,114.18 -151.62,254.64 -151.62,406.21 0,303.26 225.36,561.95 537.12,654.77 27.86,7.88 43.98,19.85 43.98,51.22l0 401.63c-713.28,71.5 -1276.65,664.8 -1301.03,1390.64 72.69,-33.79 149.24,-62.97 224.04,-85.89 67.54,-614.04 590.37,-1094.48 1221.9,-1094.48 433.23,0 815.35,226.09 1034.39,566.31 68.15,-20.82 147.19,-34.95 228.09,-42.24 -226.73,-403.75 -641.47,-688.77 -1124.15,-734.93l0 -525.01c0,-85.61 -62.11,-137.92 -143.57,-146.27 -244.21,-29.99 -433.14,-214.22 -433.14,-435.74 0,-84.75 27.71,-164.04 75.54,-231.32 123.46,69.8 270.39,110.38 427.83,110.38 157.43,0 304.37,-40.58 427.82,-110.38 213.03,-106.32 180.51,-259.14 0,-349.78 -123.46,-69.79 -270.39,-110.36 -427.82,-110.36 -157.44,0 -304.37,40.57 -427.83,110.36 -47.84,-67.29 -75.54,-146.55 -75.54,-231.31 0,-84.75 27.7,-164.01 75.54,-231.29 123.48,69.78 270.39,110.35 427.83,110.35 157.43,0 304.34,-40.57 427.82,-110.35 204.73,-107.59 195.07,-248.91 0,-349.78 -123.46,-69.8 -270.39,-110.39 -427.82,-110.39 -157.44,0 -304.37,40.59 -427.82,110.39 -47.85,-67.28 -75.55,-146.58 -75.55,-231.34 0,-223.39 193.39,-399.64 439.41,-436.46 55.68,-8.34 137.3,-56.89 137.3,-162.1l0 -944.78 742.38 -1166.1 2367.24 5196.85c277.44,592.24 263.74,1320.82 36.65,1819.34l-997.79 2190.43c-685.6,-385.28 -1415.33,-587.41 -2148.48,-608.85l0 -276.07c732.41,-70.03 1308.53,-689.96 1308.53,-1440.18 0,-76.6 -6.07,-151.84 -17.64,-225.28 -64.43,38.06 -133.13,74.13 -205.48,108.22 3.67,38.54 5.64,77.58 5.64,117.06 0,677.1 -552.28,1229.38 -1229.38,1229.38 -387.41,0 -733.89,-180.87 -959.52,-462.39 94.54,-143.03 193.88,-278.5 298.16,-405.65 -58.19,7.34 -114.81,13.96 -169.66,19.96 -53.83,114.1 -101.3,237.94 -138.8,372.7 -79.93,-102.51 -143.99,-217.94 -188.49,-342.52 -84.81,6.22 -160.42,10.4 -224.83,12.83 168.36,546.44 652.82,956.58 1238.23,1015.27l0 277.36c-729.2,24.93 -1456.83,228.34 -2142.5,607.98l-0.12 -0.17zm1479.43 -9366.8l651.79 -1430.85c83.73,-183.8 220.96,-183.83 312.13,0l651.76 1430.85 -813.18 0 0 0.11 0 -0.11 -802.5 0zm2520.71 10621.1c-473.72,-297.56 -1021.15,-451.35 -1574.13,-474.4l0 1281.71 1018.18 0 -148.17 325.76 -2023.34 0 -148.16 -325.76 1018.44 0 0 -1281.76c-544.56,22.98 -1087.99,177.88 -1574.88,467.33l1563.14 3431.55c83.67,183.66 220.96,184.22 312.13,-0.26l1559.12 -3422.71 -2.33 -1.46zm-3442.43 -0.95c-2.32,1.38 -4.62,2.77 -6.93,4.16 2.31,-1.39 4.61,-2.78 6.93,-4.16zm647.63 -3950.25c539.91,-39.47 1103.5,-107.35 1605.52,-222.6 -339.66,161.36 -646.06,386.15 -921.82,664.15 -102.48,10.79 -193.06,15.15 -264.21,11.27 98.75,-151.78 205.02,-282.26 305.13,-395.99 -265.22,-1.58 -487.82,-22.1 -724.62,-56.83zm307.85 1174.54c72.44,-157.44 143.07,-311.2 228.92,-456.38 102.6,-14.14 208.99,-30.41 317.39,-48.93 57.61,139.82 205.15,233.1 391.42,202.2 361.17,-59.92 534.67,-225.37 591.61,-434.87 95.38,-30.61 188.24,-63.55 277.42,-98.92 -16.07,422.29 -317.92,836.9 -873.76,836.9l-933 0zm430.73 -739.25c67.07,-76.88 143.35,-149.69 232.31,-217.43 -63.7,65.04 -104.24,134.42 -125.28,202.87 -36.63,5.46 -72.39,10.34 -107.03,14.56zm1116.44 -258.07c-8.94,-92.58 -31.73,-188.32 -64.11,-283.46 -116.23,-341.62 -612.82,-410.87 -999.99,-386.31 771.31,-192.1 1191.66,150.49 1297.48,574.04 -61.13,31.11 -141.01,63.54 -233.38,95.73zm-1300.9 -731.34c75.65,0 137.35,61.7 137.35,137.35 0,75.64 -61.7,137.34 -137.35,137.34 -75.65,0 -137.35,-61.7 -137.35,-137.34 0,-75.65 61.7,-137.35 137.35,-137.35zm3200.01 3858.95c-135.06,316.85 -270.1,633.72 -405.12,950.59 83.25,68.6 162.29,141.83 236.47,219.65 113.83,-412.88 213.5,-636.66 449.47,-934.18 -90.18,-83.99 -183.99,-162.56 -280.82,-236.06zm-4920.23 930.29c-135.79,-308.74 -282.69,-632.29 -423.09,-947.19 -102.02,69.14 -200.38,142.4 -294.58,219.66 292.69,351.28 339.69,527.99 462.72,947.13 81.16,-78.13 166.31,-151.32 254.95,-219.6zm-301.84 -1146.94c1607.59,-1060.24 3464.83,-1050.3 5100.64,-0.55 -162.42,381.07 -236.62,531.41 -399.04,912.48 -1180.71,-882.93 -2991.74,-1028.68 -4291.14,0 -164.51,-374.83 -245.95,-537.11 -410.46,-911.93zm1982.84 2980.15l1128.19 0 -148.17 325.76 -831.86 0 -148.16 -325.76zm-299.4 -658.3l1727.01 0 -148.17 325.76 -1430.68 0 -148.16 -325.76zm721.78 -11132.79l0 -719.06 -457.92 0 457.92 719.06zm283.24 -719.06l0 711.68 453.08 -711.68 -453.08 0zm119.85 3048.11c-59.54,-21.77 -124.8,-33.83 -193.19,-33.83 -68.4,0 -133.66,12.06 -193.2,33.83 59.55,21.76 124.8,33.81 193.2,33.81 68.39,0 133.64,-12.05 193.19,-33.81zm0 812.39c-59.54,21.77 -124.8,33.83 -193.19,33.83 -68.4,0 -133.66,-12.06 -193.2,-33.83 59.54,-21.76 124.8,-33.81 193.2,-33.81 68.39,0 133.66,12.05 193.19,33.81z"/>
  </g>
  <path class="fil4" d="M2486.03 15568.82c-27.09,-25.4 -60.96,-55.03 -101.6,-88.9 -40.64,-33.87 -82.97,-68.16 -127,-102.87 -44.03,-34.71 -87.21,-68.16 -129.54,-100.33 -42.33,-32.17 -78.74,-58.42 -109.22,-78.74l144.78 -203.2c30.48,18.63 67.31,42.33 110.49,71.12 43.18,28.79 86.78,59.27 130.81,91.44 44.03,32.17 86.36,63.5 127,93.98 40.64,30.48 73.66,57.57 99.06,81.28l-144.78 236.22zm1615.44 1336.04l0 254 -1595.12 0 0 -254 688.34 0 0 -1483.36 -487.68 0 0 -256.54 1282.7 0 0 256.54 -523.24 0 0 1483.36 635 0zm-1747.52 -716.28c-32.17,-30.48 -70.7,-64.35 -115.57,-101.6 -44.87,-37.25 -90.59,-74.51 -137.16,-111.76 -46.57,-37.25 -92.29,-72.39 -137.16,-105.41 -44.87,-33.02 -83.4,-60.54 -115.57,-82.55l142.24 -208.28c32.17,22.01 70.7,48.26 115.57,78.74 44.87,30.48 90.59,62.65 137.16,96.52 46.57,33.87 92.29,68.16 137.16,102.87 44.87,34.71 84.24,65.62 118.11,92.71l-144.78 238.76zm213.36 218.44c-8.47,18.63 -23.28,50.8 -44.45,96.52 -21.17,45.72 -45.3,97.37 -72.39,154.94 -27.09,57.57 -56.3,118.53 -87.63,182.88 -31.33,64.35 -61.38,124.88 -90.17,181.61 -28.79,56.73 -54.19,107.1 -76.2,151.13 -22.01,44.03 -38.1,74.51 -48.26,91.44l-236.22 -132.08c10.16,-15.24 26.67,-44.45 49.53,-87.63 22.86,-43.18 48.68,-93.13 77.47,-149.86 28.79,-56.73 58.84,-117.69 90.17,-182.88 31.33,-65.19 60.96,-126.58 88.9,-184.15 27.94,-57.57 52.49,-108.8 73.66,-153.67 21.17,-44.87 35.14,-76.62 41.91,-95.25l233.68 127z"/>
  <path id="_1_0" class="fil4" d="M7671.79 15307.2l0 309.88 568.96 0 0 1630.68 -243.84 0 0 -144.78 -1407.16 0 0 142.24 -248.92 0 0 -1628.14 551.18 0 0 -309.88 -678.18 0 0 -238.76 2164.08 0 0 238.76 -706.12 0zm-248.92 0l-287.02 0 0 309.88 287.02 0 0 -309.88zm-833.12 556.26l0 619.76c67.73,-45.72 121.5,-88.9 161.29,-129.54 39.79,-40.64 69.85,-84.24 90.17,-130.81 20.32,-46.57 33.87,-98.21 40.64,-154.94 6.77,-56.73 10.16,-124.88 10.16,-204.47l-302.26 0zm1407.16 995.68l0 -309.88 -248.92 0c-116.84,0 -200.24,-23.71 -250.19,-71.12 -49.95,-47.41 -74.93,-131.23 -74.93,-251.46l0 -363.22 -287.02 0c0,103.29 -6.35,194.73 -19.05,274.32 -12.7,79.59 -34.71,151.13 -66.04,214.63 -31.33,63.5 -74.51,121.92 -129.54,175.26 -55.03,53.34 -124.88,106.26 -209.55,158.75l-121.92 -137.16 0 309.88 1407.16 0zm-325.12 -995.68l0 281.94c0,64.35 10.16,106.68 30.48,127 20.32,20.32 63.5,30.48 129.54,30.48l165.1 0 0 -439.42 -325.12 0z"/>
  <path class="fil4" d="M20841.87 15670.59l-259.08 0 0 -533.4 891.54 0c-10.16,-33.87 -20.32,-66.46 -30.48,-97.79 -10.16,-31.33 -19.47,-59.69 -27.94,-85.09l256.54 -38.1c10.16,30.48 21.59,64.77 34.29,102.87 12.7,38.1 25.82,77.47 39.37,118.11l871.22 0 0 533.4 -256.54 0 0 -294.64 -1518.92 0 0 294.64zm1879.6 1216.66l0 226.06 -2245.36 0 0 -226.06 398.78 0 0 -1328.42 1450.34 0 0 1328.42 396.24 0zm-1600.2 -1102.36l0 220.98 960.12 0 0 -220.98 -960.12 0zm960.12 436.88l-960.12 0 0 223.52 960.12 0 0 -223.52zm-960.12 665.48l960.12 0 0 -220.98 -960.12 0 0 220.98z"/>
  <path id="_1_1" class="fil4" d="M26936.95 16684.05c-67.73,-35.56 -131.66,-71.97 -191.77,-109.22 -60.11,-37.25 -117.26,-76.2 -171.45,-116.84l0 744.22 -243.84 0 0 -104.14 -876.3 0 0 106.68 -243.84 0 0 -749.3c-52.49,40.64 -107.95,81.28 -166.37,121.92 -58.42,40.64 -121.5,82.97 -189.23,127l-127 -218.44c140.55,-84.67 260.77,-166.79 360.68,-246.38 99.91,-79.59 186.27,-162.56 259.08,-248.92l-525.78 0 0 -193.04 662.94 0c27.09,-47.41 52.49,-98.21 76.2,-152.4l-561.34 0 0 -187.96 635 0c8.47,-23.71 16.09,-47.84 22.86,-72.39 6.77,-24.55 14.39,-50.38 22.86,-77.47l-777.24 0 0 -195.58 822.96 0c6.77,-33.87 12.7,-68.58 17.78,-104.14 5.08,-35.56 9.31,-71.97 12.7,-109.22l248.92 12.7c-3.39,33.87 -8.04,67.31 -13.97,100.33 -5.93,33.02 -12.28,66.46 -19.05,100.33l904.24 0 0 195.58 -944.88 0c-6.77,25.4 -12.7,50.8 -17.78,76.2 -5.08,25.4 -11.85,49.95 -20.32,73.66l889 0 0 187.96 -949.96 0c-10.16,27.09 -20.32,52.92 -30.48,77.47 -10.16,24.55 -22.01,49.53 -35.56,74.93l1191.26 0 0 193.04 -533.4 0c71.12,89.75 158.75,171.03 262.89,243.84 104.14,72.81 228.18,144.78 372.11,215.9l-121.92 233.68zm-1280.16 -693.42c-22.01,30.48 -44.45,60.96 -67.31,91.44 -22.86,30.48 -48.68,60.96 -77.47,91.44l756.92 0c-23.71,-28.79 -46.99,-58.42 -69.85,-88.9 -22.86,-30.48 -44.45,-61.81 -64.77,-93.98l-477.52 0zm673.1 386.08l-876.3 0 0 157.48 876.3 0 0 -157.48zm0 515.62l0 -157.48 -876.3 0 0 157.48 876.3 0z"/>
  <path class="fil5" d="M1617.08 3211.07l813.3 0c135.77,0 247.68,43.81 335.73,132.3 81.12,81.11 121.89,189.55 121.89,325.32 0,108.44 -37.3,199.53 -111.91,274.14 -40.34,40.77 -91.53,71.13 -152.25,91.52 81.11,27.33 145.74,64.63 193.02,111.91 81.55,81.55 121.89,183.05 121.89,304.93 0,149.22 -50.75,274.58 -152.25,376.08 -81.55,81.54 -203.44,122.32 -366.1,122.32l-803.32 0 0 -1738.52zm234.23 193.02l0 538.74 548.71 0c67.66,0 125.35,-23.43 173.07,-71.14 54.22,-54.22 81.11,-125.36 81.11,-213.41 0,-74.61 -26.89,-138.81 -81.11,-193.03 -40.78,-40.77 -91.53,-61.16 -152.69,-61.16l-569.09 0zm0 732.19l0 619.85 518.34 0c101.5,0 179.58,-26.89 233.8,-81.11 61.16,-61.16 91.52,-135.77 91.52,-223.83 0,-94.99 -27.32,-169.16 -81.54,-223.38 -60.73,-61.16 -142.28,-91.53 -243.78,-91.53l-518.34 0z"/>
  <path id="_1_2" class="fil5" d="M3422.65 4085.1c0,-297.99 78.08,-524.85 233.8,-681.01 142.27,-142.27 315.34,-213.41 518.34,-213.41 203.44,0 369.57,64.2 498.4,193.03 108.44,108.44 166.13,240.73 172.63,396.46l-243.77 0c-6.94,-114.95 -47.72,-209.95 -121.89,-284.55 -74.61,-74.61 -176.54,-111.91 -305.37,-111.91 -128.39,0 -236.83,44.24 -325.32,132.29 -121.88,121.89 -182.61,311.88 -182.61,569.1 0,244.21 64.2,430.72 193.02,559.55 88.06,88.06 209.94,131.87 366.1,131.87 114.94,0 209.94,-37.31 284.54,-111.91 74.61,-74.18 118.42,-152.26 132.3,-233.8l0 -162.66 -294.96 0 0 -193.03 528.76 0 0 894.85 -173.07 0 -60.73 -173.07c-115.38,115.38 -261.12,173.07 -437.23,173.07 -216.88,0 -393.42,-68.1 -528.76,-203.43 -169.6,-169.6 -254.18,-396.46 -254.18,-681.44z"/>
  <path id="_2" class="fil5" d="M5441.63 3211.07l874.47 0 0 193.02 -681.44 0 0 30.37c-6.51,128.82 -16.92,254.18 -30.37,376.5 -6.94,20.39 -9.97,40.34 -9.97,60.73 88.05,-81.11 182.61,-121.89 284.55,-121.89 135.33,0 247.24,44.25 335.29,132.3 95,94.56 142.28,233.8 142.28,416.84 0,230.33 -60.73,406.44 -183.05,528.33 -94.56,94.99 -213.41,142.7 -355.68,142.7 -135.34,0 -247.25,-44.24 -335.3,-132.29 -88.06,-88.06 -142.28,-220.35 -162.66,-396.46l233.79 0c13.45,128.83 47.28,220.35 101.51,274.57 40.77,40.34 91.52,60.73 152.68,60.73 81.11,0 145.74,-23.43 193.02,-71.14 74.61,-74.61 111.91,-199.97 111.91,-376.07 0,-169.6 -30.36,-284.55 -91.52,-345.71 -40.77,-40.77 -88.05,-61.16 -142.27,-61.16 -81.55,0 -152.69,30.8 -213.41,91.52 -40.78,40.78 -68.11,71.14 -81.55,91.53l-203.44 0c6.94,-26.9 10.41,-50.75 10.41,-71.14l50.75 -782.51 0 -40.77z"/>
  <path id="_3" class="fil5" d="M7643.67 3211.07l233.8 0 0 1250.53c0,155.73 -47.28,281.08 -142.28,376.08 -88.05,88.05 -223.82,132.29 -406.86,132.29 -183.05,0 -318.39,-44.24 -406.44,-132.29 -115.38,-115.38 -173.07,-301.47 -173.07,-559.12l233.8 0c0,196.49 34.26,328.79 101.93,396.46 54.22,54.22 132.3,81.11 233.8,81.11 108.44,0 186.52,-23.42 233.8,-71.14 61.16,-60.72 91.52,-138.8 91.52,-233.8l0 -1240.12z"/>
  <polygon id="_4" class="fil5" points="8310.62,3211.07 8768.24,3211.07 8768.24,3434.46 8656.33,3434.46 8656.33,4725.77 8768.24,4725.77 8768.24,4949.59 8310.62,4949.59 8310.62,4725.77 8422.53,4725.77 8422.53,3434.46 8310.62,3434.46 "/>
  <polygon id="_5" class="fil5" points="9201.4,3211.07 9516.31,3211.07 9984.34,4563.11 10451.93,3211.07 10766.84,3211.07 10766.84,4949.59 10533.05,4949.59 10533.05,3617.5 10065.45,4949.59 9902.79,4949.59 9435.19,3617.5 9435.19,4949.59 9201.4,4949.59 "/>
  <path class="fil5" d="M18313.4 3542.88c0,-155.72 51.18,-284.55 152.68,-386.05 88.05,-88.05 196.5,-132.3 325.32,-132.3 149.22,0 267.63,44.25 355.69,132.3 81.54,81.11 122.32,189.55 122.32,325.32 0,135.34 -34.27,237.27 -101.94,304.94 -47.28,47.28 -98.03,74.6 -152.25,81.11 67.67,20.39 125.36,54.22 172.64,101.93 81.55,81.12 121.89,189.56 121.89,325.32 0,148.79 -47.28,271.11 -142.28,365.67 -94.99,94.99 -226.85,142.7 -396.45,142.7 -142.28,0 -260.7,-47.71 -355.69,-142.7 -94.99,-94.56 -142.27,-206.47 -142.27,-335.3l0 -81.55 233.79 0 0 71.57c0,88.06 30.37,162.66 91.53,223.39 47.28,47.71 104.97,71.14 172.64,71.14 88.05,0 159.19,-26.9 213.41,-81.12 54.22,-54.22 81.54,-139.24 81.54,-254.18 0,-95 -27.32,-169.6 -81.54,-223.82 -54.22,-54.22 -114.95,-81.12 -183.05,-81.12l-81.11 0 0 -173.07 61.16 0c60.72,0 118.41,-26.89 172.63,-81.11 54.22,-54.22 81.55,-132.3 81.55,-233.8 0,-88.05 -27.33,-159.62 -81.55,-213.84 -40.77,-40.34 -94.99,-60.73 -162.66,-60.73 -61.16,0 -115.38,23.86 -162.66,71.14 -54.22,54.22 -84.58,142.27 -91.52,264.16l-223.82 0z"/>
  <path id="_1_3" class="fil5" d="M19773.27 3542.88c0,-155.72 51.18,-284.55 152.68,-386.05 88.05,-88.05 196.5,-132.3 325.32,-132.3 149.22,0 267.63,44.25 355.69,132.3 81.54,81.11 122.32,189.55 122.32,325.32 0,135.34 -34.27,237.27 -101.94,304.94 -47.28,47.28 -98.03,74.6 -152.25,81.11 67.67,20.39 125.36,54.22 172.64,101.93 81.55,81.12 121.89,189.56 121.89,325.32 0,148.79 -47.28,271.11 -142.28,365.67 -94.99,94.99 -226.85,142.7 -396.45,142.7 -142.28,0 -260.7,-47.71 -355.69,-142.7 -94.99,-94.56 -142.27,-206.47 -142.27,-335.3l0 -81.55 233.79 0 0 71.57c0,88.06 30.37,162.66 91.53,223.39 47.28,47.71 104.97,71.14 172.64,71.14 88.05,0 159.19,-26.9 213.41,-81.12 54.22,-54.22 81.54,-139.24 81.54,-254.18 0,-95 -27.32,-169.6 -81.54,-223.82 -54.22,-54.22 -114.95,-81.12 -183.05,-81.12l-81.11 0 0 -173.07 61.16 0c60.72,0 118.41,-26.89 172.63,-81.11 54.22,-54.22 81.55,-132.3 81.55,-233.8 0,-88.05 -27.33,-159.62 -81.55,-213.84 -40.77,-40.34 -94.99,-60.73 -162.66,-60.73 -61.16,0 -115.38,23.86 -162.66,71.14 -54.22,54.22 -84.58,142.27 -91.52,264.16l-223.82 0z"/>
  <path id="_2_4" class="fil5" d="M21202.77 3949.75c0,-373.04 81.55,-640.67 244.21,-803.33 81.12,-81.11 183.05,-121.89 304.94,-121.89 128.82,0 233.79,40.78 314.91,121.89 88.05,88.05 132.29,199.96 132.29,335.73l-233.79 0c0,-94.99 -20.39,-162.66 -61.16,-203.43 -40.34,-40.78 -91.53,-61.16 -152.25,-61.16 -61.16,0 -111.91,20.38 -152.69,61.16 -108.44,108.44 -162.66,297.99 -162.66,569.09 27.33,-47.28 61.16,-91.52 101.94,-131.86 60.72,-61.16 135.33,-91.52 223.38,-91.52 121.89,0 223.82,40.77 304.94,121.88 101.93,101.5 152.68,254.19 152.68,457.62 0,209.94 -54.22,369.13 -162.66,477.57 -81.55,81.55 -193.02,122.32 -335.73,122.32 -121.89,0 -233.8,-51.18 -335.3,-152.68 -121.89,-121.89 -183.05,-355.69 -183.05,-701.39zm538.74 -142.28c-67.67,0 -125.36,23.43 -172.64,71.14 -74.61,74.61 -111.91,176.11 -111.91,304.93 0,162.66 40.77,284.55 121.89,366.1 47.71,47.28 98.46,71.14 152.68,71.14 61.16,0 111.91,-20.39 152.25,-61.16 61.16,-61.16 91.52,-179.58 91.52,-355.69 0,-156.15 -30.36,-264.59 -91.52,-325.32 -47.28,-47.71 -94.56,-71.14 -142.27,-71.14z"/>
  <path id="_3_5" class="fil5" d="M22693.01 3634.4c0,-209.94 54.22,-369.13 162.66,-477.57 88.49,-88.05 193.46,-132.3 315.34,-132.3 149.22,0 267.63,44.25 355.69,132.3 88.05,88.05 132.29,196.49 132.29,325.32 0,162.66 -50.75,304.94 -152.68,426.82 -94.56,115.38 -193.02,226.86 -294.52,335.3 -54.22,61.16 -108.44,122.32 -162.66,183.05 -47.72,54.22 -88.06,108.44 -121.89,162.66l762.12 0 0 193.46 -1036.69 0 0 -173.07c13.44,-67.67 71.13,-162.66 172.63,-284.55 169.61,-183.05 308.41,-335.3 416.85,-457.62 115.38,-121.89 173.07,-250.71 173.07,-386.05 0,-81.55 -27.33,-149.21 -81.55,-203.43 -40.77,-40.78 -91.52,-61.16 -152.68,-61.16 -54.22,0 -101.5,20.38 -142.27,61.16 -74.61,74.6 -111.48,193.02 -111.48,355.68l-234.23 0z"/>
  <path id="_4_6" class="fil5" d="M24122.51 3624.43c0,-203.44 61.16,-366.1 183.05,-487.99 74.61,-74.6 176.11,-111.91 304.94,-111.91 121.88,0 227.29,44.25 315.34,132.3 142.27,142.27 213.41,389.52 213.41,742.17 0,359.15 -74.61,613.34 -223.82,762.12 -94.56,94.99 -206.47,142.7 -335.3,142.7 -128.82,0 -230.33,-37.3 -304.93,-111.91 -88.06,-88.05 -132.3,-203.43 -132.3,-345.71l233.8 0c-6.94,88.06 20.38,162.67 81.55,223.39 26.89,27.33 67.66,40.78 121.88,40.78 60.73,0 114.95,-23.43 162.66,-71.14 108.44,-108.44 162.66,-308.41 162.66,-599.89 -27.32,40.77 -57.69,78.07 -91.52,111.91 -74.61,74.6 -166.13,111.91 -274.57,111.91 -101.5,0 -186.52,-33.84 -254.19,-101.5 -108.44,-108.44 -162.66,-254.19 -162.66,-437.23zm487.99 -416.85c-54.22,0 -101.5,20.39 -142.28,60.73 -67.66,68.1 -101.5,186.51 -101.5,356.12 0,135.33 26.89,230.32 81.12,284.54 47.71,47.28 94.99,71.14 142.27,71.14 81.55,0 142.27,-20.39 183.05,-61.16 74.6,-74.17 111.91,-165.7 111.91,-274.14 0,-169.6 -37.31,-291.49 -111.91,-366.09 -47.28,-47.28 -101.5,-71.14 -162.66,-71.14z"/>
  <path id="_5_7" class="fil5" d="M25582.38 3624.43c0,-203.44 61.16,-366.1 183.05,-487.99 74.61,-74.6 176.11,-111.91 304.94,-111.91 121.88,0 227.29,44.25 315.34,132.3 142.27,142.27 213.41,389.52 213.41,742.17 0,359.15 -74.61,613.34 -223.82,762.12 -94.56,94.99 -206.47,142.7 -335.3,142.7 -128.82,0 -230.33,-37.3 -304.93,-111.91 -88.06,-88.05 -132.3,-203.43 -132.3,-345.71l233.8 0c-6.94,88.06 20.38,162.67 81.55,223.39 26.89,27.33 67.66,40.78 121.88,40.78 60.73,0 114.95,-23.43 162.66,-71.14 108.44,-108.44 162.66,-308.41 162.66,-599.89 -27.32,40.77 -57.69,78.07 -91.52,111.91 -74.61,74.6 -166.13,111.91 -274.57,111.91 -101.5,0 -186.52,-33.84 -254.19,-101.5 -108.44,-108.44 -162.66,-254.19 -162.66,-437.23zm487.99 -416.85c-54.22,0 -101.5,20.39 -142.28,60.73 -67.66,68.1 -101.5,186.51 -101.5,356.12 0,135.33 26.89,230.32 81.12,284.54 47.71,47.28 94.99,71.14 142.27,71.14 81.55,0 142.27,-20.39 183.05,-61.16 74.6,-74.17 111.91,-165.7 111.91,-274.14 0,-169.6 -37.31,-291.49 -111.91,-366.09 -47.28,-47.28 -101.5,-71.14 -162.66,-71.14z"/>
 </g>
</svg>
