<?xml version="1.0" encoding="UTF-8"?>
<svg id="_图层_1" data-name="图层 1" xmlns="http://www.w3.org/2000/svg" viewBox="0 0 819 772">
  <defs>
    <style>
      .cls-1 {
        fill: #f15000;
      }

      .cls-1, .cls-2, .cls-3, .cls-4, .cls-5, .cls-6, .cls-7, .cls-8, .cls-9, .cls-10, .cls-11, .cls-12, .cls-13, .cls-14, .cls-15, .cls-16, .cls-17, .cls-18, .cls-19, .cls-20, .cls-21, .cls-22, .cls-23, .cls-24, .cls-25, .cls-26, .cls-27, .cls-28, .cls-29, .cls-30, .cls-31, .cls-32, .cls-33, .cls-34, .cls-35, .cls-36, .cls-37, .cls-38, .cls-39, .cls-40, .cls-41, .cls-42, .cls-43, .cls-44, .cls-45, .cls-46, .cls-47, .cls-48, .cls-49, .cls-50, .cls-51, .cls-52, .cls-53, .cls-54, .cls-55, .cls-56, .cls-57, .cls-58, .cls-59, .cls-60, .cls-61, .cls-62, .cls-63, .cls-64, .cls-65, .cls-66, .cls-67, .cls-68, .cls-69, .cls-70, .cls-71, .cls-72, .cls-73, .cls-74, .cls-75, .cls-76, .cls-77, .cls-78, .cls-79, .cls-80, .cls-81, .cls-82, .cls-83, .cls-84, .cls-85, .cls-86, .cls-87, .cls-88, .cls-89, .cls-90, .cls-91, .cls-92, .cls-93, .cls-94, .cls-95, .cls-96, .cls-97, .cls-98, .cls-99 {
        stroke-width: 0px;
      }

      .cls-2 {
        fill: #0597eb;
      }

      .cls-3 {
        fill: #eb4300;
      }

      .cls-4 {
        fill: #f85c00;
      }

      .cls-5 {
        fill: #0190e7;
      }

      .cls-6 {
        fill: #fefefe;
      }

      .cls-7 {
        fill: #f04f00;
      }

      .cls-8 {
        fill: #0393e9;
      }

      .cls-9 {
        fill: #e83c00;
      }

      .cls-10 {
        fill: #e02100;
      }

      .cls-11 {
        fill: #29b6f8;
      }

      .cls-12 {
        fill: #e12300;
      }

      .cls-13 {
        fill: #e53200;
      }

      .cls-14 {
        fill: #ed4900;
      }

      .cls-15 {
        fill: #006fc5;
      }

      .cls-16 {
        fill: #e53402;
      }

      .cls-17 {
        fill: #ed4800;
      }

      .cls-18 {
        fill: #f25200;
      }

      .cls-19 {
        fill: #fc6100;
      }

      .cls-20 {
        fill: #e73700;
      }

      .cls-21 {
        fill: #0089e1;
      }

      .cls-22 {
        fill: #0075cc;
      }

      .cls-23 {
        fill: #e42f00;
      }

      .cls-24 {
        fill: #fe6b00;
      }

      .cls-25 {
        fill: #0084dc;
      }

      .cls-26 {
        fill: #0c9eef;
      }

      .cls-27 {
        fill: #1aaaf4;
      }

      .cls-28 {
        fill: #006cc2;
      }

      .cls-29 {
        fill: #30bcf9;
      }

      .cls-30 {
        fill: #14a5f2;
      }

      .cls-31 {
        fill: #df1c00;
      }

      .cls-32 {
        fill: #ea4100;
      }

      .cls-33 {
        fill: #007cd4;
      }

      .cls-34 {
        fill: #f65900;
      }

      .cls-35 {
        fill: #f35400;
      }

      .cls-36 {
        fill: #fa5e00;
      }

      .cls-37 {
        fill: #e93f00;
      }

      .cls-38 {
        fill: #0072c8;
      }

      .cls-39 {
        fill: #e93e00;
      }

      .cls-40 {
        fill: #f45600;
      }

      .cls-41 {
        fill: #ee4b00;
      }

      .cls-42 {
        fill: #089aed;
      }

      .cls-43 {
        fill: #0081d9;
      }

      .cls-44 {
        fill: #fe6a00;
      }

      .cls-45 {
        fill: #ea3f00;
      }

      .cls-46 {
        fill: #e22600;
      }

      .cls-47 {
        fill: #0069be;
      }

      .cls-48 {
        fill: #0085dd;
      }

      .cls-49 {
        fill: #e63600;
      }

      .cls-50 {
        fill: #018fe6;
      }

      .cls-51 {
        fill: #0067bb;
      }

      .cls-52 {
        fill: #ee7149;
      }

      .cls-53 {
        fill: #16a7f3;
      }

      .cls-54 {
        fill: #fa5f00;
      }

      .cls-55 {
        fill: #0079d1;
      }

      .cls-56 {
        fill: #ea4000;
      }

      .cls-57 {
        fill: #0063b7;
      }

      .cls-58 {
        fill: #0088e0;
      }

      .cls-59 {
        fill: #008be3;
      }

      .cls-60 {
        fill: #f55700;
      }

      .cls-61 {
        fill: #35bffa;
      }

      .cls-62 {
        fill: #ee4a00;
      }

      .cls-63 {
        fill: #e53100;
      }

      .cls-64 {
        fill: #e73800;
      }

      .cls-65 {
        fill: #ef4d00;
      }

      .cls-66 {
        fill: #f65800;
      }

      .cls-67 {
        fill: #fc6200;
      }

      .cls-68 {
        fill: #fe6700;
      }

      .cls-69 {
        fill: #007ad2;
      }

      .cls-70 {
        fill: #f15100;
      }

      .cls-71 {
        fill: #2db9f9;
      }

      .cls-72 {
        fill: #eb4400;
      }

      .cls-73 {
        fill: #e32b00;
      }

      .cls-74 {
        fill: #fe6601;
      }

      .cls-75 {
        fill: #ec4500;
      }

      .cls-76 {
        fill: #e02200;
      }

      .cls-77 {
        fill: #e22700;
      }

      .cls-78 {
        fill: #df1d00;
      }

      .cls-79 {
        fill: #e63300;
      }

      .cls-80 {
        fill: #e32a00;
      }

      .cls-81 {
        fill: #e83a00;
      }

      .cls-82 {
        fill: #e73900;
      }

      .cls-83 {
        fill: #ec4600;
      }

      .cls-84 {
        fill: #e53300;
      }

      .cls-85 {
        fill: #0077cf;
      }

      .cls-86 {
        fill: #e53000;
      }

      .cls-87 {
        fill: #24b2f7;
      }

      .cls-88 {
        fill: #fe7100;
      }

      .cls-89 {
        fill: #e42e00;
      }

      .cls-90 {
        fill: #0fa1f0;
      }

      .cls-91 {
        fill: #0080d8;
      }

      .cls-92 {
        fill: #1faef5;
      }

      .cls-93 {
        fill: #e93d00;
      }

      .cls-94 {
        fill: #007ed6;
      }

      .cls-95 {
        fill: #e83b00;
      }

      .cls-96 {
        fill: #eb4401;
      }

      .cls-97 {
        fill: #ea4200;
      }

      .cls-98 {
        fill: #fd6400;
      }

      .cls-99 {
        fill: #0076ce;
      }
    </style>
  </defs>
  <path class="cls-6" d="m443,771.91c-146.21,0-292.42-.02-438.63.09-3.56,0-4.37-.68-4.36-4.32.12-128.22.1-256.45.1-384.67,2.37.23,2.18,2.19,2.36,3.73,1.3,11.07,1.5,22.22,2.01,33.33.49,10.77.76,8.68,8.79,10.26.82.16,1.65.24,2.46.4,4.45.83,8.93,1.47,13.42,1.99,4.98.85,9.96,1.76,15,2.25,6.73,1,13.44,2.22,20.2,3.06,4.51.56,5.19,0,4.46-4.43-2.01-12.13-3.96-24.28-4.47-36.57-.53-12.57-2.48-25.11-1-37.74.54-4.64-.26-5.36-4.88-4.55-6.71,1.18-13.33,2.79-19.99,4.18-4.81.79-9.52,2.04-14.29,3.03-3.7.67-7.41,1.31-11.04,2.36-4.32.67-8.55,3.14-13.04.71C.1,244.78.12,124.55,0,4.32,0,.67.81,0,4.37,0c139.54.11,279.09.09,418.63.09,1.52,2.65-.78,4.65-1.18,6.97-1.49,3.28-2.76,6.64-4.03,10.01-1.17,2.34-1.95,4.85-2.95,7.27-1.44,3.29-2.67,6.67-3.98,10.01-1.81,4.26-3.5,8.56-5.1,12.91-1.55,3.48-2.9,7.04-4.14,10.65-3.91,9.61-4.22,8.83,5.97,8.7,13.8-.18,27.47,1.31,41.12,3.06,13.66,2.31,27.22,5.05,40.27,10.16,1.29-1.42.29-3.15.62-4.67-.02-1.34-.05-2.67-.03-4-.02-3.22.45-6.47-.45-9.65-.18-.54-.29-1.1-.38-1.66-.88-6.65.72-13.4-.82-20.02-1.32-6.77.57-13.69-.95-20.45q-.97-7.81-8.66-9.09c-15.23-2.53-30.52-4.65-45.71-7.36-2.02-.36-4.91.36-5.62-2.84C556.14.09,685.27.11,814.41,0c3.75,0,4.59.84,4.59,4.59-.1,254.27-.1,508.54,0,762.81,0,3.75-.84,4.6-4.59,4.59-122.8-.11-245.61-.09-368.41-.09.67-3.17,3.55-2.57,5.58-3.03,16.39-3.7,32.87-6.95,49.29-10.51,6.57-1.43,6.61-1.47,6.69-8.14.05-3.82-.29-7.66.43-11.45,1.02-5.18.22-10.42.58-15.62-.07-1.77.01-3.53.37-5.26,1.27-5.33.19-10.76.63-16.12-.04-2.82.9-5.53,1.01-8.33.16-3.96-.48-4.51-4.19-3.02-9.34,3.76-18.79,7.19-28.54,9.73-18.98,5.11-38.25,8.25-57.95,8.13-3.14-.02-4.45.73-2.76,4,1.3,2.5,2.13,5.22,3.45,7.72,2.34,5.17,4.96,10.21,7.11,15.46,1.24,2.82,2.65,5.54,4.09,8.26,1.45,2.96,2.87,5.92,4.06,9,1.5,3.49,3.31,6.84,5.08,10.2.86,2.95,4.18,5.35,2.07,8.98Z"/>
  <path class="cls-76" d="m443,771.91c.18-3.42-2.84-5.69-3.18-8.93,1.2-2.7,3.92-2.91,6.23-3.59,19.32-5.71,38.19-12.6,56.44-21.16,4.12-1.93,4.84-1.76,6.63.96-.1,5.16-.33,10.31-.26,15.46.04,2.97-1.27,3.85-4.04,4.42-18.74,3.81-37.43,7.85-56.13,11.8-.96.2-2.02.09-2.69,1.03h-3Z"/>
  <path class="cls-81" d="m16.1,431.96c-3.55.59-6.84-.99-10.3-1.19-2.97-.17-2.46-2.6-2.56-4.51-.7-13.26-1.36-26.52-2.1-39.78-.07-1.19.66-2.73-1.02-3.49v-9c.82-2,.82-4,0-6v-3c4.47.29,8.58-1.83,13-1.93,1.87,1.87,1.56,4.3,1.54,6.57-.14,19.23-.11,38.45,2.24,57.59.2,1.62.5,3.33-.79,4.73Z"/>
  <path class="cls-12" d="m427,.09c8.33,2.75,17.1,3.06,25.64,4.64,9.29,1.72,18.66,3.01,28.01,4.38,7.84,1.15,7.85,1.08,7.44,9.52,1.44,11.31.95,11.7-9.29,7.68-17.14-6.72-34.63-12.3-52.62-16.31-2.04-.45-4.37-.6-5.38-2.99.73-2.31,1.47-4.61,2.2-6.92,1.33,0,2.67,0,4,0Z"/>
  <path class="cls-52" d="m.1,368c1.31,2,1.74,4,0,6v-6Z"/>
  <path class="cls-18" d="m419.99,599.03c4.35.36,8.69.72,13.04,1.07,2.04.88,4.3-.15,6.34.74.87.05,1.74.09,2.62.14.19,3.51-2.75,4.31-5.01,5.38-7.22,3.44-14.77,6.07-22.34,8.67-29.54,10.16-60.01,14.08-91.03,12.07-42.54-2.76-81.84-15.89-117.5-39.48-42.86-28.36-73.58-66.59-92.28-114.35-8.16-20.85-13.27-42.49-15.28-64.93-3.62-40.51,2.55-79.42,18.51-116.65,11.71-27.31,27.94-51.71,48.85-73.08,28.45-29.08,61.94-49.64,100.59-61.97,30.37-9.69,61.43-12.88,93.19-10.12,28.87,2.51,56.28,10.1,82.38,22.59,1.65.79,3.41,1.5,4.64,2.88.84.94,2.66,1.96.62,3.52-6.44.27-12.9-.43-19.32.37-1.01.03-2.03.05-3.04.08-15.32-7.87-31.91-11.62-48.68-14.4-40.79-6.77-80.75-3.13-119.33,11.86-50.93,19.8-89.99,53.67-117.18,101.1-15.63,27.27-25.21,56.64-28.12,87.88-6.09,65.42,11.59,123.68,54.77,173.56,36.79,42.5,83.36,67.81,138.88,76.25,35.48,5.4,70.39,2.01,104.58-8.83,3.51-1.11,6.76-2.81,10.08-4.35Z"/>
  <path class="cls-40" d="m396,179.01c-8.33,1.63-16.66,3.25-24.99,4.88-7.78-2.85-16.03-3.1-24.07-3.35-36.12-1.1-70.55,6.24-102.67,22.95-35.89,18.67-63.94,45.74-84.36,80.72-14.59,25-22.96,52.04-26.23,80.64-4.12,36.03,1.9,70.61,16.19,103.85,15.55,36.18,40.15,64.97,72.14,87.45,26.91,18.91,57.02,29.83,89.57,34.54,20.82,3.02,41.44,1.93,62.09-1.04.49-.07.91-.4,1.32-.68,6.4,2.73,13.44,2.9,19.99,5.05.03,3.19-2.59,3.57-4.72,4.19-8.99,2.59-18.22,3.97-27.49,4.99-9.77,1.08-19.58,1.27-29.41,1.11-29.2-.47-57.08-6.82-83.77-18.56-27.54-12.12-51.35-29.52-71.64-51.6-30.51-33.19-49.06-72.23-55.25-116.94-5.29-38.21-1.28-75.51,13.06-111.33,19.13-47.79,51.59-84.2,96.22-109.8,24.92-14.29,51.85-22.68,80.25-26.02,25.79-3.03,51.52-1.97,76.84,4.4,2.7.68,6.18.67,6.93,4.54Z"/>
  <path class="cls-65" d="m604.04,327.23c-1.84,4.23-5.28,7.26-8.06,10.78-3.77-.18-3.68-3.36-4.15-5.76-2.94-15.09-7.76-29.58-13.53-43.78-6.4-15.76-14.05-30.86-23.95-44.75-.61-.85-.78-1.81-1.25-2.67-7.16-29.89-27.58-47-55.16-57.2-37.86-30.45-81.08-48.16-129.23-53.59-66.91-7.55-127.78,8.52-182.52,47.82-21.84,15.68-40.45,34.56-56.38,56.15-1.38,1.87-2.58,3.93-4.53,5.29-1.37.96-1.52.82-2.2-1.44,6.91-13.77,16.11-26.08,25.65-38.01,13.42-16.78,28.44-32.11,45.03-45.83,1.02-.84,2.14-1.56,3.21-2.34,10.54-4.55,20.26-10.69,30.8-15.29,26.15-11.42,53.29-18.93,81.66-21.9,10.25-1.07,20.52-2.19,30.84-1.93,38.19.98,74.9,8.55,109.89,24.31,25.12,11.31,48.05,25.9,68.78,43.91,23.46,20.38,42.53,44.39,57.73,71.5,12.12,21.62,21.25,44.41,27.2,68.48.52,2.1,1.42,4.15.15,6.27Z"/>
  <path class="cls-36" d="m265.73,249.03c-14.02,17.95-24.81,37.71-32.85,58.99-5.41,4.69-8.58,10.98-11.84,17.11-10.35,19.44-15.75,40.38-15.43,62.27.37,25.37,7.35,49.16,21.37,70.63,3.01,4.61,6.39,8.89,10.08,12.95,7.53,16.14,15.88,31.8,26.97,45.84,2.67,3.39,5.36,6.76,8.04,10.13-2.48,2.94-4.94.88-7.09-.3-10.38-5.69-20.37-12.03-29.26-19.9-30.49-27-49.32-60.3-54.05-101.07-3.57-30.84.8-60.54,14.49-88.45,13.99-28.5,35.01-50.82,62.25-67.19,2.18-1.31,4.55-3.1,7.32-1.02Z"/>
  <path class="cls-41" d="m291.05,672.81c-34.63-10.01-66.23-26.02-94.73-48.08-10.1-7.82-19.78-16.13-28.3-25.7.99-3.02,2.82-1.24,4.11-.52,3.94,2.18,7.43,5.06,11.1,7.66,36.3,25.81,76.6,41.62,120.73,47.1,51.78,6.42,101.54-1,148.98-23.21,18.2-8.52,35.01-19.2,51-31.26,12.01-2.58,24.02-5.15,36.04-7.73,1.88,2.99-.44,4.73-2.17,6.34-17.64,16.37-36.77,30.72-57.79,42.52-28.6,16.05-59.14,26.64-91.33,32.51-18.36,3.35-36.95,5.44-55.59,4.65-12.89-.54-25.94-.63-38.59-4.07-1.08-.29-2.29-.45-3.46-.21Z"/>
  <path class="cls-70" d="m448,174.95c-5.65-5.82-13.32-7.91-20.47-10.84-17.25-7.07-35.18-12.04-53.57-14.74-18.55-2.73-37.25-2.98-56.06-1.52-21.03,1.63-41.23,6.45-60.94,13.44-24.45,8.66-46.84,21.25-67.11,37.47-21.43,17.15-39.73,37.15-54.3,60.46-15.02,24.04-25.26,49.99-31.5,77.63-4.9,21.72-6.23,43.77-4.74,65.79,2.37,35,12.15,68.12,29.1,98.96,13.97,25.42,32.13,47.41,54.08,66.44,25.52,22.13,54.44,37.89,86.6,47.69,15.67,4.77,31.67,8.05,48.13,9.42,12.32,1.03,24.65,1.3,36.85.57,26.29-1.58,51.69-7.81,76.07-17.89,4.23-1.75,9.03-2.62,11.84-6.86,1.68.05,3.36.1,5.05.15,1.98.88,4.21-.3,6.16.79.05,2.79-2.28,3.47-4.11,4.44-23.54,12.41-48.77,19.58-74.89,23.84-12.32,2.01-24.79,3.38-37.26,3-47.59-1.47-91.88-13.92-132.11-40.03-34.38-22.31-61.38-51.4-81.47-86.98-16.1-28.51-25.65-59.23-29.56-91.66-6.17-51.2,3.9-99.46,28.03-144.72,18.38-34.49,43.88-62.89,76.06-85.32,35.82-24.97,75.61-38.91,118.79-43.51,30-3.2,59.41.63,88.41,8.53,20.72,5.64,40.14,14.22,58.63,25.04.96.56,2.26.82,2.24,2.34l-12-1c-1.88-.98-4.14.45-5.96-.92Z"/>
  <path class="cls-34" d="m325.98,200.03c-6.29,3.68-12.58,7.36-18.88,11.04-32.58,6.32-61.58,20.1-86.52,42.06-14.61,12.86-26.66,27.88-36.44,44.75-12.3,21.21-19.95,44.04-22.5,68.32-5.3,50.51,8.15,95.7,40.75,134.75,26.92,32.25,61.38,52.11,102.56,60.39,3.1.62,6.28.65,9.33,1.51,5.92,3.34,11.85,6.68,17.77,10.02-1.23,5.17-5.48,3.41-8.45,3.18-10.13-.77-20.16-2.44-30.06-4.83-31.78-7.66-59.53-22.73-83.59-44.86-33.71-31.02-54.01-69.25-59.77-114.5-7.05-55.33,7.06-105.31,43.16-148.08,31.33-37.13,71.66-58.95,119.89-65.71,4.24-.59,9-1.87,12.74,1.96Z"/>
  <path class="cls-4" d="m265.73,249.03c-3.23-.28-5.7,1.46-8.25,3.04-21.98,13.61-39.78,31.4-53.38,53.39-10.35,16.73-16.52,34.96-20.15,54.24-2.49,13.2-2.48,26.51-1.7,39.72,1,16.94,5.33,33.3,11.97,49,9.38,22.15,23.79,40.6,41.45,56.63,9.26,8.41,19.9,14.9,30.73,21.04,1.69.96,3.56,1.9,5.65.87,7.93,7.67,15.86,15.34,23.79,23-2.13,1.92-4.41.93-6.59.24-24.63-7.78-46.73-20.01-65.84-37.5-30.54-27.97-48.06-62.75-54.32-103.45-.43-2.81-.36-5.64-.42-8.48.03-9.52-.11-19.02.06-28.52.01-.56.09-1.12.22-1.67.87-2.26.76-4.67.94-7.03.05-.51.15-1.01.27-1.5.61-1.65.63-3.38.6-5.11,1.26-14.47,6.35-27.86,12.05-41,8.17-18.85,19.93-35.53,34.39-49.86,15.55-15.4,33.45-27.9,54.03-36.09,4.01-1.6,8.1-3.03,11.94-5.07,1.8-.96,3.73-1.58,5.53.13-7.92,7.74-15.81,15.52-22.97,23.99Z"/>
  <path class="cls-4" d="m288.7,225.04c-3.75-1.04-6.17,1.99-9.21,3.07-21.56,7.68-40.55,19.6-57.25,35.22-26.24,24.56-42.75,54.55-49.99,89.7-.26,1.29-.14,2.65-.19,3.98-1.23,1.49.18,3.5-1,5v1c-1.35,2.19.3,4.8-1,7v1c-.84,10.33-.84,20.66,0,30.99.9,18.1,5.99,35.14,12.88,51.75,7.4,17.81,18.1,33.44,31.02,47.67,20.9,23.01,46.59,38.3,76.01,47.7,1.95.62,3.86.91,5.86.84,5.53,5.18,12.72,8,18.44,12.9-5.05,2.06-9.85-.24-14.53-1.26-27.36-6.01-52.06-17.9-73.83-35.46-18.27-14.73-33-32.55-44.45-53.15-11.45-20.59-18.51-42.62-21.22-65.84-3.79-32.44,1.25-63.72,14.55-93.68,10.27-23.14,24.83-43.18,43.52-60.07,23.48-21.23,50.91-35.19,81.82-42.15,2.23-.5,4.65-.14,6.98-.18-6.55,4.1-12.83,8.58-18.41,13.97Z"/>
  <path class="cls-65" d="m503.94,598.8c-2.4,5.44-7.86,7.56-12.23,10.55-32.76,22.37-68.62,37.24-107.89,43.68-15.39,2.52-30.87,3.98-46.43,3.84-35.64-.32-70.04-6.92-103.03-20.73-21.87-9.16-41.99-21.21-61.03-35.23-1.37-1.01-2.69-3.77-5.31-1.88-15.44-15.44-28.22-32.91-39.27-51.67-3.73-6.34-7.03-12.94-10.52-19.42,3.19-2.92,4.39.5,5.64,2.09,3.79,4.84,7.19,9.99,11,14.83,31.96,40.58,72.32,69.4,121.17,86.1,20.85,7.13,42.36,11.09,64.42,12.84,33.54,2.67,66.08-1.86,97.9-12,21.48-6.85,41.77-16.47,60.57-29.06.97-.65,2.06-1.08,3.05-1.69,1.24-.06,2.49-.12,3.73-.19,2-.95,4.24.12,6.25-.74,3.99-.44,7.99-.88,11.98-1.32Z"/>
  <path class="cls-35" d="m396,179.01c-5.69-4.34-12.69-4.6-19.26-5.84-16.03-3.03-32.3-3.78-48.56-3.06-26.92,1.19-52.74,7.33-77.48,18.06-17.95,7.78-34.39,18.07-49.41,30.44-19.35,15.93-35.55,34.7-48.67,56.17-13.6,22.26-22.32,46.33-27.11,71.78-3.63,19.27-4.17,38.74-2.66,58.41,1.71,22.42,7.02,43.83,15.33,64.52,8.59,21.4,20.87,40.61,35.94,58.15,12.75,14.85,27.13,27.83,43.23,38.77,21.19,14.4,44.41,24.41,69.36,30.56,21.47,5.29,43.24,6.86,65.16,5.81,13.02-.63,26.01-2.42,38.67-5.9,1.78-.49,3.53-1.05,4.47-2.86,4.54.53,9,1.42,13.38,2.74-2.21,2.79-5.46,3.58-8.64,4.56-26,7.96-52.78,9.59-79.58,7.69-35.04-2.49-67.78-13.23-97.84-31.65-15.81-9.69-30.51-20.88-43.35-34.27-31.93-33.31-52.18-72.52-60.57-118.14-3.34-18.17-4.64-36.31-3.33-54.47.95-13.11,3.7-26.22,6.98-39.09,8.9-35.02,25.28-66.05,49.31-93.02,35.93-40.34,80.69-64.65,134.06-72.59,32.3-4.81,64.36-2.77,95.86,6.21,3.4.97,6.5,2.53,8.96,5.16-4.69,1.06-9.43,1.71-14.24,1.86Z"/>
  <path class="cls-1" d="m465.96,176.88c-5.29-1.6-9.59-5.09-14.37-7.64-23.84-12.72-49.36-20.38-75.81-24.91-14.18-2.43-28.63-3.92-43.05-3.18-39.6,2.04-77.35,11.33-112.19,30.75-16.26,9.06-31.26,19.92-45.28,32.29-25.97,22.92-45.53,50.45-60.01,81.66-9.89,21.33-15.9,43.87-19.27,67.15-1.71,11.83-3.15,23.7-2.79,35.6.98,32.4,7.26,63.74,19.98,93.71,9.75,22.98,22.86,43.87,38.83,62.91,18.19,21.69,40.03,39.11,64.41,53.47,26.39,15.55,54.96,24.9,84.95,30,14.02,2.39,28.3,3.88,42.56,3.15,31.32-1.61,61.76-7.52,90.67-20.17,6.36-2.78,12.94-5.14,18.41-9.62,2.41-1.23,4.99-.34,7.47-.55,1.72,3.16-1.21,3.9-2.83,5.02-6.35,4.38-13.51,7.2-20.56,10.2-24.09,10.25-49.16,16.85-75.22,19.36-43.04,4.15-84.31-3.11-123.87-20.23-30.5-13.2-57.42-31.84-80.22-55.95-38.51-40.74-61.35-89.06-68.14-144.85-5.97-49.07,3.03-95.58,24.45-139.73,12.83-26.43,30.04-50.01,51.54-70.11,40.81-38.16,88.95-60.88,144.58-67.65,37.58-4.57,74.04.08,109.75,12.06,15.62,5.31,30.56,12.13,44.74,20.53,3.45,2.04,7.41,3.71,9.28,7.75-2.67-.35-5.34-.69-8.01-1.04Z"/>
  <path class="cls-83" d="m291.05,672.81c2.21-1.92,4.39-.21,6.6.03,14.31,1.56,28.65,3.34,43.05,3,27.73-.66,54.99-4.73,81.56-12.86,28.76-8.8,55.57-21.61,80.33-38.77,12.01-8.33,23.01-17.85,33.99-27.42,1.7-1.49,3.77-2.93,3.4-5.73,11.33-3.98,22.66-7.97,33.99-11.95,1.87,3.04-.36,4.99-1.97,6.99-8.38,10.4-18.05,19.61-27.79,28.66-14.92,13.86-31.4,25.75-48.92,36.14-29.47,17.48-61.07,29.53-94.58,36.64-1.31.28-2.63.38-3.96.39,1.48.45,3.73-.92,4.23,1.81-25.82-.19-51.35-3.23-76.65-8.26-11.26-2.24-22.48-4.65-33.28-8.68Z"/>
  <path class="cls-41" d="m604.04,327.23c-3.9-17.02-9.2-33.58-16.24-49.58-9.14-20.77-20.66-40.08-34.48-58.1-15.76-20.56-34.24-38.25-55.17-53.39-23.32-16.87-48.71-29.81-76.13-38.53-18.17-5.78-36.67-10.1-55.78-11.69-10.91-.91-21.8-2.28-32.74-1.82-30.63,1.28-60.53,6.42-89.34,17.3-14.65,5.53-28.73,12.21-42.45,19.7-1.32.72-2.79,2.92-4.74.77,8.29-7.75,17.76-13.93,27.27-20,6.11-3.89,12.14-7.95,18.85-10.82,14.48-3.03,28.44-8.09,43.03-10.77,25.04-4.59,50.19-5.64,75.55-3.75,39.5,2.94,76.4,14.51,111.25,33,20.12,10.67,38.33,24.04,55.25,39.25,28.69,25.78,50.25,56.71,66.38,91.56,5.53,11.96,9.99,24.36,13.52,37.05.92,3.32,3.38,6.17,3,9.87-2.83,2.97-3.49,7.48-7.04,9.94Z"/>
  <path class="cls-60" d="m375.01,588.97c-1.67,3.18-5.09,2.35-7.58,2.75-23.31,3.77-46.54,2.65-69.64-2-26.69-5.37-51.42-15.6-74.05-30.69-18.51-12.34-34.37-27.59-48.26-44.97-15.21-19.04-26.44-40.19-33.94-63.29-5.07-15.63-8.01-31.68-9.6-48.09-3.17-32.62,2.61-63.84,14.51-93.91,9.66-24.43,23.9-46.12,42.33-65.15,17.31-17.87,36.76-32.56,59.07-43.46,20.58-10.06,42.29-16.27,65.03-19.26,11.24-1.47,22.46-2.22,33.74-1.78,7.09.28,14.16,1.26,21.22,2.08,1.43.17,2.96.79,3.18,2.68-4.31,1.06-8.62,2.13-12.93,3.19-55.74-4.75-105.65,9.97-148.56,46.01-39.69,33.33-63.37,76.13-69.67,127.58-7.12,58.1,7.78,110.46,45.75,155.38,33.34,39.44,76.14,62.36,127.32,69.26,16.69,2.25,33.51,1.91,50.27.2,3.94,1.15,7.88,2.3,11.82,3.45Z"/>
  <path class="cls-7" d="m123.09,238.08c2.08,2.84,2.38-.34,2.92-1.06,9.45-12.63,19.16-25.08,30.62-35.93,25.44-24.08,54.06-43.27,86.86-56.12,19.42-7.61,39.41-12.71,59.94-15.7,16.12-2.35,32.45-3.09,48.7-2.1,39.09,2.39,76.1,12.59,110.59,31.3,10.95,5.94,21.26,12.95,31.34,20.27,1.8,1.31,2.95,3.14,3.89,5.12-6.32-1.65-12.64-3.3-18.96-4.95-12.34-10.52-26.86-17.19-41.58-23.49-5.36-2.29-10.74-4.55-16.38-6.11-17.59-6.5-35.75-10.67-54.37-12.49-15.55-1.52-31.12-1.66-46.81-.72-30.2,1.82-58.61,9.94-86.11,21.95-21.38,9.34-40.67,22.07-58.31,37.19-35.17,30.13-60.34,67.06-74.95,111.17-6.53,19.7-10.89,39.71-12.25,60.46-.62,9.44-2.15,18.83-1.85,28.34.04,1.17-.14,2.33-.73,3.38-.34.53-.8.66-1.37.41-.1-2.52-.19-5.05-.29-7.57-1.04-4.42.25-8.97-.73-13.4,0-2.36,0-4.71.01-7.07.95-3.72-.33-7.58.72-11.29.09-1.9.18-3.8.27-5.71.8-1.67-.14-3.58.74-5.24,1.25-17.51,5.61-34.37,10.97-50.99,6.76-20.92,15.54-40.93,27.12-59.66Z"/>
  <path class="cls-7" d="m85.08,399c.12-34.05,4.4-67.38,16.26-99.55,9.74-26.44,23.5-50.45,41.13-72.41,18.84-23.47,41.43-42.51,67.11-57.93,24.13-14.49,50.23-24.07,77.7-30.04,21.39-4.65,43.09-5.92,64.82-4.85,23.06,1.14,45.74,5.06,67.52,13.17.77.29,1.59.45,2.39.67.7,1.91-1.13,2.14-2,3-13.36-4.52-26.95-8.2-40.89-10.41-7.5-1.19-15-2.44-22.65-2.65-6.12-.17-12.2-1.09-18.36-.99-32.33.52-63.47,6.73-93.51,18.75-22.39,8.95-42.87,21.2-61.64,36.13-26.41,21.01-47.41,46.62-63.59,76.33-13.57,24.92-22.27,51.42-27.04,79.21-2.72,15.84-4.03,31.95-3.18,48.05,1.88,35.5,10.12,69.51,26,101.37,10.17,20.39,23,39.04,38.25,56.18,22.21,24.97,48.55,44.26,78.42,58.61,22.64,10.87,46.57,18.23,71.66,21.46,12.01,1.55,23.99,2.99,36.11,2.82,32.33-.45,63.5-6.68,93.44-18.98,8.3-3.41,16.62-6.76,24.25-11.59,1.43-.91,2.82-1.75,3.73-3.2,2.03-1.4,4.31-.38,6.45-.65,1.89,3.69-1.53,4.52-3.42,5.72-7.89,5.02-16.37,8.9-24.99,12.5-23.33,9.76-47.42,16.81-72.64,19.3-45.12,4.46-88.61-1.83-130.3-20.06-32.86-14.37-61.41-34.84-85.44-61.26-24.38-26.81-42.43-57.51-53.48-92.22-2.47-7.77-4.47-15.62-6.37-23.52-.28-1.14-.42-2.31-1.56-2.97-.96-8.25-3.5-16.29-3.26-24.7-.71-1.6-.27-3.29-.39-4.93.2-2.73-.3-5.4-.77-8.07-.23-.8-.36-1.58.25-2.28Z"/>
  <path class="cls-88" d="m346.95,424.16c-32.99-11.58-45.87-40.55-34.1-73.45,3.6-1.23,6.83-3.31,10.35-4.69,5.74-2.25,11.6-3.78,17.66-1.01.2,4.44-.4,8.92.67,13.33,3.99,16.44,16.18,23.18,31.25,26.58,1.11.25,2.21.55,3.31.83,1.33,1.73,1.25,3.71,1.01,5.72-1.83,15.48-14.75,29.49-30.16,32.69Z"/>
  <path class="cls-35" d="m419.99,599.03c-1.59,2.88-4.49,3.95-7.31,4.83-18.36,5.77-36.98,10.02-56.32,11.29-8.47.55-16.93,1.04-25.36.7-27.34-1.11-53.76-6.41-79.22-16.88-21.71-8.93-41.57-20.77-59.57-35.63-21.43-17.69-39.12-38.7-52.91-62.9-13.01-22.83-22.14-47.09-26.54-73.04-3.22-18.99-4.45-38.01-2.94-57.35,1.34-17.12,4.25-33.78,9.12-50.17,7.25-24.42,18.52-46.87,33.36-67.53,8.84-12.3,18.78-23.69,29.93-33.92,19.85-18.2,42.03-32.79,66.9-43.36,17.97-7.64,36.58-13.01,55.81-15.65,16.54-2.27,33.2-3.01,50.06-1.67,17.46,1.39,34.42,4.55,51.15,9.36,5.25,1.51,10.36,3.54,15.53,5.32,1.73.6,2.59,1.99,3.3,3.53l-4.57.2c-.75.3-1.53.41-2.33.25-14.27-5.15-28.79-9.38-43.86-11.43-12.51-1.7-25.05-2.82-37.73-2.68-22.94.26-45.37,3.48-67.19,10.58-28.84,9.39-54.84,23.81-77.75,43.82-28.8,25.14-49.95,55.41-63.38,91.27-8.26,22.06-12.83,44.82-13.8,68.17-1.45,34.86,4.46,68.52,18.51,100.7,12.74,29.16,30.93,54.35,54.29,75.73,20.95,19.16,44.79,33.83,71.51,43.82,17.57,6.57,35.58,11.13,54.18,13.04,31.93,3.28,63.39.74,94.1-9.06,2.68-.85,5.52-1.16,8.05-2.46,1.66.37,3.32.75,4.98,1.12Z"/>
  <path class="cls-7" d="m89.25,438.99c3.12,1.83,3.03,5.26,3.79,8.12,9.67,36.57,25.69,69.86,49.79,99.27,20.8,25.38,45.49,45.78,74.17,61.61,26.89,14.84,55.62,24.21,85.85,28.78,16.08,2.43,32.42,2.91,48.68,2.1,31.44-1.56,61.48-9.12,90.3-21.77,7.33-3.22,14.36-6.92,21.36-10.73,1.96-1.07,3.54-2.44,4.79-4.25,3.54-1.67,7.39.15,10.97-.99,1.01-.02,2.01-.05,3.02-.07-3.83,5.66-10.11,8.04-15.69,11.1-21.91,12.02-44.81,21.67-69.37,26.97-13.41,2.9-26.87,5.23-40.65,6.03-6.96.4-13.9.84-20.86.76-22.45-.24-44.53-3.4-66.12-9.44-27.87-7.8-53.87-19.83-77.71-36.27-22.13-15.26-41.4-33.6-57.92-54.83-3.77-4.84-7.32-9.82-10.88-14.81-1.02-1.42-1.81-3.91-4.55-2.61-12.53-25.24-21.26-51.79-27.13-79.31-.68-3.2-1.24-6.43-1.85-9.65Z"/>
  <path class="cls-17" d="m288.07,101.27c16.21-5.85,32.93-9.58,49.95-12.06.96.83,2.11.87,3.3.83,20.78-.86,41.14,2.48,61.35,6.68,23.43,4.86,45.84,13.02,67.26,23.55,21.42,10.53,41.25,23.69,59.62,39.02,29.52,24.64,52.87,54.22,71.04,88.02,8.22,15.29,14.87,31.22,20.26,47.7-.53,4.14-1.94,7.91-4.72,11.09-2.8.1-2.92-2.24-3.47-4.01-11.79-38.08-30.82-72.19-56.72-102.41-22.65-26.42-49.43-47.83-79.9-64.71-26.32-14.58-54.3-24.45-83.77-30.15-12.58-2.43-25.32-3.56-38.11-4.66-19.93-1.72-39.51.41-59.16,2.88-2.4.3-5.33,1.51-6.93-1.79Z"/>
  <path class="cls-66" d="m351.44,189.24c-4.22,2.22-8.83,3.36-13.32,4.86-34.72.23-67.19,8.93-97.11,26.5-28.71,16.86-51.51,39.82-68.47,68.49-13.23,22.38-21.51,46.58-24.77,72.31-4.39,34.74.16,68.35,13.8,100.74,9.51,22.59,23,42.58,40.13,59.8,25.68,25.81,56.48,43.11,92.03,51.71,16.94,4.1,34.13,5.31,51.48,5.21,3.6,1.36,7.2,2.73,10.8,4.09-1.99,3.18-5.37,3.12-8.42,3.24-33.93,1.33-66.17-5.35-96.74-20.3-36.22-17.71-64.53-43.95-84.81-78.66-14.8-25.34-23.89-52.68-26.42-82.08-4.93-57.3,11.6-107.93,49.28-150.91,34.47-39.32,78.62-61.21,130.81-66.7,8-.84,15.95-.76,23.93-.78,2.79,0,5.73-.03,7.78,2.47Z"/>
  <path class="cls-34" d="m345.22,578.86c-7.34,2.29-14.94,1.51-22.27.86-16.67-1.47-33-4.92-48.88-10.56-21.36-7.58-40.68-18.52-58.25-32.82-22.26-18.12-39.56-40.11-51.91-65.89-9.66-20.16-15.74-41.39-18.01-63.78-1.15-11.32-1.29-22.64-.63-33.86,1.28-21.63,6.67-42.44,15.08-62.49,7.58-18.09,17.92-34.47,30.5-49.37,14.45-17.11,31.59-31.14,51.02-42.38,18-10.41,37.2-17.5,57.49-21.76,11.19-2.35,22.47-4.03,33.97-3.8,1.71.03,3.31.24,4.8,1.07-4.05,1.98-8.1,3.96-12.14,5.94-8.35-2.55-16.44-.1-24.53,1.4-29.32,5.42-55.54,17.92-78.98,36.05-19.74,15.27-35.57,34.06-48.13,55.74-12.34,21.31-20.07,44.21-23,68.41-4.17,34.32-.23,67.81,13.87,99.8,8.73,19.8,20.32,37.55,35.09,53.4,28.45,30.52,62.96,49.71,104.02,57.23,7.5,1.37,15.03,2.29,22.61,2.87,1.98.15,4.1.31,5.13-2.06,4.21,2.39,9.13,3.21,13.16,5.99Z"/>
  <path class="cls-38" d="m709.07,404.41c-4.8,3.61-9.84,6.84-15.21,9.54-2.62-.24-1.93-2.27-1.89-3.76.05-1.84.84-3.55,1.42-5.29,23.64-70.87,46.72-141.93,70.57-212.74.48-1.42.92-2.85,1.53-4.22.74-1.68,1.74-2.88,3.83-2.03,3.5,1.14,6.71,2.82,9.64,5.03,1.25,1.99.27,3.88-.34,5.74-22.52,67.72-45.13,135.41-67.66,203.12-.53,1.59-1.5,2.97-1.88,4.61Z"/>
  <path class="cls-15" d="m709.07,404.41c-.53-2.6.52-4.91,1.31-7.27,22.7-68.09,45.41-136.18,68.11-204.27.21-.63.31-1.29.47-1.93,3.75,2.07,7.74,3.79,10.66,7.11-.44,1.95-1.06,3.84-1.69,5.74-16.59,49.73-33.26,99.43-49.69,149.21-4.43,13.43-8.67,26.92-13.2,40.32-4.92,4.28-10.49,7.63-15.98,11.09Z"/>
  <path class="cls-97" d="m400.98,689.75c-1.72-1.74-4.19-.06-6.77-1.74,7.89-2.05,15.18-4.01,22.5-5.84,40.24-10.02,76.33-28.51,109.12-53.63,16.79-12.87,31.7-27.76,45.67-43.61,1.48-1.68,2.55-3.48,2.47-5.8,7.66-3.65,15.33-7.3,22.99-10.95,1.48,2.91-.85,4.71-2.17,6.62-5.12,7.4-10.81,14.38-16.72,21.16-22.16,25.46-47.99,46.56-76.86,63.94-18.16,10.93-37.51,19.41-57.23,27.08-14.23,2.6-28.58,3.24-43.01,2.77Z"/>
  <path class="cls-28" d="m725.04,393.32c-.12-1.99-.07-3.91.59-5.89,20.57-61.97,41.08-123.97,61.65-185.94.42-1.27.27-3.18,2.34-3.44,3.39,2.28,7.08,4.23,9.16,8.02-.96,5.24-2.77,10.25-4.43,15.28-16.08,48.47-32.21,96.92-48.45,145.33-1.48,4.42-2.88,8.85-3.7,13.45-4.8,5.58-11.93,8.14-17.15,13.18Z"/>
  <path class="cls-60" d="m351.44,189.24c-14.59-2.84-29.12-1.05-43.53,1.1-22.68,3.38-44.05,10.97-64.22,21.88-21.71,11.74-40.4,27.13-56.41,45.94-21.33,25.04-35.19,53.72-42.6,85.63-4.27,18.38-5.88,37.11-4.44,55.83,3.19,41.43,17.4,79,43.6,111.31,30.01,37.01,68.75,60.4,115.58,70.11,15.67,3.25,31.48,4.38,47.44,3.94,3.21-.09,6.21-.86,9.16-2.02,2.39.86,4.78,1.71,7.17,2.57-2.7,2.38-6.21,2.18-9.32,2.32-28.24,1.27-56-1.31-82.83-10.98-23.23-8.37-44.14-20.62-63.07-36.42-23.39-19.53-40.91-43.5-53.59-71-7.74-16.78-12.56-34.5-15.44-52.82-2.42-15.4-2.84-30.91-1.61-46.22,2.83-35.34,14.02-68.03,34.33-97.41,31.45-45.5,74.47-73.41,128.41-84.75,17.51-3.68,35.3-3.4,53.07-3.24,2.07.02,3.36,1.24,4.94,2.08-2.04,1.24-4.29,1.85-6.64,2.16Z"/>
  <path class="cls-22" d="m769.31,185.91c-2.55.07-2.63,2.3-3.17,3.9-14.83,44.44-29.63,88.9-44.38,133.37-9.21,27.75-18.37,55.51-27.47,83.29-.78,2.37-2.65,4.86-.44,7.49-3.51,3.29-8.27,4.38-12.18,6.96-2.45-.52-1.77-2.46-1.67-3.98.12-1.83.88-3.54,1.46-5.28,24.88-74.01,48.81-148.32,73.8-222.29.88-2.62,1.14-5.62,3.7-7.44,3.58,1,7.3,1.63,10.36,3.98Z"/>
  <path class="cls-14" d="m288.07,101.27c2.51,1.41,5.12.79,7.73.39,7.85-1.2,15.69-2.62,23.65-2.54,5.99.06,11.84-1.26,17.87-1.14,32.18.64,63.63,5.39,94.17,15.78,28.71,9.77,55.1,23.98,79.4,41.96,12.54,9.28,24.38,19.52,35.07,30.91,17.65,18.82,33.06,39.3,45.42,62.07,9.48,17.45,17.19,35.55,22.81,54.57.33,1.11.81,2.2,1.92,2.82.18,2.34-1.13,4.1-2.29,5.92-3.73,1.04-4.09-2.02-4.71-4.19-5.23-18.35-12.7-35.77-21.55-52.64-10.57-20.16-23.39-38.72-38.5-55.79-33.96-38.38-75.66-64.84-124.04-81-19.81-6.62-40.2-10.59-61.1-12.13-32.11-2.36-63.87-.76-95.19,7.19-2.57.65-5.74,2.45-7.71-1.34,8.64-4.53,17.72-7.96,27.02-10.85Z"/>
  <path class="cls-55" d="m669.12,428.07c-4.03,3.01-8.75,4.69-13.19,6.91-2.3-.02-1.92-1.82-2.01-3.19-.09-1.34.4-2.62.82-3.88,13.72-41.26,27.48-82.51,41.24-123.76,7.74-12.38,15.11-24.92,19.25-39.1,1.73-5.92,2.33-12.01,3.59-18,2.44-6.16,4.33-12.51,6.43-18.79,5.18-15.45,10.3-30.91,15.52-46.34.83-2.46,1.14-5.94,5.35-4.95,1.67,1.69,4.42.11,6.03,1.97-2.18,3-3.44,6.41-4.6,9.9-11.6,34.94-23.51,69.77-34.84,104.79-13.54,41.84-27.73,83.46-41.52,125.21-.99,3.01-1.92,6.03-2.08,9.22Z"/>
  <path class="cls-14" d="m37.85,357.9c8.85-2.03,17.71-4.05,27.18-6.22-.49,9.53-.62,18.46-.31,27.41.65,19.14,2.38,38.14,6.23,56.9.77,3.75-.27,4.67-3.9,4-7.65-1.41-15.34-2.58-23.02-3.85-1.44-1.75-1.88-3.88-2.12-6.03-2.06-18.3-4.02-36.59-2.54-55.08.45-5.69,1.27-11.63-1.52-17.14Z"/>
  <path class="cls-47" d="m742.19,380.14c-2.14-1.3-.8-2.97-.34-4.4,5.78-17.82,11.55-35.65,17.46-53.43,11.41-34.31,22.89-68.6,34.36-102.89,1.51-4.52,1.83-9.49,5.09-13.34,3.57,3.21,7.49,6.13,9.08,10.98-1.81,7.42-4.33,14.63-6.72,21.86-12.81,38.82-25.79,77.58-38.73,116.36-1.26,3.78-2.42,7.59-4.36,11.1-4.87,5.07-10.07,9.76-15.86,13.76Z"/>
  <path class="cls-3" d="m431.22,88c.28-.21.54-.18.78.07,10.06,3.92,20.36,7.17,30.27,11.52,31.82,13.98,60.63,32.44,86.47,55.79,24.84,22.45,45.1,48.39,61.77,77.29,6.58,11.41,11.9,23.43,17.44,35.35-1.48,4.26-.28,9.11-2.95,13.1-3.43-1.15-3.66-4.53-4.77-7.17-11.44-27.11-25.31-52.79-43.94-75.74-29.49-36.33-64.7-65.33-107.23-85.37-20.6-9.7-41.84-17.15-63.98-22.23-2.43-.56-4.91-1.02-7.01-2.5-.64-.45-1.52-1.03-.92-1.98.56-.9,1.46-.4,2.23-.18,4.23-.5,8.45,0,12.67.28,2.68.94,5.56-.28,8.23.74,1.59.08,3.18.16,4.76.24,1.98.92,4.21-.22,6.18.77Z"/>
  <path class="cls-51" d="m758.05,366.38c-.44-2.09.54-3.93,1.16-5.79,13.72-41.23,27.46-82.45,41.27-123.64,2.25-6.7,3.03-13.96,7.38-19.89,5.23,6.03,7.52,13.31,8.84,20.98-1.95,2.76-2.98,5.93-3.95,9.1-8.96,29.05-19.08,57.72-28.48,86.62-.66,2.02-1.78,3.97-1.39,6.24-7.32,9.68-15.55,18.52-24.82,26.38Z"/>
  <path class="cls-18" d="m583.82,351c-6.12,7.27-13.72,12.81-21.45,18.19-3.14.19-3.34-2.32-3.55-4.3-2.24-21.77-7.85-42.67-16-62.93,4.93-10.24,8.65-20.89,10.95-32.02,3.56-.42,4.29,2.57,5.45,4.76,9.75,18.43,16.34,38.02,21,58.3,1.37,5.97,2.4,12.01,3.61,18.01Z"/>
  <path class="cls-19" d="m237.05,470.98c-2.88-1.14-5.03-3.17-6.81-5.63-13.7-18.89-22-40.03-25.02-63.07-2.94-22.4.58-44.13,8.78-65.14,3.58-9.16,8.31-17.68,13.84-25.8,1.29-1.89,2.48-3.54,5.04-3.32-8.28,24.79-12.95,50.18-12.83,76.39.13,28.24,5.14,55.56,15.41,81.89.6,1.53,1.06,3.12,1.59,4.68Z"/>
  <path class="cls-35" d="m417.95,175.95c.82.07,1.64.14,2.46.21-3.3,1.22-6.76.89-10.18,1-7.02-3.31-14.43-5.39-21.98-7.08-16.24-3.64-32.65-4.98-49.31-5.19-25.54-.32-50.19,3.8-74.2,12.15-24.53,8.53-46.64,21.3-66.92,37.58-24.79,19.91-43.67,44.44-58.05,72.49-10.58,20.65-17.39,42.68-20.63,65.69-1.28,9.06-3.05,18-3.3,27.3-.6,22.4,3.02,44.12,8.7,65.54,8.02,30.26,22.5,57.23,42.17,81.65,19.95,24.76,44.46,43.68,72.51,58.02,20.8,10.63,43.04,17.11,66.18,20.76,17.22,2.71,34.54,2.53,51.72,1.59,17.47-.95,34.81-4.19,51.24-10.88,1.07-.08,2.18-.28,2.68,1.07.25,2.64-2.18,2.22-3.44,2.68-12.1,4.33-24.65,7.05-37.34,8.73-11.66,1.55-23.42,2.52-35.26,2.22-24.44-.62-48.26-4.59-71.34-12.69-21.82-7.65-41.98-18.51-60.52-32.3-23.22-17.27-42.24-38.45-57.12-63.21-16.31-27.14-26.68-56.4-30.53-87.95-1.55-12.74-2.63-25.52-1.89-38.26,1-17.24,3.44-34.34,8.13-51.07,7.95-28.4,20.93-54.31,38.85-77.61,18.03-23.44,40.14-42.35,65.87-57.06,24.72-14.13,51.12-23.39,79.25-27.34,16.43-2.31,32.92-2.99,49.63-1.64,21.58,1.75,42.37,6.14,62.6,13.62Z"/>
  <path class="cls-39" d="m473.03,95.92c5.95-.43,11.37,1.88,16.84,3.56,9.59,2.95,19.23,5.85,28.18,10.56,2.91,4.22,7.69,6.06,11.63,8.9,39.36,28.32,71.06,63.47,94.94,105.67,1.06,1.87,2.13,3.74,3.48,5.44-.34,2.92,1.99,5.54.95,8.54.82,3.45.21,6.96.37,10.44.05.98.1,2.1-1.25,2.33-1.16.2-1.84-.6-2.43-1.42-1.08-1.49-1.83-3.17-2.62-4.82-11.97-24.94-27.58-47.49-45.77-68.19-27.08-30.81-58.89-55.7-95.64-74.13-2.08-1.04-4.22-1.99-6.21-3.21-1.33-.82-3.19-1.44-2.48-3.69Z"/>
  <path class="cls-83" d="m620.84,295.01c-4.59-6.06-5.95-13.54-8.76-20.37-10.99-26.73-25.59-51.26-43.71-73.74-7.08-8.79-14.24-17.54-22.44-25.27-20.58-19.4-42.96-36.36-68.05-49.7-25.98-13.82-53.34-23.64-82.14-29.35-11.32-2.24-22.79-3.78-34.36-4.68-6.63-.52-13.24-.73-19.87-.83-1.47-.02-3.13.27-3.49-1.86,3.52-.8,7.04-1.54,10.68-1.23,1.68-.85,3.6.07,5.28-.73,1.88-.09,3.75-.18,5.63-.28,2.73-.96,5.64.19,8.37-.73.35,0,.71-.01,1.06-.02,31.47,4.16,62.13,11.35,91.23,24.4,24.74,11.09,47.73,25.01,68.7,42.2,43.07,35.32,74.07,79.24,93.3,131.49.46,1.25.91,2.5,1.52,3.68-.6,2.5-1.61,4.82-2.96,7Z"/>
  <path class="cls-33" d="m695.98,304.16c.2,3.03-.51,5.88-1.47,8.75-12.84,38.35-25.65,76.71-38.4,115.1-.74,2.22-2.4,4.6-.19,6.97-5.25,3.38-11.01,5.71-16.72,8.14-1.03.49-1.56-.12-1.84-.96-.51-1.51-.04-2.97.44-4.39,11.71-35.19,23.42-70.38,35.21-105.54,8.01-9.07,15.74-18.37,22.97-28.08Z"/>
  <path class="cls-91" d="m673.01,332.24c.13,2.86-.43,5.58-1.34,8.29-10.81,32.25-21.6,64.5-32.27,96.79-.58,1.76-2.78,3.81-.19,5.81-5.69,3.24-11.65,5.9-17.83,8.06-2.08.47-2.15-1.06-2.18-2.37-.05-1.68.63-3.24,1.16-4.81,8.96-26.4,17.06-53.07,26.2-79.41,1.19-3.43,1.43-7.18,3.4-10.35,7.69-7.34,15.37-14.68,23.06-22.02Z"/>
  <path class="cls-14" d="m63.74,504.82c5.9-5.34,11.8-10.68,18.13-16.41,11.53,29.71,25.09,57.8,40.91,85.12-4.55,1.98-9.04,3.43-13.71,4.37-13.69-16.2-25.32-33.77-35.15-52.54-3.55-6.77-6.68-13.75-10.18-20.55Z"/>
  <path class="cls-25" d="m649.95,354.25c.25,2.86-.39,5.56-1.28,8.27-9.21,27.79-18.41,55.59-27.5,83.42-.52,1.6-2.49,3.63.21,5.25-6,3.53-12.73,5.34-19.12,7.95-2.47.39-2.13-1.52-2.2-2.87-.08-1.68.63-3.25,1.15-4.83,8.48-25.61,17.26-51.13,25.45-76.84.3-.95.78-1.84,1.25-2.72,7.35-5.88,14.7-11.75,22.05-17.63Z"/>
  <path class="cls-24" d="m346.95,424.16c3.68-3.18,8.62-3.95,12.57-6.79,10.9-7.82,16.33-18.31,16.58-31.62,1.65.14,3.3.29,4.96.43,5.64.53,11.28.56,16.92-.02,3-.33,6-.67,9-1,.79,13.14-2.81,25.17-9.49,36.32-2.2,3.66-4.24,7.51-7.47,10.46-14.84.11-29.3-1.92-43.06-7.79Z"/>
  <path class="cls-41" d="m261.05,112.11c1.94,1.65,4.04.97,6.12.4,29.76-8.2,60.24-9.88,90.78-8.24,30.77,1.66,60.59,8.62,89.06,20.79,24.72,10.57,47.93,23.8,68.87,40.64,27.55,22.16,50.27,48.58,67.69,79.48,11.3,20.04,20.87,40.81,27,63.05.49,1.76.82,3.69,3.27,3.78-.24,2.11-1.35,3.77-2.76,5.27-3.75-4.55-4.34-10.36-6.04-15.68-10.31-32.31-25.82-61.87-46.71-88.56-22.05-28.16-48.79-50.88-79.76-68.77-29.53-17.05-61.21-28.06-94.65-33.98-20.84-3.69-42.01-4.27-63.06-3.05-22.84,1.33-45.33,5.44-67.12,12.78-3.49,1.17-6.96,2.03-10.63,1.05,5.67-3.61,11.65-6.62,17.95-8.97Z"/>
  <path class="cls-40" d="m542.82,301.96c2.41,1.07,3.06,3.49,3.79,5.58,6.49,18.53,11.95,37.31,13.36,57.03.14,1.9.66,3.57,2.39,4.62-6.53,5.33-13.5,10-20.95,13.96-4.3.96-3.7-2.45-3.79-4.64-.36-9.17-1.71-18.21-3.26-27.23-1.27-7.39-3.08-14.65-5.29-21.82-.64-2.06-1.49-4.08-1.05-6.32,5.36-6.76,10.25-13.85,14.79-21.18Z"/>
  <path class="cls-81" d="m628.1,230.06c-4.41-1.99-5.42-6.64-7.56-10.23-11.51-19.3-24.98-37.04-39.93-53.83-18.02-20.24-38.77-37.11-60.88-52.49-2.62-1.82-2.63-1.8-1.68-3.46,36.13,14.83,66.72,36.86,89.37,69.09,8.67,12.33,15.17,25.74,18.83,40.42.86,3.44,1.24,7,1.85,10.51Z"/>
  <path class="cls-85" d="m669.12,428.07c-2.71-2.7-.53-5.36.29-7.84,12.48-37.69,25.09-75.33,37.6-113.01,13.56-40.82,27.04-81.67,40.58-122.5.81-2.45,1.07-5.42,4.58-5.77,1.05,0,2.08.09,2.8,1.01,1.27,1.99.26,3.88-.35,5.73-10.17,30.63-20.52,61.21-30.56,91.88-15.31,46.81-30.91,93.52-46.48,140.24-.69,2.07-1.05,4.19-1.31,6.34-1.97,2.05-4.81,2.51-7.13,3.91Z"/>
  <path class="cls-59" d="m583.89,400.81c7.66-4.69,15.32-9.38,22.98-14.07,2.47,2.82.82,5.69-.08,8.41-6.95,21.08-14.01,42.13-21.03,63.18-.84,2.52-1.77,5.01-1.63,7.73-7.48,3.33-15.22,5.9-23.16,7.88-1.63-1.8-.93-3.77-.3-5.65,7.07-21.34,14.22-42.65,21.31-63.98.43-1.28,1.15-2.4,1.92-3.49Z"/>
  <path class="cls-37" d="m443.99,686.97c4.41-4.36,10.44-5.55,15.86-7.79,27.98-11.56,53.69-26.86,77.27-45.84,10.23-8.23,20.21-16.75,29.17-26.33,10.07-10.77,19.93-21.76,28.26-34,1.04-1.52,2.15-2.96,2.42-4.85,4.98-2.81,9.96-5.63,14.94-8.44.67,3.13-1.32,5.37-2.81,7.62-10.29,15.55-21.9,30.03-34.77,43.55-20.89,21.94-44.47,40.41-70.28,56.15-6.22,3.79-13.08,6.45-18.87,10.96-13.39,4.51-27.09,7.62-41.18,8.96Z"/>
  <path class="cls-83" d="m623.8,288c-4.77-4.22-5.29-10.55-7.57-15.93-10.88-25.7-24.84-49.49-42.06-71.48-9.67-12.35-20.3-23.76-31.71-34.43-17.02-15.91-35.88-29.42-56.13-40.99-22.95-13.11-47.23-22.87-72.81-29.33-11.54-2.91-23.19-5.38-35.03-6.87-3.21-.4-6.3-1.81-9.44-2.75,10.11-.44,20.2-1.58,30.33-.26-2.12.29-1.96,1.09-.19,1.61,5.24,1.54,10.51,3,15.8,4.32,39.89,9.93,75.98,27.86,108.57,52.65,18.26,13.89,34.41,30.09,49.34,47.64,21.45,25.24,36.99,53.78,49.68,84.1.7,1.66,1.62,3.24,2.43,4.85-.4,2.29-.8,4.58-1.21,6.87Z"/>
  <path class="cls-5" d="m583.89,400.81c-.98,7.27-4.11,13.9-6.33,20.78-4.96,15.41-10.25,30.71-15.36,46.07-.67,2.02-1.55,4.04-1.24,6.27-7,2.79-14.26,4.7-21.62,6.24-2.9.23-2.14-1.89-2.02-3.37.13-1.65.86-3.2,1.37-4.78,5.9-18.15,12.37-36.12,17.87-54.4.45-1.48.95-2.83,2.42-3.58,8.3-4.41,16.61-8.82,24.91-13.23Z"/>
  <path class="cls-7" d="m583.82,351c-3.74-3.08-2.89-7.77-3.66-11.68-4.5-22.74-11.91-44.42-22.53-65.01-.93-1.8-1.86-3.54-3.86-4.37.77-9.65.97-19.29-.66-28.88,9.36,9.72,14.92,21.82,20.64,33.72,7.55,15.7,13.39,32.09,17.6,49.02.68,2.72.99,5.52,1.66,8.24.54,2.18.51,4.72,2.96,5.97-2.47,5.81-8.35,8.43-12.15,12.99Z"/>
  <path class="cls-9" d="m485.17,678.02c-.93-2.29,1.05-2.66,2.33-3.29,15.85-7.8,30.5-17.55,44.66-27.98,18.35-13.52,34.77-29.18,49.93-46.24,9.06-10.19,17.23-20.99,24.92-32.19,1.86-2.71,3.27-5.72,4.89-8.59,4.67-2.96,9.35-5.92,14.02-8.87,1.85,2.2.4,4.17-.64,5.94-9.4,15.96-20.1,31.01-32.1,45.13-15.46,18.2-32.84,34.38-51.38,49.38-2.65,2.15-6.31,3.14-7.84,6.62-15.45,8.68-31.66,15.52-48.8,20.09Z"/>
  <path class="cls-62" d="m98.08,215.21c3.23.73,6.44,1.63,9.7,2.13,4.04.62,4.76,1.78,2.32,5.51-9.72,14.94-17.81,30.76-24.49,47.29-4.35,10.77-7.89,21.81-10.5,33.9-6.04-5-11.5-9.52-16.96-14.04,4.39-7.13,6.21-15.34,9.68-22.88,7.45-16.18,15.93-31.76,25.81-46.57,1.28-1.92,2.5-3.94,4.42-5.35Z"/>
  <path class="cls-58" d="m584.13,466.05c-3.81-.9-1.18-3.31-.76-4.62,5.64-17.32,11.67-34.51,17.16-51.88,2.37-7.51,6.4-14.62,6.33-22.82,7.01-4.95,14.02-9.9,21.04-14.85.39,2.73-.46,5.24-1.3,7.77-8.17,24.38-16.35,48.76-24.41,73.17-.65,1.96-2.67,4.25.06,6.31-5.78,2.99-11.91,5.05-18.12,6.91Z"/>
  <path class="cls-54" d="m496.01,407.01c-8.52,4.78-17.73,7.84-26.89,11.05-3.83-.16-2.9-2.96-2.64-5.11.58-4.78,1.44-9.52,2.1-14.29,1.34-9.66.52-19.22-.46-28.8-.17-1.67-.4-3.33.86-4.73,7.67-4.33,15.33-8.65,23-12.98,1.51,1.33,1.51,3.24,1.86,5,2.92,14.53,3.27,29.2,2.14,43.93-.15,2,.17,3.96.02,5.94Z"/>
  <path class="cls-82" d="m328.31,41.98c3.49,4.45,5.96,9.52,8.7,14.43.25,3.8-2.83,2.83-4.74,3.09-11.02,1.47-22.17,1.29-33.2,2.83-12.51,1.74-24.94,3.8-37.2,6.84-.32.08-.64.16-.97.24-8.28,1.98-8.82,1.63-9.66-6.3-.1-3.34-.19-6.68-.29-10.02,7.08-4.03,15.13-4.66,22.85-6.22,16.42-3.32,33.08-4.91,49.79-6,1.72-.11,3.3.1,4.72,1.11Z"/>
  <path class="cls-97" d="m135.74,635.81c2.17-4.61,4.34-9.22,6.51-13.83,2.1-.65,3.45.7,4.88,1.83,21.73,17.24,45.13,31.69,70.61,42.72,1.86.8,4.3,1.31,4.28,4.18-4.58,3.73-8.92,7.78-13.97,10.91-17.96-9.26-36.01-18.39-52.49-30.23-6.83-4.9-14.11-9.25-19.82-15.58Z"/>
  <path class="cls-3" d="m194.05,103.27c4.56,2.97,8.93,6.2,13,9.81,1.28,3.56-1.79,4.2-3.77,5.17-9.4,4.59-18.51,9.67-27.3,15.35-13.82,8.93-26.82,18.91-39.11,29.84-1.54,1.37-3.03,3.38-5.55,1.61-2.38-4.33-4.76-8.66-7.14-13,4.09-5.11,9.45-8.79,14.51-12.78,17.36-13.67,35.54-26.1,55.36-36.01Z"/>
  <path class="cls-8" d="m558.98,414.04c-5.91,20.86-13.54,41.15-20.09,61.8-.47,1.49-1.73,3.1.45,4.33-7.58,2.75-15.48,4.19-23.37,5.72-1.72-2-.83-4.11-.15-6.13,5.75-16.83,11-33.81,16.46-50.73.52-1.61,1.1-3.15,2.68-4.03,8-3.65,16-7.31,24-10.96Z"/>
  <path class="cls-35" d="m417.95,175.95c-8.81-1.64-17.07-5.23-25.84-7.15-12.63-2.76-25.27-4.78-38.19-5.92-29.76-2.63-58.51,1.82-86.61,11.05-28.4,9.33-53.9,23.94-76.43,43.72-39.13,34.35-62.98,77.31-72.84,128.26-3.13,16.18-4.77,32.54-3.86,48.95,2.01,36.44,11.17,70.91,29.61,102.71,10.13,17.47,21.86,33.65,36.24,47.88,22.64,22.4,48.88,39.18,78.62,50.52,20.88,7.96,42.45,12.29,64.77,14.19,27.22,2.31,53.47-1.83,79.53-8.74,2.84-.75,5.69-1.72,8.1-3.57,1.32.02,2.64.04,3.96.06-8.25,5.44-17.94,6.59-27.18,8.97-12.05,3.1-24.47,4.19-36.82,4.92-13.85.83-27.7-.06-41.56-1.63-19.96-2.27-38.96-7.61-57.5-15.08-22.4-9.03-42.45-21.73-60.79-37.4-17.72-15.14-32.6-32.63-44.87-52.35-14.36-23.07-23.96-48.07-29.19-74.72-3.61-18.42-4.95-37.07-3.93-55.77,1.14-20.89,4.72-41.38,11.54-61.29,8.92-26.07,21.98-49.85,39.51-70.99,21.27-25.66,46.96-46.02,77.25-60.11,21.44-9.97,43.82-16.93,67.52-19.57,13.86-1.54,27.71-2.5,41.56-1.7,20.88,1.2,41.45,4.53,61.25,11.67,2.19.79,4.41,1.45,6.15,3.11Z"/>
  <path class="cls-4" d="m496.01,407.01c-2.09-.94-2.19-2.73-1.94-4.63,1.99-15.03,1.14-29.95-1.72-44.8-.34-1.77-.25-3.62-.37-5.43,6.61-4.54,13.22-9.08,19.84-13.62,2.31,1.83,2.47,4.63,3.05,7.16,3.01,12.99,4.5,26.17,4.57,39.5.02,3.34.27,6.63.8,9.92-7.75,4.64-15.84,8.58-24.24,11.89Z"/>
  <path class="cls-42" d="m483.89,442.71c9.02-2.85,18.04-5.7,27.07-8.55.92,2.2.08,4.26-.59,6.28-5.02,15.29-10.14,30.54-15.25,45.8-.48,1.44-1.15,2.75-2.05,3.95-6.8,1.63-13.68,2.72-20.69,2.88-5.19.53-6.12-.21-4.71-4.68,4.48-14.19,9.3-28.28,14.09-42.37.44-1.3,1.43-2.21,2.13-3.32Z"/>
  <path class="cls-79" d="m427,735.9c-2.78-4.79-5.19-9.75-7.07-14.97,2.08-2.22,5-2.5,7.68-3.25,14.9-4.19,29.55-9.1,43.81-15.14,2.29-.97,4.63-1.87,6.56-3.52,11.27-3.67,22.6-7.16,33.8-12.36.17,5.17-.12,9.72-.83,14.26-9.24,6.36-19.56,10.65-29.77,15.04-15.44,6.65-31.27,12.3-47.54,16.63-2.47.66-4.6,1.85-6.64,3.31Z"/>
  <path class="cls-45" d="m251.23,63.11c1.96,6.69,1.97,6.72,9.33,4.9,15.69-3.89,31.55-6.62,47.69-8.06,8.71-.78,17.46-.82,26.14-1.84,1.23-.15,2.33-.22,2.62-1.69,2.67,2.77,4.06,6.38,6.22,9.48,1.13,1.63,1.1,2.74-1.16,3.04-11.52,1.51-22.63,4.97-33.99,7.26-12.23.08-24.09,2.8-35.99,5.14-5.05.99-10.1,2.08-15.04,3.64-1.63.52-3.59,1.43-4.83-.87-.33-7-.67-13.99-1-20.99Z"/>
  <path class="cls-10" d="m595.97,706.9c-4.64-3.24-9.04-6.77-13.14-10.68-.89-2.64.97-4.01,2.62-5.34,14.8-11.84,27.83-25.55,41.25-38.85,3.31-3.28,5.72-7.36,9.35-10.3,1.35-1.09,2.73-3.52,4.81-.8,2.39,5.19,4.75,10.39,6.34,15.9-3.96,5.78-9.01,10.63-13.77,15.69-11.64,12.37-24.71,23.22-37.47,34.39Z"/>
  <path class="cls-34" d="m520.25,395.11c-1.82-.73-2.33-2.18-2.28-4.01.49-17.82-2.01-35.29-6.15-52.57,5.4-5.13,10.81-10.26,16.21-15.38,5.05,10.91,6.92,22.66,8.86,34.35,1.21,7.29,2.33,14.65,2.08,22.1-.06,1.82.22,3.34,2.45,3.56-6.5,4.97-14.07,8.06-21.17,11.96Z"/>
  <path class="cls-98" d="m425.97,381.22c7.34-2.37,14.69-4.74,22.03-7.11,4.01,5.91,2.49,12.56,2.1,18.88-.55,8.78-1.71,17.56-4.76,25.92-.82,2.26-.47,4.22.78,6.13-10.47,3.22-21.19,5.12-32.12,5.86-1.55-1.97-.54-3.84.36-5.59,6.3-12.24,8.73-25.39,9.28-38.99.08-1.99.05-4.08,2.32-5.1Z"/>
  <path class="cls-2" d="m493.06,490.2c-.07-3.59,1.67-6.68,2.74-9.96,5.02-15.37,10.09-30.72,15.15-46.08,8.01-3.06,16.02-6.11,24.02-9.17-6.17,18.99-12.34,37.98-18.47,56.99-.4,1.23-.36,2.59-.53,3.89-7.53,2.04-15.15,3.57-22.92,4.32Z"/>
  <path class="cls-75" d="m98.08,215.21c-3.34,7.38-8.53,13.65-12.56,20.63-9.13,15.77-17.37,31.93-23.3,49.2-.74,2.14-1.02,4.68-4.05,4.97-4.05-3.32-8.1-6.63-12.15-9.95,5.56-12.55,10.36-25.45,16.94-37.54,5.85-10.76,11.61-21.57,19.13-31.3,5.33,1.33,10.66,2.67,16,4Z"/>
  <path class="cls-61" d="m285.84,437.31c-8.02-12.73-10.72-26.81-9.51-41.52,1.69-20.6,10.07-38.76,21.91-55.44.55-.77,1.27-1.42,2.57-2-6.56,22.81-10.04,45.6-1.99,68.65-4.31,7.44-5.8,15.92-8.9,23.81-.95,2.41-1.16,5.32-4.08,6.5Z"/>
  <path class="cls-39" d="m194.05,103.27c-2.35,4.03-6.94,4.8-10.52,6.89-20.03,11.74-38.93,24.99-56.36,40.32-.89.78-1.72,1.57-2.99,1.58-2.85-4.07-5.12-8.46-7.15-12.98,7.11-7.49,15.43-13.53,23.63-19.71,11.94-9,24.65-16.83,37.64-24.21.88-.5,1.87-.67,2.76-1.1,3.97,1.41,7.02,4.18,9.84,7.1.98,1.01,2.07,1.45,3.15,2.11Z"/>
  <path class="cls-32" d="m473.03,95.92c.64,2.05,2.59,2.48,4.2,3.24,26.05,12.22,49.62,28.28,71.23,47.09,24.17,21.04,44.55,45.41,61.55,72.65,6.42,10.29,11.73,21.15,18.01,32.95,1.56-5.16.55-9.27,1.03-13.23,1.63,7.82.49,15.61-.27,23.4-3.95-.09-4.56-3.55-5.66-6.09-6.83-15.8-15.55-30.52-25.24-44.67-28.58-41.74-64.89-74.99-109.2-99.55-10.66-5.91-21.78-10.7-32.9-15.55-1.68-.73-3.39-1.41-4.92-2.41-.92-.6-2.44-1.23-1.73-2.54.63-1.17,2.07-.56,3.17-.22,6.9,1.66,14.14,1.92,20.71,4.95Z"/>
  <path class="cls-10" d="m565.86,66.8c3.68-3.96,7.87-7.35,12.13-10.65,6.59,3.29,11.87,8.41,17.54,12.94,12.06,9.62,23.43,20.03,34.31,30.97-1.37,5.78-5.51,10.32-7.12,15.99-3.74,1.5-5.5-1.56-7.44-3.54-10.97-11.17-22.44-21.77-34.66-31.56-4.03-3.23-8.26-6.19-12.29-9.4-1.46-1.16-3.68-2.12-2.47-4.75Z"/>
  <path class="cls-67" d="m446.12,425.04c-3.99.26-3.81-1.89-2.8-4.69,4.36-12.09,5.79-24.65,5.63-37.42-.04-2.94-.62-5.87-.95-8.81,7-2.99,14-5.99,20.99-8.98.67,6.52,1.75,13.04,1.9,19.57.22,9.87-1.27,19.65-3.14,29.33-.36,1.86-.64,3.2,1.37,4.03-7.4,3.2-15.12,5.35-23,6.98Z"/>
  <path class="cls-46" d="m640.86,640.93c-4.66-.34-6.11,3.85-8.44,6.4-10.49,11.49-21.65,22.28-32.91,33-5.56,5.29-12.72,8.94-16.69,15.9-4.23-2.82-8.08-6.1-11.81-9.55-.32-2.24,1.39-3.23,2.78-4.34,13.4-10.67,26.14-22.06,38-34.43,6.32-6.59,12.04-13.72,18.14-20.51,1.24-1.38,2.3-4.36,4.92-1.45,2.4,4.84,4.41,9.83,6,15Z"/>
  <path class="cls-72" d="m63.74,504.82c1.79.1,2.5,1.38,3.11,2.8,10.15,23.53,23.54,45.1,39.53,65.09,1.27,1.58,2.45,3.12,2.69,5.2-4.99,1.61-9.98,3.23-14.96,4.84-2.95-5.44-7.07-10.06-10.57-15.11-11.77-16.97-22.5-34.53-30.44-53.67,3.55-3.05,7.1-6.1,10.65-9.15Z"/>
  <path class="cls-82" d="m533.96,657.93c-1.43-1.21-.49-1.99.52-2.71,13.23-9.49,25.33-20.37,37.02-31.6,9.66-9.29,18.65-19.35,26.98-29.91,8.94-11.33,17.17-23.18,24.66-35.53,1.37-2.26,2.99-4.46,2.76-7.33,5.01-3.63,10.02-7.26,15.03-10.9,2.16,2.72.34,5.09-.85,7.32-10.76,20.25-23.3,39.32-38.03,56.95-3.44,4.12-7.74,7.65-9.76,12.87-13.08,12.43-27.55,22.98-43.16,32-5.07,2.93-10.13,5.89-15.2,8.83Z"/>
  <path class="cls-95" d="m366.07,712.02c-1.67,4.54-3.33,9.08-5.85,13.24-26.84.7-53.63.67-80.14-4.5-2.26-.44-4.69-.61-6.24-2.72-.61-2.97-.24-5.97-.26-8.95-.04-4.94.41-5.34,5.51-4.69,6.27.8,12.45,2.16,18.73,2.96,19.17,2.44,38.41,2.71,57.69,2.03,2.32-.08,4.67-.18,6.98.16,1.53.22,3.5.06,3.59,2.48Z"/>
  <path class="cls-83" d="m222.01,670.7c-2.42-3.1-6.29-3.48-9.54-5.02-24.04-11.39-46.71-24.94-67.23-41.96-.88-.73-2-1.17-3-1.75,2.53-5.56,5.06-11.12,7.81-17.17,21.83,26.17,49.68,43.77,78.33,61.2-2.04,2.05-4.01,3.61-6.37,4.7Z"/>
  <path class="cls-99" d="m676.25,424.16c-2.74-2.06-.72-4.36-.07-6.32,11.7-35.32,23.57-70.59,35.27-105.91,14.57-43.97,29.01-87.98,43.51-131.97,1.33.66,2.67,1.31,4,1.97-12.51,37.69-25.03,75.38-37.52,113.08-13.17,39.75-26.3,79.5-39.42,119.27-.71,2.14-2.02,4.33-.35,6.63-1.41,1.74-3.36,2.58-5.42,3.25Z"/>
  <path class="cls-9" d="m135.74,635.81c7.16,5.07,14.29,10.18,21.49,15.2,14.76,10.29,30.37,19.12,46.61,26.85,1.72.82,3.96,1.22,4.22,3.76-4.06,2.93-7.5,6.69-12,9.04-14.88-7.99-30.01-15.56-43.93-25.23-5.17-3.59-10.37-7.15-15.37-10.98-2.39-1.83-4.89-3.38-7.66-4.51,1.78-4.92,4.07-9.59,6.64-14.13Z"/>
  <path class="cls-72" d="m37.85,357.9c2.19-.02,3.42.82,3.25,3.25-.43,6.42-.02,12.83-.7,19.31-1.18,11.17.72,22.41,1.3,33.61.38,7.38,1.53,14.72,2.34,22.08-5.06-.23-10.04-.95-14.94-2.21-3.26-6.64-2.69-13.93-3.44-20.97-1.67-15.58-1.45-31.21-.57-46.84.11-1.96-.94-3.5-1.3-5.27,4.58-1.48,9.26-2.54,14.07-2.96Z"/>
  <path class="cls-84" d="m404.81,47.02c1.29-4.49,2.95-8.84,5.19-12.96,14.78,2.64,29.16,6.81,43.34,11.65,10.87,3.71,21.63,7.78,32.12,12.5,1.68.76,3.34,1.49,4.69,2.78l-.06-.05c1.03,3.31-.23,6.79.72,10.11.03,1.34.06,2.68.08,4.02-1.97,1.59-3.83.46-5.59-.37-24.09-11.29-49.12-19.74-75.16-25.24-1.92-.4-3.98-.7-5.32-2.45Z"/>
  <path class="cls-49" d="m274.04,717.92c11.79,2.67,23.78,3.86,35.79,5.1,15.29,1.58,30.58.44,45.86.9,1.61.05,3.4-.43,4.52,1.33-1.57,4.81-3.68,9.38-6.13,13.79-8.63-1.03-17.3-.42-25.95-.61-17.01-.37-33.87-2.22-50.64-5-1.32-.22-2.65-.41-3.65-1.44-.36-4.7-.73-9.4.19-14.08Z"/>
  <path class="cls-56" d="m274.04,717.92c0,4.66,0,9.33,0,13.99,2.65,4.04,1.19,8.55,1.45,12.86-.17,3.38.92,6.95-1.46,10-1.42-.37-.96-1.56-.96-2.43-.01-21.29,0-42.58.04-63.88,0-.44.22-.88.43-1.69,12.78,4.51,25.64,8.26,38.74,11.21,17.04,3.83,34.23,6.77,51.6,8.5,5.6.56,4.48,2.5,2.2,5.54-1.41-1.74-3.38-.91-5.13-1.1-9.56-1.06-19.1.47-28.7.3-18.45-.33-36.62-2.42-54.72-5.51-3.53-.6-3.56.72-3.5,3.22.08,2.99.02,5.99.02,8.98Z"/>
  <path class="cls-77" d="m565.86,66.8c1.05,3.55,4.46,4.69,7.01,6.6,15.51,11.62,29.87,24.51,43.34,38.42,1.85,1.91,3.68,3.85,6.52,4.24-2.14,4.72-4.29,9.44-6.43,14.16-2.91.68-4.13-1.75-5.63-3.3-12.8-13.23-26.4-25.55-40.9-36.89-4.18-3.27-8.66-6.12-12.75-9.48-1.27-1.04-3.4-1.9-1.99-4.28,3.39-3.41,6.9-6.67,10.84-9.45Z"/>
  <path class="cls-57" d="m782.87,340c-3.65-1.19-.87-3.43-.45-4.72,7.57-23.17,15.36-46.26,23.03-69.39,2.56-7.7,4.93-15.47,7.43-23.19.65-2.02,1.06-4.32,3.81-4.65,3.44,21.28-.35,41.57-8.57,61.19-6.25,14.91-14.58,28.58-25.26,40.77Z"/>
  <path class="cls-63" d="m274.04,744.91c0-4.33,0-8.66,0-13,9.27-.03,18.29,2.2,27.44,3.21,15.67,1.72,31.33,1.79,47.02,1.8,2.11,0,4.44-.48,5.57,2.13-1.5,4.62-3.45,9.04-5.89,13.24-7.09-.37-14.19-.74-21.28-.78-15.97-.09-31.71-2.17-47.46-4.36-1.99-.28-3.9-.79-5.42-2.25Z"/>
  <path class="cls-31" d="m595.97,706.9c1.59-5.45,6.92-7.4,10.57-10.77,10.95-10.1,22.43-19.61,32-31.15,2.51-3.02,5.19-6.06,8.67-8.15,2.35,5.65,4.6,11.34,7.09,16.92.85,1.91.53,2.95-1.1,4.14-15.71,11.45-31.41,22.92-47.02,34.49-1.76,1.31-2.85,1.02-4.24-.26-1.94-1.79-3.97-3.48-5.96-5.22Z"/>
  <path class="cls-64" d="m181.06,94.06c-4.45,4.87-10.71,6.99-16.12,10.36-15.86,9.87-30.88,20.82-44.88,33.18-.9.79-1.78,1.48-3.03,1.48-2.68-3.77-4.81-7.84-6.76-12.02,5.92-6.36,12.98-11.39,19.8-16.66,12.38-9.58,25.53-18.05,39.17-25.74,4.54,2.38,7.96,6.17,11.83,9.4Z"/>
  <path class="cls-78" d="m629.85,100.07c-4.57-1.56-7.46-5.49-10.64-8.57-12.47-12.08-25.93-22.9-39.68-33.43-.63-.48-1.03-1.27-1.54-1.91.07-.15.11-.33.23-.44q8.47-8.07,18.31-1.5c12.68,8.47,25.29,17.06,38.11,25.32,3.07,1.98,3.52,3.53,1.8,6.65-2.46,4.48-4.42,9.24-6.6,13.87Z"/>
  <path class="cls-13" d="m328.31,41.98c-24.42,1.62-48.71,4.21-72.49,10.35-1.63.42-3.21.8-4.88.75-1.04-4.62-.88-9.31-.77-14,1.24-1.25,2.88-1.56,4.5-1.94,19.9-4.65,40.03-7.79,60.43-9.23,1.92-.14,3.59.38,5.3,1.04,3,4.12,5.65,8.46,7.92,13.02Z"/>
  <path class="cls-64" d="m129.1,649.94c1.96-1.54,3.38-.16,4.8.92,18.58,14.18,38.22,26.62,59.35,36.66,1.38.66,2.71,1.33,2.8,3.13-4.05,3.02-7.51,6.79-12,9.25-13.94-8.76-28.93-15.77-42.34-25.41-6.06-4.36-12.31-8.48-17.78-13.61,1.24-3.88,3.03-7.49,5.17-10.95Z"/>
  <path class="cls-17" d="m131.32,165.05c4.88-.31,7.15-4.64,10.24-7.3,18.83-16.19,39.18-29.94,61.55-40.73,1.73-.84,3.91-1.35,3.94-3.95,4.31,1.8,4.56,3.28.52,6.38-23.39,17.92-46.17,36.56-65.39,59.1-1.69,1.98-2.62,2.01-3.82-.35-2.25-4.43-4.68-8.78-7.03-13.16Z"/>
  <path class="cls-56" d="m82.08,211.21c-1.34,6.21-6.06,10.5-9.09,15.74-9.24,15.97-17.42,32.4-23.91,49.67-.58,1.55-.94,3.27-3.06,3.44-3.68-3-7.35-5.99-11.03-8.99,5.11-10.39,9.55-21.08,14.82-31.41,4.75-9.3,9.92-18.34,15.29-27.28,1.03-1.72,2.14-3.35,3.99-4.31,4.56.11,8.56,2.54,13,3.14Z"/>
  <path class="cls-73" d="m555.02,76.26c2.11,4.75,7.05,6.19,10.75,9.05,16.15,12.52,31.54,25.89,45.66,40.69,1.48,1.55,2.79,3.34,4.87,4.22-1.48,3.29-2.96,6.57-4.44,9.86-1.07,2.06-2.55,1.77-4.12.68-1.24-.85-2.3-1.92-3.29-3.03-16.47-18.36-35.25-34.09-55.18-48.52-1.6-1.16-4.66-1.91-3.29-5.18,3.02-2.59,6.04-5.18,9.07-7.77Z"/>
  <path class="cls-68" d="m425.97,381.22c-2.23,4.67-1.07,9.8-1.67,14.67-1.33,10.86-4.08,21.09-9.13,30.74-.7,1.33-1.32,2.69-1.16,4.26-7.95,1.53-15.97,1.38-23.99,1.05,1.56-5.73,5.99-9.8,8.62-14.95,4.52-8.87,6.56-18.26,7.35-28.04.11-1.36.32-2.61,1-3.78l18.99-3.95Z"/>
  <path class="cls-89" d="m427,735.9c-.35-3.52,2.63-3.41,4.64-3.97,16.61-4.62,32.89-10.21,48.7-17.05,8.19-3.55,16.59-6.74,24.16-11.64,1.91-1.24,3.95-2.54,6.45-2.32.05,5.78.29,11.57-.83,17.3-2.39-3.21-4.89-1.44-7.43-.22-21.58,10.36-43.61,19.52-66.92,25.31-1.6.4-3.17,1.04-4.88.8-1.77-2.51-3-5.28-3.9-8.2Z"/>
  <path class="cls-80" d="m634.87,625.93c-1.82-1.12-2.64.23-3.6,1.41-13.79,16.97-28.69,32.85-45.75,46.63-4.99,4.03-9.67,8.46-14.5,12.7-2.82-2.06-6.03-3.63-8.12-6.59-.65-2.54,1.39-3.52,2.86-4.71,13.12-10.68,25.85-21.77,37.6-33.98,6.67-6.93,12.79-14.33,19.04-21.63,2.06-2.4,3.57-5.71,7.48-5.81,1.66,3.99,3.33,7.99,4.99,11.98Z"/>
  <path class="cls-77" d="m509.12,739.19c-1.03-1.62-2.53-1.52-3.93-.82-20.93,10.5-43.21,17.39-65.37,24.61-2.05-3.16-3.63-6.55-4.8-10.13-.97-4.06,2.68-3.65,4.58-4.24,10.98-3.4,21.93-6.87,32.68-10.96,10.59-4.03,21.1-8.24,31.21-13.4,1.95-1,3.9-2.86,6.44-1.33.06,5.44.3,10.89-.81,16.27Z"/>
  <path class="cls-73" d="m274.04,744.91c13.1,1.63,26.2,3.29,39.32,4.84,2.47.29,5.02.38,7.48.11,8.09-.9,16.13,2.1,24.23.1,1.67-.41,2.91.45,3.13,2.33-1.92,4.56-4,9.06-5.7,13.69-1.15,3.14-3.35,2.09-5.3,1.71-17.19-3.41-34.37-6.89-51.55-10.38-3.89-.79-7.75-1.69-11.62-2.53,0-3.29,0-6.58.01-9.87Z"/>
  <path class="cls-90" d="m440.91,451.76c7.32-1.5,14.62-3.08,22.08-3.81,1.8,2.28.36,4.47-.33,6.57-3.76,11.5-7.66,22.96-11.44,34.45-.67,2.02-1.67,4.07.02,6.1-7.7,1.45-15.48.96-23.24.89-1.13-1.25-1.21-2.75-.72-4.21,4.46-13.36,8.32-26.93,13.63-40Z"/>
  <path class="cls-26" d="m451.24,495.08c-4.59-.1-2.24-3.26-1.75-4.81,3.21-10.21,6.77-20.32,10.06-30.51,1.26-3.9,3.16-7.62,3.45-11.81,6.83-2.29,13.88-3.71,20.9-5.24-4.93,15.13-9.79,30.29-14.86,45.37-1.21,3.59-.86,5.4,3.35,5.01-6.96,1.5-14.02,2.08-21.14,2Z"/>
  <path class="cls-56" d="m23.78,360.86c3.15.36,3.45,2.41,3.18,5.03-1.43,13.82-.98,27.63-.15,41.49.53,8.88,2.28,17.64,2.28,26.55-4.41-.13-8.74-.81-13-1.97-3.72-22.85-2.97-45.89-3-68.89,3.46-1.24,7.02-1.98,10.68-2.21Z"/>
  <path class="cls-93" d="m36.04,528.95c3.37-2.98,6.74-5.96,10.11-8.94,2.06-.35,2.48,1.42,3.06,2.64,9.67,20.29,21.24,39.42,34.84,57.32,1.33,1.75,3.12,3.91.03,5.88-3.57,1.39-7.08,2.97-10.98,3.25-3.88-2.56-5.83-6.72-8.4-10.33-11.17-15.67-20.92-32.18-28.67-49.82Z"/>
  <path class="cls-86" d="m545.96,84.03c3.77,5.91,10.39,8.35,15.51,12.63,8.34,6.98,16.79,13.82,24.85,21.15,7.22,6.56,14.38,13.13,20.61,20.67,1.23,1.48,2.56,3.32,4.93,1.6-1.32,3.21-2.64,6.41-4.21,10.23-20.74-24.3-46.15-41.47-75.07-54.69,4.66-4.03,9.02-7.81,13.39-11.59Z"/>
  <path class="cls-63" d="m123.93,660.89c5.22,1.6,8.84,5.67,13.07,8.72,11.97,8.62,24.54,16.19,37.52,23.16,3.46,1.86,7.89,2.72,9.53,7.13-3.75,2.98-7.56,5.88-11.22,8.96-1.61,1.35-2.73,1.15-4.28-.1-15.48-12.48-30.98-24.93-46.55-37.3-1.92-1.52-2.44-2.83-1.08-4.95,1.14-1.78,2.02-3.74,3.01-5.62Z"/>
  <path class="cls-20" d="m404.81,47.02c25.39,5.09,50.08,12.38,73.66,23.22,4.02,1.85,7.88,4.24,12.42,4.83.26,2.11.78,4.22-.11,6.68-13.58-5.19-27.65-8.16-41.81-10.81-14.76-4.6-29.66-8.66-44.76-12-1.29-.29-2.59-.71-3.39-1.92.62-3.62,2.33-6.8,4-10Z"/>
  <path class="cls-89" d="m629.88,613.95c-7.37,5.8-12.25,13.86-18.59,20.61-7.96,8.46-16.12,16.67-24.6,24.61-7.72,7.23-16.65,13.05-23.79,20.91-4.28-3.37-8.56-6.74-13.23-10.41,30.67-14.85,54.55-37.49,77.9-60.99,1.65,1.48,2.28,3.24,2.31,5.28Z"/>
  <path class="cls-20" d="m36.04,528.95c1.38.52,1.93,1.74,2.51,2.94,9.29,19.27,20.23,37.53,33.23,54.55.59.78.9,1.77,1.34,2.66-3.93,2.27-8.47,2.84-12.61,4.53-2.11.86-2.93-.28-3.8-1.94-9.27-17.62-18.56-35.24-27.95-52.79-1.07-2.01-1.01-3.23.81-4.59,2.24-1.68,4.33-3.56,6.48-5.36Z"/>
  <path class="cls-92" d="m375.98,491.76c-7.83-1.23-15.54-3-23.05-5.56-.71-1.01-1.01-2.15-.62-3.31,3.44-10.36,6.18-20.96,10.71-30.93,9.09,1.35,18.24,1.99,27.42,2.29,1.96.06,3.98-.32,5.86.59-.73,1.1-1.92,1.45-3.05,1.33-4.77-.5-6.66,2.08-7.9,6.29-2.91,9.83-6.74,19.37-9.37,29.3Z"/>
  <path class="cls-32" d="m452.32,90.97c-.81.07-1.61.15-3.98.36,8.37,3.77,15.36,7.03,22.43,10.08,19.29,8.34,36.95,19.45,53.82,31.83,14.72,10.8,28.53,22.73,41.04,36.04,18.91,20.1,35.47,41.95,48.69,66.29,3.97,7.31,7.64,14.72,11.05,22.28.76,1.69,1.72,3.23,3.43,4.15.16,2.07.03,4.1-.84,6.02-5.05-3.72-5.89-9.9-8.3-15.02-7.18-15.22-15.6-29.69-25.08-43.53-11.56-16.87-24.63-32.58-39.45-46.68-21-19.99-44.14-37.09-69.85-50.7-15.75-8.34-32.03-15.33-48.87-21.06-1.73-.59-3.53-1.1-4.4-2.97,6.72,1.31,13.68.99,20.32,2.89Z"/>
  <path class="cls-89" d="m490.15,60.99c-10.05-3.8-20.12-7.54-30.14-11.42-14.84-5.76-30.21-9.73-45.66-13.41-1.65-.39-3.24-.68-4.35-2.09.87-3.52,2.21-6.85,4-10,10.39,3.62,21.25,5.47,31.78,8.61,11.83,3.53,23.27,8.05,34.71,12.6q6.57,2.61,7.66-4.18c.21-.5.54-.87,1.01-1.14,1.2,6.97.91,14.02,1,21.04Z"/>
  <path class="cls-77" d="m420.8,7.02c13.24,3.52,26.6,6.61,39.57,11.08,7.35,2.53,14.62,5.3,21.86,8.13,5.73,2.24,5.7,2.34,5.76-3.6.01-1.33.07-2.65.1-3.98,1.31,7.05.94,14.19,1.06,21.31,0,0-.29.24-.29.24-2.15,1.51-4.21.42-6.16-.38-20.06-8.23-40.58-15.01-61.77-19.72-1.7-.38-4.19-.32-4.05-3.24.9-3.44,2.1-6.76,3.91-9.83Z"/>
  <path class="cls-30" d="m440.91,451.76c.45,2.42-.52,4.59-1.25,6.78-3.46,10.39-6.98,20.75-10.44,31.14-.68,2.03-1.54,4.06-1.23,6.3-5.35-.06-10.69-.12-16.04-.18-2.25-.31-4.63-.84-3.63-3.85,4.19-12.67,7.18-25.74,12.67-37.96,6.64-.74,13.27-1.48,19.91-2.23Z"/>
  <path class="cls-84" d="m169.23,84.66c-1.65,4.06-5.91,4.67-9.06,6.59-16.73,10.21-32.3,21.96-47.32,34.49-.72.6-1.72.89-2.59,1.32q-4.69-7.19,1.75-12.74c13.91-12.05,27.86-24.05,41.63-36.26,2.65-2.35,4.42-2.65,7.04-.16,2.62,2.49,5.68,4.53,8.54,6.76Z"/>
  <path class="cls-87" d="m363.01,451.97c-.72,7.71-4.47,14.53-6.45,21.87-1.12,4.15-3.2,8.02-3.64,12.37-7.22-2.15-14.33-4.57-20.92-8.31-2.06-1.15-1.22-2.84-.71-4.36,2.58-7.71,5-15.46,7.74-23.11.66-1.84.93-4.58,4.19-3.51,6.6,1.69,13.2,3.37,19.8,5.06Z"/>
  <path class="cls-9" d="m69.08,208.07c-8.73,14.14-16.79,28.65-23.85,43.7-2.25,4.8-4.17,9.76-6.41,14.57-.86,1.84-1.06,4.38-3.84,4.73-2.93-2.35-5.87-4.71-8.8-7.06,8.17-18.91,17-37.48,27.95-54.97.88-1.41,1.66-2.87,2.95-3.97,4.26-.04,7.91,2.36,11.99,3Z"/>
  <path class="cls-27" d="m375.98,491.76c-1.38-1.71-.61-3.39-.02-5.14,2.85-8.46,5.91-16.87,8.35-25.45,1.33-4.69,3.35-7.23,8.51-6.22,1.11.22,2.31-.06,3.47-.11,6.56-.23,13.11-.46,19.67-.68-.57,2.56-2.76,2.01-4.38,2.05-2.89.06-4.55,1.24-5.45,4.02-3.06,9.43-6.1,18.88-9.48,28.2-.99,2.73.76,4.29,1.32,6.37-7.41-.46-14.75-1.36-21.99-3.04Z"/>
  <path class="cls-56" d="m84.1,585.84c1.26-1.64.64-3.21-.42-4.55-14.77-18.69-26.52-39.21-36.82-60.61-.13-.28-.47-.46-.7-.68,2.31-2.01,4.63-4.02,6.94-6.03,2.45,1.29,2.97,3.92,3.99,6.1,9.8,21.06,22.11,40.56,36.47,58.78,1.07,1.36,1.65,2.41.56,3.89-3.34,1.03-6.68,2.06-10.02,3.09Z"/>
  <path class="cls-49" d="m592.32,617.1c-2.32-1.48-.34-2.45.46-3.47,7.55-9.58,15.35-18.98,22.65-28.75,9.33-12.46,17.09-25.94,24.41-39.66.89-1.67,1.24-3.41,1.1-5.27,4.97-4.09,9.93-8.18,14.9-12.27,1.96,1.94.94,4,.12,5.96-3.65,8.69-7.8,17.12-12.72,25.18-.76,1.25-1.58,2.53-1.52,4.11-10.56,14.88-22.05,28.93-35.86,40.99-4.74,4.14-9.05,8.78-13.55,13.19Z"/>
  <path class="cls-44" d="m340.87,345.01c-8.51-.77-16.44.89-23.78,5.39-1.16.71-2.68,2.55-4.24.31,3.97-13.67,11.53-25.25,20.85-35.81,5.7-1.66,11.37-3.12,16.17,2.09-3.64,9.13-7.62,18.16-9.01,28.01Z"/>
  <path class="cls-73" d="m509.93,722.92c-10.12,4.09-19.7,9.34-29.94,13.21-12.99,4.91-26.04,9.59-39.36,13.52-2.01.59-4.82.27-5.6,3.2-1.76-2.73-3.36-5.54-4.12-8.74,4.42-3.26,9.93-3.38,14.92-4.87,20.55-6.12,40.17-14.47,59.32-23.98,3.78-1.88,5.15-1.11,4.99,2.96-.06,1.57-.13,3.13-.19,4.7Z"/>
  <path class="cls-29" d="m285.84,437.31c3.95-8.06,5.85-16.86,9.02-25.21.8-2.12.99-4.68,3.96-5.1,2.55,6.59,6.34,12.44,10.76,17.91.8,1,1.51,2.07,2.26,3.11-2.67,8.45-5.65,16.8-8.41,25.22-.46,1.4-.94,2.83-2.37,3.61-6.3-5.56-11.45-12.02-15.22-19.55Z"/>
  <path class="cls-73" d="m416.89,16.85c3.34,2.96,7.75,2.46,11.66,3.5,18.42,4.9,36.55,10.63,54.14,18.03,1.96.83,4.11,1.22,6.17,1.81.38,10.15.31,10.32-8.86,6.34-19.66-8.53-40.08-14.57-60.9-19.46-1.94-.46-4.49-.18-5.11-3,.55-2.57,1.43-5.01,2.89-7.22Z"/>
  <path class="cls-64" d="m57.09,205.07c-1.22,4.95-4.63,8.73-7.03,13.05-7.74,13.92-15.02,28.07-21.07,42.83-.56,1.36-.9,2.94-2.81,3.06-4.84-2.38-5.55-5.36-3.24-10.56,6.91-15.55,13.2-31.38,19.5-47.19,1.4-3.52,2.8-5.26,6.77-3.5,2.48,1.1,5.24,1.56,7.87,2.31Z"/>
  <path class="cls-94" d="m722.93,171.06c4.2,1.58,8.98.64,13,3,1.33,1.77.38,3.51-.17,5.18-4.74,14.28-9.46,28.56-14.31,42.8-.78,2.3-1.12,5.44-4.86,5.13-2.27-4.91-4.53-9.82-6.8-14.73-.5-1.29-.5-2.57-.03-3.89,4.21-11.9,8.03-23.92,12.05-35.89.21-.64.64-1.15,1.13-1.62Z"/>
  <path class="cls-23" d="m320.39,28.96c-22.01,1.57-43.83,4.48-65.33,9.59-1.58.38-3.26.37-4.89.53.12-4.97-1.98-9.92-.12-14.91,1.45,2.12,2.39,4.48,6.05,3.49,19-5.13,38.57-6.65,58.04-8.82,2.87,2.89,3.86,6.94,6.25,10.12Z"/>
  <path class="cls-11" d="m343.22,446.91c-1.66.06-2.05,1.26-2.5,2.58-3.02,8.85-6.1,17.68-9.1,26.54-.18.52.25,1.24.39,1.87-6.17-2.39-11.82-5.7-17.05-9.73-1.28-1.7-.71-3.46-.15-5.2,2.19-6.75,4.33-13.52,6.78-20.18.69-1.89.92-4.97,4.46-3.81,5.72,2.64,11.45,5.28,17.17,7.93Z"/>
  <path class="cls-53" d="m397.97,494.8c-3.79-.84-4.03-2.87-2.79-6.29,3.28-9,6.38-18.08,9.1-27.26,1.35-4.55,3.19-7.36,8.43-6.31,1.1.22,2.34.18,3.25-.79,1.68-.06,3.36-.12,5.05-.18-1.1,8.96-5.37,17-7.44,25.7-.92,3.86-2.16,7.69-3.78,11.3-1.28,2.85.03,3.86,2.18,4.81-4.72.42-9.33-.65-13.99-.99Z"/>
  <path class="cls-73" d="m314.14,18.84c-1.13,1.67-2.82,2.12-4.71,2.25-17.91,1.23-35.65,3.54-53.08,7.95-6.22,1.57-6.24,1.5-6.3-4.87,15.06-5.42,30.62-9.22,45.89-13.94,11.75-3.63,11.79-3.49,18.2,8.6Z"/>
  <path class="cls-69" d="m716.59,227.18c1.97-.69,2.64-2.45,3.21-4.17,5.4-16.31,10.76-32.63,16.13-48.95,3.57.39,6.96,1.38,10.2,2.92-3.27.06-3.31,2.9-4,4.94-6.72,19.94-13.35,39.91-19.99,59.88-.68,2.04-1.06,4.24-3.32,5.26-.07-6.7-.81-13.33-2.22-19.88Z"/>
  <path class="cls-43" d="m722.93,171.06c.26,3.61-1.46,6.74-2.54,10-3.46,10.49-7.06,20.93-10.6,31.39-3.27-3.85-6.54-7.7-9.81-11.55-1.4-1.67-.74-3.44-.18-5.15,2.52-7.67,5.05-15.35,7.71-22.97.59-1.69.84-4.05,3.61-3.82,4.05.05,7.98.77,11.8,2.11Z"/>
  <path class="cls-71" d="m326.04,438.98c-1.36.03-2.13.9-2.48,2.04-2.82,9.06-6.6,17.82-8.6,27.14-5.28-2.97-9.8-6.87-13.9-11.3,2.69-8.28,5.35-16.57,8.09-24.84.51-1.54,1.07-3.15,2.69-3.99,4.73,3.65,9.47,7.3,14.2,10.95Z"/>
  <path class="cls-64" d="m477.99,699.02c-.17,2.8-2.6,3.26-4.48,4.07-16.91,7.25-34.38,12.84-52.09,17.76-.47.13-.99.06-1.49.09-2.22-4.39-4.44-8.77-7.08-13.99,22.7.75,44.01-2.9,65.14-7.92Z"/>
  <path class="cls-48" d="m711.13,168.95c-2.55,2.04-2.69,5.21-3.58,7.96-2.57,7.98-5.9,15.72-7.57,23.99-4.7-3.57-9.39-7.15-14.09-10.72-1.01-1.54-.82-3.16-.29-4.79,1.64-5.05,3.24-10.12,5.06-15.11.91-2.5,2.2-4.63,5.48-3.29,5.09-.04,10.08.6,14.98,1.97Z"/>
  <path class="cls-21" d="m696.15,166.98c-1.84-.09-3.28.52-3.83,2.41-2.03,6.96-5.16,13.58-6.43,20.78-6.77-4.11-13.94-7.43-21.14-10.7-.31-5.26,1.84-9.8,4.19-14.28,9.12-.22,18.19.36,27.2,1.79Z"/>
  <path class="cls-74" d="m349.88,317c-5.1-2.99-10.75-1.62-16.17-2.09,8.21-10.84,18.56-19.44,29.15-27.78,3.22-2.54,6.67-4.8,10.64-6.67-8.5,11.86-16.42,23.97-23.62,36.54Z"/>
  <path class="cls-96" d="m252.23,84.09c6.03.23,11.36-2.74,17.15-3.75,11.34-1.97,22.53-4.8,34.1-5.24,1.58-.06,3.37-.55,4.6,1.08-17.67,5.75-35.47,11.14-52.61,18.4-2.33.99-3.02.16-3.06-2.02-.05-2.83-.12-5.65-.18-8.48Z"/>
  <path class="cls-50" d="m668.95,165.2c-.24,5.1-2.52,9.6-4.19,14.28-12.49-4.6-25.22-8.34-38.36-11.08,14.05-2.97,28.24-3.76,42.55-3.2Z"/>
  <path class="cls-95" d="m400.81,57.02c16.33,3.68,32.95,6.35,48.15,13.92-17.35-2.02-34.72-3.52-52.58-2.65,1.13-4.2,2.48-7.85,4.42-11.27Z"/>
  <path class="cls-16" d="m641.73,562.92c.07-6.03,4.13-10.44,6.39-15.57,2.85-6.46,7.22-12.29,7.73-19.67,6.01-6.05,12.02-12.11,18.03-18.16.36.31.72.61,1.09.92-9.32,18.58-20.48,36.03-33.24,52.49Z"/>
  <path class="cls-7" d="m420,151.06c.67-1,1.33-2,2-3,16.89,5.97,33.18,13.25,48.37,22.78,3.31,2.08,7.74,3.26,8.62,8.06-1.86.64-3.38-.51-5.02-.99-16.55-11.84-34.83-20.22-53.96-26.86Z"/>
  <path class="cls-18" d="m478.96,601.12c-3.52,1.83-7.35.23-10.97.99-2.33.01-4.66.02-6.99.03-2.67-.03-5.33-.06-8-.09-1.96-.47-4.16.61-5.96-.92,10.64,0,21.28,0,31.92-.01Z"/>
  <path class="cls-35" d="m448,174.95c1.96.45,4.16-.62,5.96.92-8.64,0-17.29,0-25.93,0,6.59-1.83,13.33-.28,19.97-.92Z"/>
  <path class="cls-88" d="m397.98,386.17c-5.64,1.38-11.28,1.36-16.92.02,5.64,0,11.28-.01,16.92-.02Z"/>
  <path class="cls-18" d="m83.25,378.03c1.75,4.38.47,8.93.72,13.39-1.21-4.41-.81-8.91-.72-13.39Z"/>
  <path class="cls-18" d="m83.99,359.68c-.2,3.76.94,7.61-.72,11.29-.11-3.78-.45-7.58.72-11.29Z"/>
  <path class="cls-20" d="m490.8,71.05c-1.64-3.27-.55-6.73-.72-10.11,1.09,3.31.77,6.72.72,10.11Z"/>
  <path class="cls-83" d="m420.27,86.99c-2.75-.22-5.61.91-8.23-.74,2.78-.11,5.56-.28,8.23.74Z"/>
  <path class="cls-14" d="m367.99,86.24c-2.66,1.67-5.57.55-8.37.73,2.72-1.03,5.55-.82,8.37-.73Z"/>
  <path class="cls-7" d="m85.13,401c1.9,2.48.53,5.34.95,8-.28.46-.57.44-.85,0-.08-1.25-.15-2.49-.23-3.74-.52-1.44-.74-2.87.13-4.26Z"/>
  <path class="cls-7" d="m491.96,600.12c-1.93,1.53-4.15.59-6.25.74,2.01-.87,4.12-.86,6.25-.74Z"/>
  <path class="cls-83" d="m431.22,88c-2.07-.17-4.28.78-6.18-.77,2.11-.12,4.21-.17,6.18.77Z"/>
  <path class="cls-35" d="m439.37,600.84c-2.13-.14-4.38.83-6.34-.74,2.16-.11,4.31-.22,6.34.74Z"/>
  <path class="cls-18" d="m85.13,401c-.04,1.42-.09,2.84-.13,4.26-.94-2-.87-4.13-.73-6.26.27,0,.54,0,.81,0,.02.67.04,1.33.05,2Z"/>
  <path class="cls-18" d="m85.23,408.99c.28,0,.57,0,.85,0-.03,1.76-.06,3.53-.09,5.29-.93-1.67-.88-3.47-.76-5.29Z"/>
  <path class="cls-14" d="m353.99,87.25c-1.6,1.42-3.5.65-5.28.73,1.67-.93,3.47-.87,5.28-.73Z"/>
  <path class="cls-18" d="m84.99,348.73c-.09,1.77.69,3.66-.74,5.24-.14-1.8-.2-3.59.74-5.24Z"/>
  <path class="cls-4" d="m170.06,402c-1.71-1.63-.94-3.73-.96-5.62-.09-6.92-.07-13.83-.01-20.75.01-1.58-.54-3.34.98-4.63v30.99Z"/>
  <path class="cls-4" d="m170.06,370c.39-2.32-.92-4.89,1-7-.39,2.32.92,4.89-1,7Z"/>
  <path class="cls-4" d="m171.06,362.01c.24-1.68-.67-3.6,1-5-.24,1.68.67,3.6-1,5Z"/>
</svg>