<?xml version="1.0" encoding="UTF-8"?>
<svg id="Layer_2" data-name="Layer 2" xmlns="http://www.w3.org/2000/svg" viewBox="0 0 81.73 35.46">
  <defs>
    <style>
      .cls-1 {
        fill: #0a108f;
      }

      .cls-1, .cls-2, .cls-3, .cls-4, .cls-5, .cls-6 {
        stroke-width: 0px;
      }

      .cls-2 {
        fill: #d7d7d8;
      }

      .cls-3 {
        fill: #50dd8c;
      }

      .cls-4 {
        fill: #282828;
      }

      .cls-5 {
        fill: #0473ea;
      }

      .cls-6 {
        fill: #525355;
      }
    </style>
  </defs>
  <g id="text">
    <path class="cls-4" d="m.48,33.85l.4.5c.8,1.1,2.4,1.4,3.5.6l11.6-8.4c1.1-.8,1.4-2.4.6-3.5l-.4-.5c-.8-1.1-2.4-1.4-3.5-.6L1.08,30.35c-1.2.8-1.4,2.3-.6,3.5Z"/>
    <path class="cls-5" d="m14.78,27.45l2.2-1.6c.6-.4.7-1.2.3-1.8L6.28,8.45c-.4-.6-1.2-.7-1.8-.3l-2.2,1.6c-.6.4-.7,1.2-.3,1.8l11.1,15.5c.3.7,1.1.8,1.7.4Z"/>
    <path class="cls-3" d="m1.58,11.15l.4.5c.8,1.1,2.4,1.4,3.5.6l10-7.2c1.1-.8,1.4-2.4.6-3.5l-.4-.5c-.8-1.1-2.4-1.4-3.5-.6L2.18,7.65c-1.2.8-1.4,2.4-.6,3.5Z"/>
    <circle class="cls-5" cx="3.78" cy="9.95" r="1"/>
    <circle class="cls-4" cx="14.28" cy="24.35" r="1"/>
    <path class="cls-1" d="m4.16,10.07s.05.1.05.17-.02.13-.05.18-.09.09-.15.11c-.06.03-.13.04-.21.04-.1,0-.18-.02-.25-.07s-.12-.11-.15-.2l.21-.12s.04.09.07.11c.03.03.07.04.11.04s.08-.01.1-.03c.03-.02.04-.05.04-.09,0-.09-.07-.13-.22-.13h-.04v-.21h.06s.09-.01.12-.04c.03-.02.04-.05.04-.09,0-.03-.01-.06-.03-.08-.02-.02-.05-.03-.09-.03s-.07.01-.1.04c-.03.03-.05.06-.07.11l-.2-.11c.03-.09.08-.16.14-.2s.15-.07.25-.07c.07,0,.14.01.2.04s.1.06.13.11c.03.05.05.1.05.17,0,.06-.01.11-.04.15s-.07.08-.12.1c.06.02.11.06.14.1h.01Z"/>
    <path class="cls-2" d="m14.34,24.06h-.49v-.23h.78v.17l-.38.97h-.29l.37-.9h.01Z"/>
  </g>
  <path class="cls-5" d="m17.31,1.85h6.73v1.47h-2.53v6.87h-1.66V3.32h-2.53v-1.47h0Z"/>
  <g>
    <path class="cls-6" d="m29.79,4.79c.38.43.58,1.05.58,1.88v3.53h-1.58v-3.02c0-1.08-.36-1.62-1.07-1.62-.38,0-.69.15-.92.44s-.35.71-.35,1.24v2.96h-1.58V1.52h1.58v3.56c.38-.62.98-.93,1.8-.93.65,0,1.16.21,1.54.64Z"/>
    <path class="cls-6" d="m31.87,3.25c-.19-.19-.28-.42-.28-.68s.09-.49.27-.68c.18-.19.4-.29.66-.29s.48.1.67.29.28.42.28.68-.1.48-.28.68c-.19.19-.41.29-.67.29s-.47-.1-.66-.29h0Zm1.46,6.95h-1.58v-5.91h1.58v5.91Z"/>
    <path class="cls-6" d="m37.8,4.15c.24,0,.44.04.62.14v1.41c-.19-.11-.41-.17-.66-.17-.91,0-1.37.64-1.37,1.93v2.75h-1.58v-5.91h1.39c.04.46.07.76.09.9.32-.7.82-1.05,1.52-1.05h0Zm5.81,5.71c-.39.32-.92.48-1.61.48-.64,0-1.15-.17-1.54-.51s-.59-.94-.59-1.82v-2.38h-1v-1.33h1v-1.81h1.58v1.81h1.77v1.33h-1.77v2.12c0,.4.07.71.21.91s.35.3.65.3c.27,0,.52-.08.75-.24l.55,1.14Z"/>
    <path class="cls-6" d="m48.38,4.29h1.65l-2.66,6.68c-.28.71-.61,1.22-.99,1.53s-.85.47-1.41.47c-.27,0-.53-.04-.77-.12s-.45-.19-.62-.33l.63-1.21c.23.17.48.25.75.25.17,0,.32-.04.45-.11.12-.07.25-.2.36-.38.11-.18.25-.44.4-.79l-2.56-6.01h1.78l1.56,4.07,1.42-4.07v.02Z"/>
  </g>
  <path class="cls-5" d="m56.19,9.21c-.29.38-.67.67-1.14.85s-.97.27-1.5.27c-.77,0-1.47-.18-2.1-.54-.62-.36-1.04-.87-1.24-1.53l1.35-.76c.18.43.45.76.8.99s.77.35,1.25.35c.39,0,.71-.08.94-.24s.35-.39.35-.7c0-.24-.08-.45-.23-.6-.16-.16-.35-.29-.58-.38-.23-.09-.55-.2-.95-.32-.54-.16-.98-.32-1.32-.47-.34-.16-.63-.39-.88-.7-.24-.31-.37-.72-.37-1.23,0-.54.14-1,.43-1.37s.66-.66,1.13-.84c.47-.19.97-.28,1.51-.28.74,0,1.37.17,1.89.5s.86.79,1.01,1.36l-1.35.76c-.14-.36-.34-.64-.62-.84-.27-.2-.62-.3-1.03-.3-.37,0-.67.09-.91.26-.23.17-.35.4-.35.68,0,.21.07.39.22.53s.33.25.55.34c.22.09.53.19.91.3.55.16,1,.32,1.36.48s.66.41.92.73.38.75.38,1.27c0,.57-.15,1.05-.44,1.43h.01Z"/>
  <g>
    <path class="cls-6" d="m61.58,4.49c.41.23.72.56.95.98.22.42.34.91.34,1.45,0,.24-.02.49-.07.74h-3.92c.07.44.23.77.48,1,.25.22.56.34.93.34.27,0,.5-.06.71-.18s.37-.29.49-.53l1.16.68c-.16.43-.47.77-.92,1-.45.24-.96.35-1.51.35s-1.03-.12-1.48-.35-.82-.59-1.1-1.06c-.28-.47-.42-1.04-.42-1.7s.14-1.21.42-1.68c.28-.46.64-.81,1.09-1.05s.93-.35,1.46-.35.99.12,1.4.35h-.01Zm-2.24,1.24c-.22.2-.37.48-.44.83h2.35c-.03-.36-.15-.64-.35-.84-.2-.19-.45-.29-.76-.29s-.58.1-.8.3Z"/>
    <path class="cls-6" d="m64.82,4.29l1.53,3.9,1.42-3.9h1.65l-2.5,5.89h-1.29l-2.58-5.89h1.77Z"/>
    <path class="cls-6" d="m73.89,4.49c.41.23.72.56.95.98.22.42.34.91.34,1.45,0,.24-.02.49-.07.74h-3.92c.07.44.23.77.48,1,.25.22.56.34.93.34.27,0,.5-.06.71-.18s.37-.29.49-.53l1.16.68c-.16.43-.47.77-.92,1-.45.24-.96.35-1.51.35s-1.03-.12-1.48-.35-.82-.59-1.1-1.06c-.28-.47-.42-1.04-.42-1.7s.14-1.21.42-1.68c.28-.46.64-.81,1.09-1.05s.93-.35,1.46-.35.99.12,1.4.35h0Zm-2.24,1.24c-.22.2-.37.48-.44.83h2.35c-.03-.36-.15-.64-.35-.84-.2-.19-.45-.29-.76-.29s-.58.1-.8.3Z"/>
    <path class="cls-6" d="m81.16,4.79c.38.43.57,1.05.57,1.88v3.53h-1.58v-3.02c0-1.08-.36-1.62-1.07-1.62-.38,0-.69.15-.92.44-.23.29-.35.71-.35,1.24v2.96h-1.58v-5.91h1.39c.04.46.07.78.1.95.38-.73,1.01-1.09,1.89-1.09.65,0,1.17.21,1.55.64Z"/>
  </g>
  <g>
    <path class="cls-6" d="m23.77,13.74l1.73,5.61,1.6-5.61h1.6l-2.6,8.34h-1.28l-1.76-5.45-1.7,5.45h-1.27l-2.71-8.34h1.71l1.71,5.61,1.64-5.61h1.33Z"/>
    <path class="cls-6" d="m28.82,17.51c.28-.47.65-.83,1.11-1.09.46-.25.96-.38,1.5-.38s1.03.13,1.49.38c.46.25.83.62,1.11,1.09s.42,1.01.42,1.63-.14,1.16-.42,1.63-.65.83-1.11,1.08-.96.38-1.49.38-1.04-.12-1.5-.38c-.46-.25-.83-.61-1.11-1.08s-.42-1.01-.42-1.63.14-1.16.42-1.63Zm1.62,2.88c.26.31.59.46.99.46s.72-.15.98-.46.39-.72.39-1.25-.13-.94-.39-1.25-.59-.47-.98-.47-.72.16-.99.47-.39.73-.39,1.25.13.94.39,1.25Z"/>
    <path class="cls-6" d="m39.37,16.14c.2.07.35.16.46.26l-.62,1.22c-.2-.14-.42-.21-.67-.21-.41,0-.74.17-.99.51s-.37.81-.37,1.41v2.75h-1.58v-5.91h1.39c.04.46.07.77.1.93.17-.36.4-.63.68-.81s.6-.27.96-.27c.23,0,.44.03.64.1v.02Z"/>
    <path class="cls-6" d="m42.08,22.09h-1.58v-8.67h1.58v8.67Z"/>
    <path class="cls-6" d="m47.66,13.41h1.58v8.67h-1.39c-.04-.44-.07-.74-.09-.89-.21.34-.47.6-.8.77-.33.17-.69.26-1.08.26-.49,0-.93-.12-1.33-.36s-.73-.6-.97-1.07-.37-1.02-.37-1.66.12-1.2.37-1.67c.24-.47.57-.82.97-1.07s.85-.36,1.33-.36c.36,0,.69.07,1,.22.31.14.57.37.78.66v-3.5Zm-.41,7.02c.27-.29.41-.72.41-1.3s-.14-.99-.41-1.27-.61-.42-1-.42c-.42,0-.75.15-1.01.44-.25.3-.38.71-.38,1.24s.13.95.38,1.26.59.47,1.01.47.73-.14,1-.43h0Z"/>
    <path class="cls-6" d="m50.64,19.31v-1.32h4.28v1.32h-4.28Z"/>
    <path class="cls-6" d="m62.93,19.68c0,.75-.28,1.34-.83,1.77-.55.43-1.32.64-2.32.64h-3.33v-8.34h3.02c.89,0,1.61.2,2.17.61s.84.98.84,1.72-.31,1.33-.93,1.69c.92.33,1.38.97,1.38,1.93v-.02Zm-4.86-4.5v1.97h1.24c.45,0,.8-.09,1.07-.28.26-.19.39-.44.39-.75s-.13-.54-.39-.7-.62-.25-1.07-.25h-1.24Zm1.57,5.47c.5,0,.89-.09,1.16-.27s.4-.44.4-.78-.13-.6-.4-.79-.66-.29-1.17-.29h-1.56v2.12h1.57Z"/>
    <path class="cls-6" d="m65.66,22.09h-1.58v-8.67h1.58v8.67Z"/>
    <path class="cls-6" d="m67.2,17.51c.28-.47.65-.83,1.11-1.09.46-.25.96-.38,1.5-.38s1.03.13,1.49.38.83.62,1.11,1.09.42,1.01.42,1.63-.14,1.16-.42,1.63-.65.83-1.11,1.08-.96.38-1.49.38-1.04-.12-1.5-.38c-.46-.25-.83-.61-1.11-1.08s-.42-1.01-.42-1.63.14-1.16.42-1.63Zm1.62,2.88c.26.31.59.46.99.46s.72-.15.98-.46.39-.72.39-1.25-.13-.94-.39-1.25-.59-.47-.98-.47-.72.16-.99.47c-.26.31-.39.73-.39,1.25s.13.94.39,1.25Z"/>
    <path class="cls-6" d="m79.67,16.18v5.3c0,1.19-.3,2.06-.9,2.59s-1.35.8-2.23.8c-.65,0-1.21-.14-1.7-.41s-.84-.65-1.04-1.14l1.22-.7c.3.57.8.85,1.53.85.56,0,.96-.17,1.19-.5s.35-.86.36-1.6c-.39.56-.96.84-1.71.84-.48,0-.93-.12-1.34-.37-.42-.25-.75-.6-1.01-1.07-.25-.47-.38-1.02-.38-1.65s.13-1.19.38-1.66.59-.82,1.01-1.07.87-.37,1.34-.37c.39,0,.74.08,1.05.25.31.17.57.42.76.76.05-.31.08-.6.09-.87h1.39v.02Zm-2,4.25c.27-.29.41-.72.41-1.3s-.14-.99-.41-1.27-.61-.42-1-.42c-.42,0-.75.15-1.01.44-.25.3-.38.71-.38,1.24s.13.95.38,1.26.59.47,1.01.47c.39,0,.73-.14,1-.43h0Z"/>
  </g>
  <g>
    <path class="cls-6" d="m18.07,33.25h10.12v1.03h-10.12v-1.03Zm9.28-7.36v1.03h-8.39v-1.03s8.39,0,8.39,0Zm-.66,4.59h-7.12v-1.03h7.12v1.03Z"/>
    <path class="cls-6" d="m34.66,34.75c-.72,0-1.08-.41-1.08-1.22v-3.98l-3.56.47-.09-1.08,3.66-.47v-3.33h1.03c.31.06.33.19.05.38v2.81l5.39-.75.09,1.08-5.48.75v3.94c0,.25.12.38.38.38h2.91c.47,0,.78-.52.94-1.55l1.08.42c-.28,1.44-.81,2.16-1.59,2.16h-3.73Z"/>
    <path class="cls-6" d="m41.74,28.52v-.89h1.31v-2.81h.89c.25.03.27.12.05.28v2.53h1.27v.89h-1.27v6.94h-.94v-6.94h-1.31Zm7.36-3.56v1.12h1.55c-.28-.28-.62-.55-1.03-.8l.56-.56c.5.25.89.53,1.17.84l-.52.52h1.31v.75h-3.05v.7h2.39v3.75h-.89v.7h1.92v.89h-1.92v1.78c0,.53-.25.8-.75.8h-.8l-.14-.89h.61c.09,0,.14-.05.14-.14v-1.55h-2.58c.41.28.77.66,1.08,1.12l-.75.75c-.28-.41-.62-.81-1.03-1.22l.66-.66h-2.2v-.89h4.83v-.7h-3.84v-3.75h2.34v-.7h-2.91v-.75h2.91v-1.41h.89c.25.03.27.12.05.28v.02Zm-.94,3.33h-1.55v.75h1.55v-.75Zm0,1.5h-1.55v.75h1.55v-.75Zm2.53-1.5h-1.59v.75h1.59v-.75Zm0,1.5h-1.59v.75h1.59v-.75Z"/>
    <path class="cls-6" d="m56.6,31.75h5.72v3.61h-.94v-.28h-4.31v.28h-.94v-3.38c-.72.28-1.34.48-1.88.61l-.38-.98c1.72-.38,3.28-.94,4.69-1.69-.41-.31-.84-.73-1.31-1.27-.5.59-1.25,1.19-2.25,1.78l-.52-.8c1.38-.78,2.38-1.75,3-2.91l.89.28c.12.12.08.2-.14.23l-.23.33h3.14l.19-.19.8.61-.23.19c-.53.62-1.16,1.2-1.88,1.73,1.09.5,2.61.91,4.55,1.22l-.33.98c-2.28-.47-3.92-1.03-4.92-1.69-.84.56-1.75,1-2.72,1.31v.03Zm3.05-6.7v.7h4.41v2.34h-.94v-1.59h-8.02v1.59h-.94v-2.34h4.41v-1.08h1.03c.31.06.33.19.05.38Zm1.73,9.14v-1.55h-4.31v1.55h4.31Zm-.89-5.86h-2.58c.38.44.81.81,1.31,1.12.41-.28.83-.66,1.27-1.12Z"/>
  </g>
</svg>