<?xml version="1.0" encoding="UTF-8"?>
<!DOCTYPE svg PUBLIC "-//W3C//DTD SVG 1.1//EN" "http://www.w3.org/Graphics/SVG/1.1/DTD/svg11.dtd">
<!-- Creator: CorelDRAW -->
<svg xmlns="http://www.w3.org/2000/svg" xml:space="preserve" width="25.4mm" height="12.7mm" version="1.1" style="shape-rendering:geometricPrecision; text-rendering:geometricPrecision; image-rendering:optimizeQuality; fill-rule:evenodd; clip-rule:evenodd"
viewBox="0 0 2540 1270"
 xmlns:xlink="http://www.w3.org/1999/xlink"
 xmlns:xodm="http://www.corel.com/coreldraw/odm/2003"
 t="1732010414078"
 p-id="3419">
 <defs>
  <style type="text/css">
   <![CDATA[
    .fil0 {fill:#263238;fill-rule:nonzero}
    .fil1 {fill:#FF5252;fill-rule:nonzero}
   ]]>
  </style>
 </defs>
 <g id="圖層_x0020_1">
  <metadata id="CorelCorpID_0Corel-Layer"/>
  <path class="fil0" d="M1305.47 331.21c3.18,8.29 6.69,14.66 10.53,19.11 -12.78,1.3 -26.01,2.73 -39.72,4.32 -13.72,1.6 -30.46,3.03 -50.22,4.29l0 35.4 81.33 0c-2.58,21.07 -5.92,41.15 -10.05,60.3 -4.16,19.15 -10.37,36.05 -18.66,50.71 5.72,5.76 12.58,11.03 20.58,15.8 7.96,4.78 15.76,8.45 23.44,11.03 -5.11,3.79 -10.21,9.55 -15.31,17.18 -7.03,-4.45 -14.05,-9.39 -21.07,-14.82 -7.02,-5.43 -13.07,-10.69 -18.17,-15.8 -10.21,10.86 -23.6,21.4 -40.22,31.6 -4.45,-5.1 -9.55,-10.2 -15.31,-15.31 16.62,-6.37 31.28,-16.9 44.06,-31.6 -5.76,-10.82 -10.86,-23.27 -15.31,-37.31 -3.84,-13.4 -7.03,-32.54 -9.6,-57.41l-5.71 0c-0.66,32.54 -2.9,58.06 -6.7,76.55 -3.84,18.5 -10.21,35.73 -19.15,51.69 -6.37,-5.1 -12.12,-8.29 -17.23,-9.59 6.37,-7.64 11.8,-18.5 16.25,-32.54 4.49,-14.01 7.35,-29.03 8.62,-44.95 1.3,-16.58 1.92,-35.12 1.92,-55.53 0,-21.03 -0.62,-37.93 -1.92,-50.71 17.88,0.65 35.89,-0.33 54.05,-2.86 18.21,-2.57 32.71,-5.75 43.57,-9.55zm-167.48 5.71c-1.27,10.21 -1.92,19.81 -1.92,28.71l0 33.52 23.93 0 0 -45c0,-7.02 -0.29,-14.65 -0.94,-22.94l18.17 0c-0.62,6.98 -0.94,14.66 -0.94,22.94l0 45c7.63,0 14.33,-0.33 20.08,-0.98l0 16.29c-7.02,-0.66 -14.37,-0.98 -22,-0.98l-38.3 0 0 31.6 45.93 0c-0.61,8.9 -0.94,21.35 -0.94,37.32l0 59.32 -17.23 0c0.66,-22.33 0.98,-49.77 0.98,-82.31l-28.74 0c-0.61,14.7 -2.2,28.87 -4.78,42.58 -2.53,13.72 -6.69,27.93 -12.41,42.59 -4.49,-3.19 -10.53,-6.05 -18.21,-8.62 12.78,-22.33 19.15,-56.46 19.15,-102.39 0,-46.55 -0.33,-79.74 -0.94,-99.5 6.37,1.26 12.74,2.24 19.11,2.85zm110.07 71.78c1.92,17.23 4.45,32.87 7.64,46.87 3.84,14.7 7.96,25.85 12.45,33.52 8.94,-19.8 15.31,-46.58 19.15,-80.39l-39.24 0z"/>
  <path id="_1" class="fil0" d="M1462.01 349.38c14.04,0.65 27.11,0.94 39.23,0.94l74.64 0c-2.53,26.82 -6.86,49.93 -12.91,69.4 -6.08,19.44 -17.06,40.67 -33.03,63.62 7.68,10.2 16.91,18.49 27.77,24.9 10.86,6.37 23.27,11.8 37.32,16.25 -8.95,7.02 -14.34,13.39 -16.25,19.15 -14.7,-7.02 -27.11,-14.7 -37.32,-22.99 -10.21,-8.29 -18.21,-16.25 -23.93,-23.92 -8.29,9.59 -16.9,18.04 -25.84,25.35 -8.94,7.35 -21.4,15.8 -37.32,25.4 -2.57,-6.41 -7.67,-12.46 -15.31,-18.21 9.55,-3.19 20.42,-8.29 32.54,-15.31 12.13,-7.03 23.6,-17.23 34.42,-30.62 -5.72,-7.64 -11.47,-19.93 -17.19,-36.83 -5.76,-16.91 -10.21,-43.57 -13.43,-79.9l-13.39 0 0 -17.23zm-95.66 123.42c9.55,-10.21 17.51,-22.01 23.88,-35.4 6.41,-13.39 11.84,-28.37 16.29,-44.95 -10.86,0 -21.39,0.29 -31.6,0.94l0 -17.23c11.51,0.65 22.99,0.98 34.46,0.98 0,-26.82 -0.33,-44.67 -0.94,-53.61l21.03 0c-1.27,7.68 -1.88,25.52 -1.88,53.61 9.55,0 19.76,-0.33 30.62,-0.98l0 17.23c-10.86,-0.65 -21.07,-0.94 -30.62,-0.94l0 35.4c4.45,-2.57 9.23,-5.76 14.33,-9.6 11.47,15.32 18.82,26.83 22.01,34.46 -7.03,3.84 -12.46,7.68 -16.25,11.48 -3.19,-8.9 -9.88,-19.11 -20.09,-30.62l0 70.83c0,13.39 0.28,27.72 0.94,43.08l-21.07 0c1.31,-15.36 1.92,-29.69 1.92,-43.08l0 -70.83c-5.1,17.88 -14.66,36.7 -28.7,56.46 -3.84,-8.29 -8.62,-14.04 -14.33,-17.23zm127.26 -107.17c3.79,33.19 7.14,55.36 10.04,66.51 2.86,11.18 7.8,23.15 14.82,35.88 7.68,-11.47 14.99,-25.68 22.01,-42.58 7.02,-16.9 11.47,-36.83 13.39,-59.81l-60.26 0z"/>
  <path id="_2" class="fil0" d="M1740.09 354.15c-7.02,0.66 -26.78,3.19 -59.32,7.68l0 33.48 51.69 0c-0.66,14.66 -0.98,29.35 -0.98,44.01 0,14.05 0.32,25.52 0.98,34.46l-52.63 0c-0.65,11.47 -2.9,22.95 -6.7,34.46 -3.84,11.47 -8.94,23.6 -15.31,36.34 -5.1,-5.11 -10.86,-8.29 -17.23,-9.56 10.21,-15.31 16.42,-32.21 18.66,-50.71 2.21,-18.53 3.35,-39.23 3.35,-62.22 0,-22.94 -0.33,-47.2 -0.98,-72.71 34.46,-3.84 57.12,-8.62 67.94,-14.37 2.57,5.75 6.08,12.12 10.53,19.14zm111.01 0.98c-8.94,0.62 -19.47,1.76 -31.56,3.35 -12.12,1.59 -27.43,3.02 -45.93,4.29l0 45.93 54.51 0c8.94,0 18.53,-0.33 28.74,-0.94l0 17.19c-10.21,-0.61 -20.13,-0.94 -29.68,-0.94l0 85.17c0,12.74 0.32,24.25 0.94,34.46l-20.09 0c0.65,-11.52 0.98,-22.99 0.98,-34.46l0 -85.17 -35.4 0c-1.31,25.52 -3.84,45.44 -7.67,59.81 -3.84,14.34 -8.29,26.3 -13.4,35.89 -5.1,9.56 -11.8,19.15 -20.08,28.71 -4.49,-5.11 -9.88,-8.95 -16.29,-11.48 10.86,-10.2 19.47,-22.17 25.84,-35.89 6.37,-13.71 10.37,-29.02 11.96,-45.93 1.6,-16.9 2.41,-33.64 2.41,-50.26 0,-17.23 -0.32,-36.05 -0.98,-56.46 9.6,0 23.6,-1.1 42.1,-3.35 18.53,-2.21 33.19,-5.55 44.05,-10.04 3.18,7.02 6.37,13.71 9.55,20.12zm-135.87 102.36l0 -46.87 -34.46 0 0 46.87 34.46 0z"/>
  <path id="_3" class="fil0" d="M1908.14 462.31c14.66,-8.94 29.03,-20.58 43.08,-34.95 14,-14.33 26.78,-32.05 38.25,-53.12l-34.46 0c-8.9,0 -20.08,0.33 -33.47,0.98l0 -18.21c16.57,0.66 29.02,0.98 37.31,0.98l36.38 0c5.1,-15.31 7.96,-26.5 8.62,-33.48 9.55,2.53 17.18,4.45 22.94,5.72 -1.92,1.92 -5.1,11.19 -9.55,27.76l77.49 0c10.86,0 22.01,-0.32 33.48,-0.98l0 18.21c-11.47,-0.65 -21.68,-0.98 -30.62,-0.98l-86.11 0c-4.45,8.29 -9.23,16.62 -14.33,24.91l110.03 0c-0.65,15.92 -0.98,30.29 -0.98,43.03l0 77.53c0,8.94 -2.53,15.48 -7.63,19.6 -5.11,4.17 -15.97,6.86 -32.54,8.17 -0.66,-7.03 -2.86,-14.7 -6.7,-22.99 9.55,1.27 16.58,1.59 21.07,0.94 4.45,-0.61 6.69,-4.12 6.69,-10.49l0 -19.15 -99.54 0 0 50.71 -21.02 0c0.61,-15.97 0.94,-29.69 0.94,-41.16l0 -67.94c-13.39,15.31 -27.44,28.71 -42.1,40.22 -2.57,-4.49 -8.28,-9.6 -17.23,-15.31zm178.95 -21.07l0 -26.78 -99.54 0 0 26.78 99.54 0zm0 39.24l0 -23.93 -99.54 0 0 23.93 99.54 0z"/>
  <path class="fil0" d="M974.3 987.11l0 -25.07c-0.63,-12.19 3.04,-23.12 11.01,-32.81 7.97,-9.68 23.75,-21.4 47.34,-35.15 10.77,-6.25 18.27,-12.5 22.49,-18.75 3.91,-5.78 5.86,-13.12 5.86,-22.02 0,-8.59 -2.89,-15.55 -8.67,-20.86 -6.09,-5.62 -14.22,-8.43 -24.37,-8.43 -13.44,0 -26.87,5.46 -40.31,16.4l-11.48 -15.7c15.47,-13.28 32.81,-20.07 52.02,-20.39 16.56,0 30,4.38 40.31,13.13 10.31,8.74 15.46,20.38 15.46,34.91 0,13.12 -3.9,24.68 -11.71,34.68 -6.72,8.59 -17.5,17.34 -32.34,26.25 -18.43,11.09 -30.46,19.68 -36.09,25.77 -5.31,5.78 -7.96,12.73 -7.96,20.86l0 7.5 89.28 0 0 19.68 -110.84 0z"/>
  <path id="_1_17" class="fil0" d="M1179.29 972.82c12.03,-0.16 21.56,-6.72 28.59,-19.69 6.87,-13.12 10.39,-31.71 10.54,-55.77 0,-24.06 -3.51,-42.8 -10.54,-56.24 -6.88,-13.12 -16.41,-19.68 -28.59,-19.68 -12.19,0 -21.72,6.56 -28.59,19.68 -7.03,13.44 -10.54,32.18 -10.54,56.24 0.15,24.06 3.67,42.65 10.54,55.77 7.03,12.97 16.56,19.53 28.59,19.69zm0 -168.49c19.21,0 34.13,8.13 44.76,24.37 10.62,16.25 15.93,39.14 15.93,68.66 0,29.37 -5.31,52.18 -15.93,68.43 -10.63,16.09 -25.55,24.13 -44.76,24.13 -19.22,0 -34.13,-8.04 -44.76,-24.13 -10.62,-16.25 -15.93,-39.06 -15.93,-68.43 0,-29.52 5.31,-52.41 15.93,-68.66 10.63,-16.24 25.54,-24.37 44.76,-24.37z"/>
  <path id="_2_18" class="fil0" d="M1273.91 987.11l0 -25.07c-0.63,-12.19 3.04,-23.12 11.01,-32.81 7.97,-9.68 23.75,-21.4 47.34,-35.15 10.77,-6.25 18.27,-12.5 22.49,-18.75 3.91,-5.78 5.86,-13.12 5.86,-22.02 0,-8.59 -2.89,-15.55 -8.67,-20.86 -6.09,-5.62 -14.22,-8.43 -24.37,-8.43 -13.44,0 -26.87,5.46 -40.31,16.4l-11.48 -15.7c15.47,-13.28 32.81,-20.07 52.02,-20.39 16.56,0 30,4.38 40.31,13.13 10.31,8.74 15.46,20.38 15.46,34.91 0,13.12 -3.9,24.68 -11.71,34.68 -6.72,8.59 -17.5,17.34 -32.34,26.25 -18.43,11.09 -30.46,19.68 -36.09,25.77 -5.31,5.78 -7.96,12.73 -7.96,20.86l0 7.5 89.28 0 0 19.68 -110.84 0z"/>
  <path id="_3_19" class="fil0" d="M1478.9 972.82c12.03,-0.16 21.56,-6.72 28.59,-19.69 6.87,-13.12 10.39,-31.71 10.54,-55.77 0,-24.06 -3.51,-42.8 -10.54,-56.24 -6.88,-13.12 -16.41,-19.68 -28.59,-19.68 -12.19,0 -21.72,6.56 -28.59,19.68 -7.03,13.44 -10.54,32.18 -10.54,56.24 0.15,24.06 3.67,42.65 10.54,55.77 7.03,12.97 16.56,19.53 28.59,19.69zm0 -168.49c19.21,0 34.13,8.13 44.76,24.37 10.62,16.25 15.93,39.14 15.93,68.66 0,29.37 -5.31,52.18 -15.93,68.43 -10.63,16.09 -25.55,24.13 -44.76,24.13 -19.22,0 -34.13,-8.04 -44.76,-24.13 -10.62,-16.25 -15.93,-39.06 -15.93,-68.43 0,-29.52 5.31,-52.41 15.93,-68.66 10.63,-16.24 25.54,-24.37 44.76,-24.37z"/>
  <polygon id="_4" class="fil0" points="1578.67,906.03 1578.67,886.82 1655.77,886.82 1655.77,906.03 "/>
  <path id="_5" class="fil0" d="M1692.98 987.11l0 -25.07c-0.63,-12.19 3.04,-23.12 11.01,-32.81 7.97,-9.68 23.75,-21.4 47.34,-35.15 10.77,-6.25 18.27,-12.5 22.49,-18.75 3.91,-5.78 5.86,-13.12 5.86,-22.02 0,-8.59 -2.89,-15.55 -8.67,-20.86 -6.09,-5.62 -14.22,-8.43 -24.37,-8.43 -13.44,0 -26.87,5.46 -40.31,16.4l-11.48 -15.7c15.47,-13.28 32.81,-20.07 52.02,-20.39 16.56,0 30,4.38 40.31,13.13 10.31,8.74 15.46,20.38 15.46,34.91 0,13.12 -3.9,24.68 -11.71,34.68 -6.72,8.59 -17.5,17.34 -32.34,26.25 -18.43,11.09 -30.46,19.68 -36.09,25.77 -5.31,5.78 -7.96,12.73 -7.96,20.86l0 7.5 89.28 0 0 19.68 -110.84 0z"/>
  <path id="_6" class="fil0" d="M1897.97 972.82c12.03,-0.16 21.56,-6.72 28.59,-19.69 6.87,-13.12 10.39,-31.71 10.54,-55.77 0,-24.06 -3.51,-42.8 -10.54,-56.24 -6.88,-13.12 -16.41,-19.68 -28.59,-19.68 -12.19,0 -21.72,6.56 -28.59,19.68 -7.03,13.44 -10.54,32.18 -10.54,56.24 0.15,24.06 3.67,42.65 10.54,55.77 7.03,12.97 16.56,19.53 28.59,19.69zm0 -168.49c19.21,0 34.13,8.13 44.76,24.37 10.62,16.25 15.93,39.14 15.93,68.66 0,29.37 -5.31,52.18 -15.93,68.43 -10.63,16.09 -25.55,24.13 -44.76,24.13 -19.22,0 -34.13,-8.04 -44.76,-24.13 -10.62,-16.25 -15.93,-39.06 -15.93,-68.43 0,-29.52 5.31,-52.41 15.93,-68.66 10.63,-16.24 25.54,-24.37 44.76,-24.37z"/>
  <path id="_7" class="fil0" d="M1992.59 987.11l0 -25.07c-0.63,-12.19 3.04,-23.12 11.01,-32.81 7.97,-9.68 23.75,-21.4 47.34,-35.15 10.77,-6.25 18.27,-12.5 22.49,-18.75 3.91,-5.78 5.86,-13.12 5.86,-22.02 0,-8.59 -2.89,-15.55 -8.67,-20.86 -6.09,-5.62 -14.22,-8.43 -24.37,-8.43 -13.44,0 -26.87,5.46 -40.31,16.4l-11.48 -15.7c15.47,-13.28 32.81,-20.07 52.02,-20.39 16.56,0 30,4.38 40.31,13.13 10.31,8.74 15.46,20.38 15.46,34.91 0,13.12 -3.9,24.68 -11.71,34.68 -6.72,8.59 -17.5,17.34 -32.34,26.25 -18.43,11.09 -30.46,19.68 -36.09,25.77 -5.31,5.78 -7.96,12.73 -7.96,20.86l0 7.5 89.28 0 0 19.68 -110.84 0z"/>
  <path id="_8" class="fil0" d="M2211.64 987.11l0 -34.21 -82.96 0 0 -13.59 86.94 -132.4 16.64 0 0 126.07 23.66 0 0 19.92 -23.19 0 0 34.21 -21.09 0zm-55.31 -54.13l56.01 0 0 -87.87 -56.01 87.87z"/>
  <g id="_2620832394992">
   <g p-id="3420">
    <path class="fil1" d="M569.97 395.64c35.4,0 69.72,6.91 101.98,20.58 31.19,13.17 59.25,32.11 83.32,56.18 24.07,24.07 43.01,52.13 56.18,83.32 13.67,32.26 20.58,66.58 20.58,101.97 0,35.4 -6.91,69.72 -20.58,101.98 -13.17,31.19 -32.11,59.25 -56.18,83.32 -24.07,24.07 -52.13,43.01 -83.32,56.18 -32.26,13.67 -66.58,20.58 -101.98,20.58 -35.39,0 -69.71,-6.91 -101.97,-20.58 -31.19,-13.17 -59.25,-32.11 -83.32,-56.18 -24.07,-24.07 -43.01,-52.13 -56.18,-83.32 -13.67,-32.26 -20.58,-66.58 -20.58,-101.98 0,-35.39 6.91,-69.71 20.58,-101.97 13.17,-31.19 32.11,-59.25 56.18,-83.32 24.07,-24.07 52.13,-43.01 83.32,-56.18 32.26,-13.67 66.58,-20.58 101.97,-20.58l0 0zm0 -56.97c-176.17,0 -319.02,142.85 -319.02,319.02 0,176.18 142.85,319.03 319.02,319.03 176.18,0 319.03,-142.85 319.03,-319.03 0,-176.17 -142.85,-319.02 -319.03,-319.02z"/>
   </g>
   <path class="fil1" d="M659.99 737.95c-20.44,20.37 -48.57,32.97 -79.62,32.97 -62.17,0 -112.73,-50.56 -112.73,-112.73 0,-62.16 50.56,-112.72 112.73,-112.72 30.98,0 59.04,12.53 79.4,32.82l49.35 -49.34c-34.39,-34.4 -80.11,-53.27 -128.75,-53.27 -48.78,0 -94.57,19.01 -129.03,53.48 -34.47,34.39 -53.48,80.25 -53.48,128.96 0,48.78 19.01,94.57 53.48,129.04 34.46,34.46 80.32,53.48 129.03,53.48 48.71,0 94.5,-18.95 128.97,-53.34l-49.35 -49.35 0 0z" p-id="3421"/>
  </g>
 </g>
</svg>
