<?xml version="1.0" encoding="UTF-8"?>
<svg id="Layer_2" data-name="Layer 2" xmlns="http://www.w3.org/2000/svg" viewBox="0 0 85 45.8">
  <defs>
    <style>
      .cls-1 {
        fill: #0a108f;
      }

      .cls-1, .cls-2, .cls-3, .cls-4, .cls-5, .cls-6 {
        stroke-width: 0px;
      }

      .cls-7 {
        isolation: isolate;
      }

      .cls-2 {
        fill: #d7d7d8;
      }

      .cls-3 {
        fill: #50dd8c;
      }

      .cls-4 {
        fill: #282828;
      }

      .cls-5 {
        fill: #0473ea;
      }

      .cls-6 {
        fill: #525355;
      }
    </style>
  </defs>
  <g id="text">
    <path class="cls-4" d="m1.5,39.1l.4.5c.8,1.1,2.4,1.4,3.5.6l11.6-8.4c1.1-.8,1.4-2.4.6-3.5l-.4-.5c-.8-1.1-2.4-1.4-3.5-.6l-11.6,8.4c-1.2.8-1.4,2.3-.6,3.5Z"/>
    <path class="cls-5" d="m15.8,32.7l2.2-1.6c.6-.4.7-1.2.3-1.8L7.3,13.7c-.4-.6-1.2-.7-1.8-.3l-2.2,1.6c-.6.4-.7,1.2-.3,1.8l11.1,15.5c.3.7,1.1.8,1.7.4Z"/>
    <path class="cls-3" d="m2.6,16.4l.4.5c.8,1.1,2.4,1.4,3.5.6l10-7.2c1.1-.8,1.4-2.4.6-3.5l-.4-.5c-.8-1.1-2.4-1.4-3.5-.6L3.2,12.9c-1.2.8-1.4,2.4-.6,3.5Z"/>
    <circle class="cls-5" cx="4.8" cy="15.2" r="1"/>
    <circle class="cls-4" cx="15.3" cy="29.6" r="1"/>
    <g class="cls-7">
      <path class="cls-1" d="m5.18,15.32s.05.1.05.17c0,.07-.02.13-.05.18s-.09.09-.15.11c-.06.03-.13.04-.21.04-.1,0-.18-.02-.25-.07s-.12-.11-.15-.2l.21-.12s.04.09.07.11c.03.03.07.04.11.04s.08-.01.1-.03c.03-.02.04-.05.04-.09,0-.09-.07-.13-.22-.13h-.04v-.21h.06s.09-.01.12-.04c.03-.02.04-.05.04-.09,0-.03-.01-.06-.03-.08-.02-.02-.05-.03-.09-.03-.04,0-.07.01-.1.04-.03.03-.05.06-.07.11l-.2-.11c.03-.09.08-.16.14-.2s.15-.07.25-.07c.07,0,.14.01.2.04.06.03.1.06.13.11.03.05.05.1.05.17,0,.06-.01.11-.04.15s-.07.08-.12.1c.06.02.11.06.14.1Z"/>
    </g>
    <g class="cls-7">
      <path class="cls-2" d="m15.36,29.31h-.49v-.23h.78v.17l-.38.97h-.29l.37-.9Z"/>
    </g>
  </g>
  <g class="cls-7">
    <path class="cls-5" d="m18.33,7.1h6.73v1.47h-2.53v6.87h-1.66v-6.87h-2.53v-1.47Z"/>
  </g>
  <g class="cls-7">
    <path class="cls-6" d="m30.81,10.04c.38.43.58,1.05.58,1.88v3.53h-1.58v-3.02c0-1.08-.36-1.62-1.07-1.62-.38,0-.69.15-.92.44-.23.29-.35.71-.35,1.24v2.96h-1.58V6.77h1.58v3.56c.38-.62.98-.93,1.8-.93.65,0,1.16.21,1.54.64Z"/>
    <path class="cls-6" d="m32.89,8.5c-.19-.19-.28-.42-.28-.68s.09-.49.27-.68c.18-.19.4-.29.66-.29s.48.1.67.29c.19.19.28.42.28.68s-.1.48-.28.68c-.19.19-.41.29-.67.29s-.47-.1-.66-.29Zm1.46,6.95h-1.58v-5.91h1.58v5.91Z"/>
    <path class="cls-6" d="m38.82,9.4c.24,0,.44.04.62.14v1.41c-.19-.11-.41-.17-.66-.17-.91,0-1.37.64-1.37,1.93v2.75h-1.58v-5.91h1.39c.04.46.07.76.09.9.32-.7.82-1.05,1.52-1.05Zm5.81,5.71c-.39.32-.92.48-1.61.48-.64,0-1.15-.17-1.54-.51-.39-.34-.59-.94-.59-1.82v-2.38h-1v-1.33h1v-1.81h1.58v1.81h1.77v1.33h-1.77v2.12c0,.4.07.71.21.91.14.2.35.3.65.3.27,0,.52-.08.75-.24l.55,1.14Z"/>
    <path class="cls-6" d="m49.4,9.54h1.65l-2.66,6.68c-.28.71-.61,1.22-.99,1.53s-.85.47-1.41.47c-.27,0-.53-.04-.77-.12-.24-.08-.45-.19-.62-.33l.63-1.21c.23.17.48.25.75.25.17,0,.32-.04.45-.11.12-.07.25-.2.36-.38.11-.18.25-.44.4-.79l-2.56-6.01h1.78l1.56,4.07,1.42-4.07Z"/>
  </g>
  <g class="cls-7">
    <path class="cls-5" d="m57.21,14.46c-.29.38-.67.67-1.14.85-.47.18-.97.27-1.5.27-.77,0-1.47-.18-2.1-.54-.62-.36-1.04-.87-1.24-1.53l1.35-.76c.18.43.45.76.8.99s.77.35,1.25.35c.39,0,.71-.08.94-.24.23-.16.35-.39.35-.7,0-.24-.08-.45-.23-.6-.16-.16-.35-.29-.58-.38-.23-.09-.55-.2-.95-.32-.54-.16-.98-.32-1.32-.47-.34-.16-.63-.39-.88-.7-.24-.31-.37-.72-.37-1.23,0-.54.14-1,.43-1.37s.66-.66,1.13-.84c.47-.19.97-.28,1.51-.28.74,0,1.37.17,1.89.5.52.33.86.79,1.01,1.36l-1.35.76c-.14-.36-.34-.64-.62-.84-.27-.2-.62-.3-1.03-.3-.37,0-.67.09-.91.26-.23.17-.35.4-.35.68,0,.21.07.39.22.53s.33.25.55.34c.22.09.53.19.91.3.55.16,1,.32,1.36.48.36.16.66.41.92.73s.38.75.38,1.27c0,.57-.15,1.05-.44,1.43Z"/>
  </g>
  <g class="cls-7">
    <path class="cls-6" d="m62.6,9.74c.41.23.72.56.95.98.22.42.34.91.34,1.45,0,.24-.02.49-.07.74h-3.92c.07.44.23.77.48,1,.25.22.56.34.93.34.27,0,.5-.06.71-.18.21-.12.37-.29.49-.53l1.16.68c-.16.43-.47.77-.92,1-.45.24-.96.35-1.51.35s-1.03-.12-1.48-.35-.82-.59-1.1-1.06c-.28-.47-.42-1.04-.42-1.7s.14-1.21.42-1.68c.28-.46.64-.81,1.09-1.05.45-.24.93-.35,1.46-.35s.99.12,1.4.35Zm-2.24,1.24c-.22.2-.37.48-.44.83h2.35c-.03-.36-.15-.64-.35-.84-.2-.19-.45-.29-.76-.29s-.58.1-.8.3Z"/>
    <path class="cls-6" d="m65.84,9.54l1.53,3.9,1.42-3.9h1.65l-2.5,5.89h-1.29l-2.58-5.89h1.76Z"/>
    <path class="cls-6" d="m74.91,9.74c.41.23.72.56.95.98.22.42.34.91.34,1.45,0,.24-.02.49-.07.74h-3.92c.07.44.23.77.48,1,.25.22.56.34.93.34.27,0,.5-.06.71-.18.21-.12.37-.29.49-.53l1.16.68c-.16.43-.47.77-.92,1-.45.24-.96.35-1.51.35s-1.03-.12-1.48-.35-.82-.59-1.1-1.06c-.28-.47-.42-1.04-.42-1.7s.14-1.21.42-1.68c.28-.46.64-.81,1.09-1.05.45-.24.93-.35,1.46-.35s.99.12,1.4.35Zm-2.24,1.24c-.22.2-.37.48-.44.83h2.35c-.03-.36-.15-.64-.35-.84-.2-.19-.45-.29-.76-.29s-.58.1-.8.3Z"/>
    <path class="cls-6" d="m82.18,10.04c.38.43.57,1.05.57,1.88v3.53h-1.58v-3.02c0-1.08-.36-1.62-1.07-1.62-.38,0-.69.15-.92.44-.23.29-.35.71-.35,1.24v2.96h-1.58v-5.91h1.39c.04.46.07.78.1.95.38-.73,1.01-1.09,1.89-1.09.65,0,1.17.21,1.55.64Z"/>
  </g>
  <g class="cls-7">
    <path class="cls-6" d="m24.79,18.99l1.73,5.61,1.6-5.61h1.6l-2.6,8.34h-1.28l-1.76-5.45-1.7,5.45h-1.27l-2.71-8.34h1.71l1.71,5.61,1.64-5.61h1.32Z"/>
    <path class="cls-6" d="m29.84,22.76c.28-.47.65-.83,1.11-1.09.46-.25.96-.38,1.5-.38s1.03.13,1.49.38c.46.25.83.62,1.11,1.09.28.47.42,1.01.42,1.63s-.14,1.16-.42,1.63c-.28.47-.65.83-1.11,1.08-.46.25-.96.38-1.49.38s-1.04-.12-1.5-.38c-.46-.25-.83-.61-1.11-1.08s-.42-1.01-.42-1.63.14-1.16.42-1.63Zm1.62,2.88c.26.31.59.46.99.46s.72-.15.98-.46c.26-.31.39-.72.39-1.25s-.13-.94-.39-1.25c-.26-.31-.59-.47-.98-.47s-.72.16-.99.47-.39.73-.39,1.25.13.94.39,1.25Z"/>
    <path class="cls-6" d="m40.39,21.39c.2.07.35.16.46.26l-.62,1.22c-.2-.14-.42-.21-.67-.21-.41,0-.74.17-.99.51s-.37.81-.37,1.41v2.75h-1.58v-5.91h1.39c.04.46.07.77.1.93.17-.36.4-.63.68-.81.28-.18.6-.27.96-.27.23,0,.44.03.64.1Z"/>
    <path class="cls-6" d="m43.1,27.34h-1.58v-8.67h1.58v8.67Z"/>
    <path class="cls-6" d="m48.68,18.66h1.58v8.67h-1.39c-.04-.44-.07-.74-.09-.89-.21.34-.47.6-.8.77-.33.17-.69.26-1.08.26-.49,0-.93-.12-1.33-.36s-.73-.6-.97-1.07-.37-1.02-.37-1.66.12-1.2.37-1.67c.24-.47.57-.82.97-1.07s.85-.36,1.33-.36c.36,0,.69.07,1,.22.31.14.57.37.78.66v-3.5Zm-.41,7.02c.27-.29.41-.72.41-1.3s-.14-.99-.41-1.27c-.27-.28-.61-.42-1-.42-.42,0-.75.15-1.01.44-.25.3-.38.71-.38,1.24s.13.95.38,1.26c.25.31.59.47,1.01.47.4,0,.73-.14,1-.43Z"/>
    <path class="cls-6" d="m51.66,24.56v-1.32h4.28v1.32h-4.28Z"/>
    <path class="cls-6" d="m57.48,18.99h5.44v1.45h-3.79v2.13h3.39v1.44h-3.39v3.33h-1.65v-8.34Z"/>
    <path class="cls-6" d="m64.06,20.39c-.19-.19-.28-.42-.28-.68s.09-.49.27-.68c.18-.19.4-.29.66-.29s.48.1.67.29c.19.19.29.42.29.68s-.1.48-.29.68c-.19.19-.41.29-.67.29s-.47-.1-.66-.29Zm1.46,6.95h-1.58v-5.91h1.58v5.91Z"/>
    <path class="cls-6" d="m68.58,27.34h-1.58v-8.67h1.58v8.67Z"/>
    <path class="cls-6" d="m74.07,21.63c.41.23.72.56.95.98.22.42.34.91.34,1.45,0,.24-.02.49-.07.74h-3.92c.07.44.23.77.48,1,.25.22.56.34.93.34.27,0,.5-.06.71-.18.21-.12.37-.29.49-.53l1.16.68c-.16.43-.47.77-.92,1-.45.24-.96.35-1.51.35s-1.03-.12-1.48-.35-.82-.59-1.1-1.06c-.28-.47-.42-1.04-.42-1.7s.14-1.21.42-1.68c.28-.46.64-.81,1.09-1.05.45-.24.93-.35,1.46-.35s.99.12,1.4.35Zm-2.24,1.24c-.22.2-.37.48-.44.83h2.35c-.03-.36-.15-.64-.35-.84-.2-.19-.45-.29-.76-.29s-.58.1-.8.3Z"/>
    <path class="cls-6" d="m80.2,26.97c-.45.34-1.04.51-1.76.51-.62,0-1.16-.13-1.61-.4-.45-.27-.76-.63-.92-1.11l1.15-.67c.11.28.29.5.54.66.24.16.53.23.86.23.24,0,.44-.05.58-.14s.22-.22.22-.39c0-.19-.1-.34-.29-.44-.19-.1-.49-.21-.89-.33-.4-.12-.73-.24-.99-.35-.25-.11-.48-.28-.66-.5-.19-.22-.28-.5-.28-.85,0-.4.11-.74.32-1.03.22-.29.51-.51.87-.66.37-.15.76-.23,1.2-.23.59,0,1.09.13,1.5.38.41.25.67.59.78,1.01l-1.15.65c-.23-.49-.61-.74-1.15-.74-.23,0-.41.04-.55.13-.14.09-.21.21-.21.37,0,.18.09.32.27.42.18.09.47.2.86.3.41.11.75.23,1.01.34.27.11.49.29.68.52.19.23.29.54.29.92,0,.59-.23,1.05-.68,1.39Z"/>
  </g>
  <g class="cls-7">
    <path class="cls-6" d="m19.09,38.5h10.12v1.03h-10.12v-1.03Zm9.28-7.36v1.03h-8.39v-1.03h8.39Zm-.66,4.59h-7.12v-1.03h7.12v1.03Z"/>
    <path class="cls-6" d="m35.68,40c-.72,0-1.08-.41-1.08-1.22v-3.98l-3.56.47-.09-1.08,3.66-.47v-3.33h1.03c.31.06.33.19.05.38v2.81l5.39-.75.09,1.08-5.48.75v3.94c0,.25.12.38.38.38h2.91c.47,0,.78-.52.94-1.55l1.08.42c-.28,1.44-.81,2.16-1.59,2.16h-3.7Z"/>
    <path class="cls-6" d="m43.46,40.52l-.42-1.12c1.66-.47,3.14-1.27,4.45-2.39-1.09-1.19-1.83-2.56-2.2-4.12h-2.25v-.89h4.5v-1.78h1.03c.31.06.33.19.05.38v1.41h4.55v.89h-2.2c-.25,1.47-.91,2.84-1.97,4.12,1.09.97,2.55,1.69,4.36,2.16l-.42,1.12c-1.59-.41-3.14-1.25-4.64-2.53-1.56,1.34-3.17,2.27-4.83,2.77Zm6.52-7.64h-3.66c.19,1.06.83,2.19,1.92,3.38.94-1.12,1.52-2.25,1.73-3.38Z"/>
    <path class="cls-6" d="m57.24,40.66h-.94v-5.81c-.22.41-.5.81-.84,1.22l-.75-.84c1.19-1.38,1.89-3.11,2.11-5.2l.98.19c.22.06.22.14,0,.23-.19,1.03-.41,1.91-.66,2.62l.19.05c.09.09.06.19-.09.28v7.27Zm2.62-7.97h1.45v-2.58h.89c.25.03.27.12.05.28v2.3h2.3v.89h-2.3v2.34h3.23v.89h-3.23v3.8h-.94v-3.8h-3.47v-.89h3.47v-2.34h-1.73c-.31.84-.69,1.52-1.12,2.02l-.8-.75c.91-1.16,1.41-2.48,1.5-3.98l1.12.28c.12.12.08.2-.14.23-.03.22-.12.66-.28,1.31Z"/>
  </g>
</svg>