<?xml version="1.0" encoding="UTF-8"?>
<!DOCTYPE svg PUBLIC "-//W3C//DTD SVG 1.1//EN" "http://www.w3.org/Graphics/SVG/1.1/DTD/svg11.dtd">
<!-- Creator: CorelDRAW -->
<svg xmlns="http://www.w3.org/2000/svg" xml:space="preserve" width="25.4mm" height="12.7mm" version="1.1" style="shape-rendering:geometricPrecision; text-rendering:geometricPrecision; image-rendering:optimizeQuality; fill-rule:evenodd; clip-rule:evenodd"
viewBox="0 0 2540 1270"
 xmlns:xlink="http://www.w3.org/1999/xlink"
 xmlns:xodm="http://www.corel.com/coreldraw/odm/2003"
 data-name="å¾å± 1">
 <defs>
  <style type="text/css">
   <![CDATA[
    .fil0 {fill:#263238;fill-rule:nonzero}
    .fil2 {fill:#40C4FF;fill-rule:nonzero}
    .fil1 {fill:#FF5252;fill-rule:nonzero}
   ]]>
  </style>
 </defs>
 <g id="圖層_x0020_1">
  <metadata id="CorelCorpID_0Corel-Layer"/>
  <path class="fil0" d="M938.14 1020.23l0 -24.78c-0.62,-12.03 3.01,-22.84 10.88,-32.41 7.87,-9.56 23.46,-21.14 46.77,-34.72 10.64,-6.17 18.05,-12.35 22.22,-18.52 3.86,-5.71 5.79,-12.96 5.79,-21.76 0,-8.49 -2.86,-15.36 -8.57,-20.6 -6.02,-5.56 -14.04,-8.34 -24.07,-8.34 -13.28,0 -26.55,5.4 -39.82,16.21l-11.35 -15.51c15.28,-13.12 32.41,-19.84 51.4,-20.14 16.36,0 29.63,4.32 39.81,12.96 10.19,8.64 15.28,20.14 15.28,34.49 0,12.97 -3.85,24.39 -11.57,34.26 -6.64,8.49 -17.29,17.14 -31.95,25.93 -18.21,10.96 -30.09,19.45 -35.65,25.47 -5.25,5.71 -7.87,12.58 -7.87,20.6l0 7.41 88.2 0 0 19.45 -109.5 0z"/>
  <path id="_1" class="fil0" d="M1140.66 1006.1c11.88,-0.15 21.3,-6.63 28.24,-19.44 6.79,-12.97 10.27,-31.33 10.42,-55.1 0,-23.77 -3.47,-42.29 -10.42,-55.56 -6.79,-12.96 -16.2,-19.45 -28.24,-19.45 -12.04,0 -21.45,6.49 -28.24,19.45 -6.95,13.27 -10.42,31.79 -10.42,55.56 0.15,23.77 3.63,42.13 10.42,55.1 6.94,12.81 16.36,19.29 28.24,19.44zm0 -166.44c18.98,0 33.72,8.02 44.22,24.07 10.49,16.05 15.74,38.66 15.74,67.83 0,29.02 -5.25,51.55 -15.74,67.6 -10.5,15.9 -25.24,23.84 -44.22,23.84 -18.98,0 -33.72,-7.94 -44.22,-23.84 -10.49,-16.05 -15.74,-38.58 -15.74,-67.6 0,-29.17 5.25,-51.78 15.74,-67.83 10.5,-16.05 25.24,-24.07 44.22,-24.07z"/>
  <path id="_2" class="fil0" d="M1234.14 1020.23l0 -24.78c-0.62,-12.03 3.01,-22.84 10.88,-32.41 7.87,-9.56 23.46,-21.14 46.77,-34.72 10.64,-6.17 18.05,-12.35 22.22,-18.52 3.86,-5.71 5.79,-12.96 5.79,-21.76 0,-8.49 -2.86,-15.36 -8.57,-20.6 -6.02,-5.56 -14.04,-8.34 -24.07,-8.34 -13.28,0 -26.55,5.4 -39.82,16.21l-11.35 -15.51c15.28,-13.12 32.41,-19.84 51.4,-20.14 16.36,0 29.63,4.32 39.81,12.96 10.19,8.64 15.28,20.14 15.28,34.49 0,12.97 -3.85,24.39 -11.57,34.26 -6.64,8.49 -17.29,17.14 -31.95,25.93 -18.21,10.96 -30.09,19.45 -35.65,25.47 -5.25,5.71 -7.87,12.58 -7.87,20.6l0 7.41 88.2 0 0 19.45 -109.5 0z"/>
  <path id="_3" class="fil0" d="M1450.55 1020.23l0 -33.8 -81.95 0 0 -13.43 85.89 -130.8 16.43 0 0 124.55 23.38 0 0 19.68 -22.91 0 0 33.8 -20.84 0zm-54.63 -53.48l55.33 0 0 -86.81 -55.33 86.81z"/>
  <path id="_4" class="fil0" d="M1590.57 1006.1c11.88,-0.15 21.3,-6.63 28.24,-19.44 6.79,-12.97 10.27,-31.33 10.42,-55.1 0,-23.77 -3.47,-42.29 -10.42,-55.56 -6.79,-12.96 -16.2,-19.45 -28.24,-19.45 -12.04,0 -21.45,6.49 -28.24,19.45 -6.95,13.27 -10.42,31.79 -10.42,55.56 0.15,23.77 3.63,42.13 10.42,55.1 6.94,12.81 16.36,19.29 28.24,19.44zm0 -166.44c18.98,0 33.72,8.02 44.22,24.07 10.49,16.05 15.74,38.66 15.74,67.83 0,29.02 -5.25,51.55 -15.74,67.6 -10.5,15.9 -25.24,23.84 -44.22,23.84 -18.98,0 -33.72,-7.94 -44.22,-23.84 -10.49,-16.05 -15.74,-38.58 -15.74,-67.6 0,-29.17 5.25,-51.78 15.74,-67.83 10.5,-16.05 25.24,-24.07 44.22,-24.07z"/>
  <path id="_5" class="fil0" d="M1764.15 1020.23l0 -33.8 -81.95 0 0 -13.43 85.89 -130.8 16.43 0 0 124.55 23.38 0 0 19.68 -22.91 0 0 33.8 -20.84 0zm-54.63 -53.48l55.33 0 0 -86.81 -55.33 86.81z"/>
  <path id="_6" class="fil0" d="M1842.59 1020.23l0 -24.78c-0.62,-12.03 3.01,-22.84 10.88,-32.41 7.87,-9.56 23.46,-21.14 46.77,-34.72 10.64,-6.17 18.05,-12.35 22.22,-18.52 3.86,-5.71 5.79,-12.96 5.79,-21.76 0,-8.49 -2.86,-15.36 -8.57,-20.6 -6.02,-5.56 -14.04,-8.34 -24.07,-8.34 -13.28,0 -26.55,5.4 -39.82,16.21l-11.35 -15.51c15.28,-13.12 32.41,-19.84 51.4,-20.14 16.36,0 29.63,4.32 39.81,12.96 10.19,8.64 15.28,20.14 15.28,34.49 0,12.97 -3.85,24.39 -11.57,34.26 -6.64,8.49 -17.29,17.14 -31.95,25.93 -18.21,10.96 -30.09,19.45 -35.65,25.47 -5.25,5.71 -7.87,12.58 -7.87,20.6l0 7.41 88.2 0 0 19.45 -109.5 0z"/>
  <path id="_7" class="fil0" d="M2024.74 1020.23l0 -147.47c-10.96,9.57 -23.77,16.28 -38.43,20.14l0 -22.46c16.67,-4.63 31.79,-13.96 45.37,-28.01l14.13 0 0 177.8 -21.07 0z"/>
  <path id="_8" class="fil0" d="M2151.79 1003.56c10.8,0 19.67,-3.4 26.62,-10.19 7.25,-7.1 10.88,-16.67 10.88,-28.7 0,-12.04 -2.78,-21.38 -8.34,-28.02 -5.86,-6.94 -14.27,-10.41 -25.23,-10.41 -6.17,0 -12.19,1 -18.06,3.01 -6.32,2.16 -11.57,5.32 -15.74,9.49l-16.43 -3.01 7.4 -93.3 87.28 0 0 19.45 -68.06 0 -5.33 57.64c8.95,-7.1 20.14,-10.65 33.57,-10.65 14.66,0 26.7,5.17 36.11,15.51 9.26,10.19 13.89,23.15 13.89,38.9 0,17.44 -5.24,31.71 -15.74,42.82 -10.65,11.27 -24.77,16.9 -42.36,16.9 -20.99,0 -38.28,-6.48 -51.86,-19.44l10.88 -16.44c12.04,10.96 25.54,16.44 40.52,16.44z"/>
  <path id="_9" class="fil0" d="M2304.53 1006.1c11.88,-0.15 21.3,-6.63 28.24,-19.44 6.79,-12.97 10.27,-31.33 10.42,-55.1 0,-23.77 -3.47,-42.29 -10.42,-55.56 -6.79,-12.96 -16.2,-19.45 -28.24,-19.45 -12.04,0 -21.45,6.49 -28.24,19.45 -6.95,13.27 -10.42,31.79 -10.42,55.56 0.15,23.77 3.63,42.13 10.42,55.1 6.94,12.81 16.36,19.29 28.24,19.44zm0 -166.44c18.98,0 33.72,8.02 44.22,24.07 10.49,16.05 15.74,38.66 15.74,67.83 0,29.02 -5.25,51.55 -15.74,67.6 -10.5,15.9 -25.24,23.84 -44.22,23.84 -18.98,0 -33.72,-7.94 -44.22,-23.84 -10.49,-16.05 -15.74,-38.58 -15.74,-67.6 0,-29.17 5.25,-51.78 15.74,-67.83 10.5,-16.05 25.24,-24.07 44.22,-24.07z"/>
  <path class="fil0" d="M1361.69 506.47l48.48 0 0 12.18 -107.97 0 0 -12.18 45.2 0 0 -13.35 -31.85 0 0 -11.95 76.82 0 0 11.95 -30.68 0 0 13.35zm-53.16 73.31l0 -48.02 90.17 0 0 46.38 -14.99 0 0 -34.43 -60.2 0 0 36.07 -14.98 0zm50.12 -5.16c11.24,5.16 28.41,13.43 51.52,24.83l-6.09 14.05c-28.1,-14.83 -45.12,-23.73 -51.06,-26.7 -7.8,12.49 -25.6,21.63 -53.39,27.41l-6.33 -14.06c21.24,-4.06 35.52,-9.76 42.86,-17.09 7.34,-7.19 10.85,-18.04 10.54,-32.56l15.46 0c-0.47,9.99 -1.64,18.03 -3.51,24.12zm-81.74 -59.25l0 -16.4 -46.61 0 0 16.4 46.61 0zm0 27.64l0 -16.17 -46.61 0 0 16.17 46.61 0zm-30.92 12.17l-29.28 0 0 -68.39 74.02 0 0 68.39 -29.75 0 0 17.1 38.18 0 0 13.35 -38.18 0 0 28.34 -14.99 0 0 -28.34 -41.22 0 0 -13.35 41.22 0 0 -17.1zm18.97 -132.79l29.04 0 0 12.64 -81.5 0 0 -12.64 35.13 0c-1.72,-5.94 -3.43,-11.95 -5.15,-18.04l16.16 -2.34c2.03,5.47 4.14,12.26 6.32,20.38zm9.14 37.71l23.65 0 0 12.64 -90.4 0 0 -12.64 24.59 0c-2.97,-6.56 -6.25,-13.04 -9.84,-19.44l13.12 -3.05c3.9,7.5 7.73,14.99 11.47,22.49l12.89 0c4.05,-7.5 8.04,-14.99 11.94,-22.49l13.58 2.81c-2.81,5.31 -6.48,11.87 -11,19.68zm95.79 -4.22c11.24,4.22 25.53,7.49 42.86,9.84l-4.92 12.88c-20.77,-3.75 -37.79,-8.67 -51.06,-14.76 -12.96,6.72 -29.98,12.49 -51.06,17.33l-5.38 -12.41c18.27,-3.59 32.47,-7.73 42.62,-12.41 -7.49,-4.53 -14.36,-10.15 -20.61,-16.87 -3.59,3.75 -7.96,7.97 -13.11,12.65l-9.37 -9.83c13.74,-10.78 25.45,-24.13 35.13,-40.05l14.76 2.81c-4.38,6.24 -7.42,10.54 -9.14,12.88l57.15 0 0 13.11c-9.37,10.31 -18.66,18.58 -27.87,24.83zm-14.05 -6.32c7.96,-4.84 16.08,-11.4 24.35,-19.68l-49.18 0 -0.24 0.24c7.81,8.27 16.17,14.75 25.07,19.44z"/>
  <path id="_1_13" class="fil0" d="M1985.04 551.91l0 -24.83 -49.41 0 0 24.83 49.41 0zm0 37.94l0 -24.36 -49.41 0 0 24.36 49.41 0zm66.28 -37.94l0 -24.83 -49.88 0 0 24.83 49.88 0zm0 37.94l0 -24.36 -49.88 0 0 24.36 49.88 0zm0 14.28l-115.69 0 0 10.08 -17.57 0 0 -101.18 150.83 0 0 101.18 -17.57 0 0 -10.08zm-36.3 -126.94c21.86,7.18 49.26,12.1 82.21,14.76l-5.39 17.09c-40.75,-4.84 -73.07,-12.33 -96.96,-22.48 -24.98,10.31 -58.4,19.21 -100.24,26.7l-5.39 -16.16c34.2,-5.15 63,-11.87 86.43,-20.14 -13.43,-7.81 -25.69,-17.57 -36.78,-29.28 -10.46,10.31 -20.92,19.36 -31.38,27.17l-11.48 -12.65c25.77,-18.73 45.52,-38.88 59.26,-60.42l18.27 3.74c-2.19,3.13 -6.17,8.67 -11.95,16.63l107.74 0 0 14.99c-15.77,16.08 -33.88,29.43 -54.34,40.05zm-19.91 -7.96c19.21,-8.74 35.84,-19.6 49.89,-32.56l-95.56 0c12.65,13.59 27.87,24.44 45.67,32.56z"/>
  <polygon id="_2_14" class="fil0" points="1446.94,419.34 1468.26,419.34 1468.26,599.22 1446.94,599.22 "/>
  <path id="_3_15" class="fil0" d="M1599.36 602.03c-24.98,0 -45.44,-7.26 -61.36,-21.79 -17.65,-16.23 -26.55,-39.26 -26.7,-69.09 -0.16,-29.35 8.59,-52.69 26.23,-70.03 17.18,-16.7 39.74,-25.06 67.69,-25.06 16.55,0 31.54,3.91 44.96,11.71l-7.02 17.1c-12.02,-6.09 -24.59,-9.13 -37.71,-9.13 -21.23,0 -38.25,6.16 -51.06,18.5 -13.58,13.12 -20.37,31.15 -20.37,54.1 0,25.61 7.1,44.81 21.31,57.62 12.18,11.08 28.34,16.63 48.48,16.63 13.9,0 27.01,-2.58 39.35,-7.73l6.79 16.16c-12.65,7.34 -29.51,11.01 -50.59,11.01z"/>
  <path id="_4_16" class="fil0" d="M1689.71 419.34l58.32 0c19.83,0 34.98,4.76 45.44,14.29 10.15,9.21 15.22,22.25 15.22,39.11 0,18.27 -6.09,32.64 -18.27,43.1 -11.55,9.99 -26.93,14.99 -46.14,14.99l-33.25 0 0 68.39 -21.32 0 0 -179.88zm21.32 92.75l30.91 0c14.37,0 25.37,-3.28 33.03,-9.84 7.49,-6.4 11.24,-15.77 11.24,-28.1 0,-12.03 -3.59,-21.16 -10.78,-27.4 -7.02,-6.09 -17.41,-9.14 -31.15,-9.14l-33.25 0 0 74.48z"/>
  <g id="_2620649226352">
   <g>
    <path class="fil1" d="M606.97 1095.73c-2.68,-9.53 -8.13,-17.81 -12.05,-26.8 -5.42,-12.48 -11.59,-24.62 -17.37,-36.94 -0.73,-1.54 -1.96,-2.97 -1.69,-5.24 36.16,0.41 70.77,-7.06 104.47,-21.68 -0.39,8.89 -0.74,17.14 -1.13,25.39 -0.71,15.57 -1.54,31.13 -2.1,46.71 -0.12,3.38 -1.44,4.36 -4.6,5 -19.74,4.01 -39.44,8.28 -59.16,12.46 -0.82,0.17 -1.8,-0.03 -2.12,1.1l-4.26 0 0.01 0z"/>
    <path class="fil1" d="M589.97 274.91c9.64,2.87 19.7,3.46 29.55,5.22 10.61,1.9 21.26,3.54 31.93,5.08 2.55,0.37 3.56,1.09 3.66,3.83 0.39,10.76 0.78,21.51 1.02,32.27 0.26,11.93 1.92,23.84 2.19,35.82 0.07,3.33 0,4.91 -4.14,3.47 -29.38,-10.34 -59.81,-13.7 -90.79,-13.3 -4.29,0.06 -5.62,-1.97 -3.99,-6.07 8.78,-22.1 17.54,-44.21 26.31,-66.31 1.42,0 2.84,0 4.26,0l0 -0.01z"/>
    <path class="fil1" d="M135.96 663c8.84,-0.67 17.33,-3.28 25.99,-4.94 13.08,-2.51 26.11,-5.34 39.09,-8.28 3.13,-0.71 3.98,-0.33 3.83,3.02 -1.21,28.96 0.92,57.68 6.44,86.14 0.47,2.42 0.97,4.53 -3.01,3.93 -22.02,-3.38 -44.07,-6.6 -66.11,-9.81 -3.48,-0.5 -2.83,-3.04 -2.95,-5.22 -0.76,-14.51 -1.48,-29.01 -2.25,-43.52 -0.07,-1.13 0.51,-2.55 -1.03,-3.25l0 -18.08 0 0.01z"/>
    <path class="fil1" d="M534.31 571.98c-11.68,15.3 -22.4,31.09 -30.15,48.68 -4.66,10.56 -7.12,21.76 -5.47,33.32 1.73,12.16 9,20.59 19.93,25.77 14.48,6.85 29.97,7.08 45.34,5.07 43.4,-5.67 81.58,-24.12 116,-50.33 24.52,-18.68 40.33,-43.53 44.67,-74.41 4.55,-32.35 -7.64,-62.29 -39.96,-80.78 -17.63,-10.08 -36.93,-14.57 -57.15,-16.32 -39.16,-3.38 -77.65,0.43 -114.78,12.66 -71.62,23.58 -115.86,74.13 -134.64,145.99 -19.11,73.13 -7.01,141.7 38.69,202.83 29.05,38.86 68.7,62.62 115.07,75.55 13.87,3.86 27.73,8.33 41.91,10.4 71.56,10.42 139.78,0.85 203.42,-35.33 26.92,-15.31 51.51,-33.43 73,-55.73 0.46,-0.47 1.09,-0.78 1.84,-1.29 1.27,2.46 -0.48,3.9 -1.31,5.41 -17.91,32.55 -39.36,62.37 -65.42,89.07 -19.93,20.41 -41.4,38.66 -65.81,53.22 -36.53,21.78 -75.66,36.39 -118.3,40.95 -15.89,1.69 -31.78,2.54 -47.65,1.75 -61.26,-3.04 -120.21,-15.31 -174.2,-46.01 -65.88,-37.45 -108.75,-93.74 -133.7,-164.49 -12.87,-36.47 -19.52,-74.21 -21.25,-112.79 -1.99,-44.78 8.32,-87.09 26.66,-127.66 19.43,-43.01 47.18,-79.99 82.23,-111.35 45.65,-40.8 98.77,-66.6 159.38,-76.28 25.26,-4.03 50.76,-5.22 76.29,-3.6 41.73,2.64 82.83,8.93 121.12,26.75 36.28,16.88 69.04,38.56 92.01,72.54 10.19,15.09 16.7,31.56 20.74,49.36 6.31,27.84 1.48,54.35 -8.67,80.08 -6.52,16.5 -15.86,31.53 -28.72,44.3 -13.59,13.51 -27.2,26.9 -43.67,36.92 -38.1,23.17 -77.23,44.15 -121.49,53.27 -30.35,6.25 -60.72,7.98 -90.83,-1.61 -10.22,-3.25 -19.69,-8.05 -27.67,-15.3 -19.04,-17.29 -20.95,-38.79 -14.31,-61.93 7.19,-25.04 23.5,-43.93 42.51,-60.8 7.52,-6.67 15.46,-12.8 24.32,-17.83l0.02 -0.05z"/>
    <path class="fil2" d="M455.51 634.97c-2.84,11.12 -5.43,22.07 -6.56,33.38 -2.29,22.72 2.59,43.56 17.65,60.85 8.39,9.62 19.98,15.57 32.09,19.96 22.83,8.3 46.55,9.68 70.5,8.89 59.51,-1.97 114.76,-19.61 167.35,-46.41 44.62,-22.75 85.24,-51.12 119.14,-88.36 16.92,-18.58 31.46,-38.76 39.57,-62.91 11.63,-34.59 2.02,-62.38 -28.54,-82.24 -19.3,-12.54 -40.86,-19.18 -63.25,-23.52 -0.51,-0.1 -1.01,-0.26 -2.22,-0.57 4.63,-2.12 9.06,-1.96 13.27,-2.39 17.3,-1.72 34.65,-1.85 52,-0.38 20.78,1.75 41.47,4.29 61.26,11.04 16.92,5.76 33.72,12.01 48.37,22.88 23.49,17.43 32.23,40.83 29.17,69.29 -3.88,36.02 -21.13,65.45 -45.05,91.68 -14.31,15.7 -29.88,29.94 -46.93,42.58 -28.31,21.02 -58.52,38.86 -90.3,54.08 -26.42,12.66 -53.34,24.08 -81.18,33.24 -33.25,10.94 -67.14,19.08 -101.97,23.22 -38.2,4.54 -76.26,5.01 -114.02,-3.52 -21.78,-4.92 -42.23,-13 -60.16,-26.66 -35.33,-26.91 -45.23,-66.24 -26.95,-106.78 4.42,-9.82 9.61,-19.17 16.77,-27.34l-0.01 -0.01z"/>
    <path class="fil1" d="M295.58 918.12c21.5,25.81 48.44,43.7 76.12,60.63 7.37,4.51 7.43,4.4 0.72,9.54 -17.13,13.12 -34.32,26.18 -51.37,39.42 -2.66,2.07 -4.34,2.3 -7.13,0.02 -15.49,-12.66 -31.1,-25.14 -46.83,-37.49 -3.12,-2.45 -3.97,-4.26 -2.05,-8.19 9.56,-19.5 18.73,-39.21 28.03,-58.83 0.75,-1.57 1.55,-3.13 2.51,-5.09l0 -0.01z"/>
    <path class="fil1" d="M360.29 398.08c-0.61,1.93 -2.23,2.47 -3.42,3.4 -20.88,16.14 -41.26,32.87 -59.63,51.9 -3.43,3.57 -6.76,7.26 -9.93,11.05 -1.79,2.15 -2.78,2.76 -4.4,-0.21 -10.97,-19.95 -22.05,-39.85 -33.17,-59.71 -1.09,-1.94 -0.8,-3.01 0.84,-4.42 16.63,-14.32 33.2,-28.72 49.75,-43.14 1.66,-1.45 2.91,-2.01 5,-0.43 17.63,13.38 35.36,26.62 53.05,39.93 0.68,0.51 1.3,1.1 1.93,1.64l-0.02 -0.01z"/>
    <path class="fil1" d="M223.01 794.34c9.5,24.61 20.16,47.68 32.17,70.15 3.17,5.92 6.39,11.82 9.8,17.62 1.36,2.3 1.02,3.25 -1.5,4.05 -20.92,6.54 -41.82,13.12 -62.68,19.8 -2.3,0.73 -3.46,0.44 -4.62,-1.78 -9.85,-18.79 -19.78,-37.54 -29.75,-56.26 -0.93,-1.77 -1.28,-3.02 0.49,-4.58 18.57,-16.14 37.08,-32.36 56.1,-49l-0.01 0z"/>
    <path class="fil1" d="M720.8 986.74c30.64,-14.89 55.01,-37.17 78.42,-60.7 4.55,-4.58 4.51,-4.62 6.91,1.36 8.32,20.73 16.56,41.48 25.02,62.14 1.35,3.3 1.15,5.1 -1.99,7.35 -15.98,11.42 -31.75,23.13 -47.55,34.79 -1.95,1.43 -3.37,2.46 -5.86,0.4 -17.84,-14.74 -35.83,-29.29 -53.77,-43.91 -0.39,-0.32 -0.66,-0.8 -1.18,-1.43l0 0z"/>
    <path class="fil1" d="M527.79 1026.97c-4.82,10.86 -9.53,21.5 -14.24,32.12 -4.23,9.52 -8.64,18.96 -12.57,28.6 -1.42,3.46 -3.02,4.44 -6.68,3.69 -21.31,-4.41 -42.65,-8.65 -63.99,-12.83 -3.11,-0.6 -4.19,-1.85 -4.16,-5.18 0.18,-21.44 0.14,-42.88 0.07,-64.32 0,-2.85 0.07,-4.16 3.68,-2.88 30.85,10.99 62.85,16.64 95.27,20.37 0.69,0.07 1.37,0.23 2.63,0.46l-0.01 -0.03z"/>
    <path class="fil1" d="M402.14 326.98c-0.4,-7.43 -0.67,-14.87 -1.25,-22.28 -0.24,-3.12 0.43,-4.64 3.78,-5.58 18.02,-5.09 36,-10.4 53.9,-15.89 3.22,-0.99 4.59,-0.31 6.25,2.44 11.63,19.34 23.45,38.55 35.2,57.81 1.26,2.08 3.45,4.03 -1.37,4.84 -30.65,5.19 -60.07,14.66 -88.83,26.26 -4.31,1.74 -5.66,1.39 -5.8,-3.6 -0.41,-14.68 -1.27,-29.35 -1.95,-44.01 0.01,0 0.03,0 0.04,0l0.03 0.01z"/>
    <path class="fil1" d="M782.01 434.67c-22.03,-25.85 -49.09,-44.11 -79.83,-58.14 13.87,-12.19 27.42,-24.08 40.98,-35.96 4.79,-4.2 9.66,-8.32 14.35,-12.63 1.82,-1.68 3.13,-2.06 5.39,-0.53 16.25,11.01 32.61,21.86 48.95,32.72 1.75,1.16 2.87,2 1.69,4.57 -10.53,23.12 -20.9,46.32 -31.53,69.97l0 0z"/>
    <path class="fil1" d="M215.13 597.59c-7.52,-6.1 -15.02,-12.18 -22.52,-18.28 -10.57,-8.58 -21.07,-17.26 -31.75,-25.69 -2.57,-2.03 -2.85,-3.7 -1.6,-6.66 7.54,-17.89 14.91,-35.85 22.22,-53.83 1.06,-2.61 1.95,-4.04 5.29,-3.18 21.7,5.62 43.44,11.1 65.21,16.45 2.92,0.71 3.53,1.33 1.82,4.02 -16.97,26.69 -30.48,54.92 -37.71,85.9 -0.07,0.31 -0.4,0.56 -0.95,1.27l-0.01 0z"/>
   </g>
  </g>
 </g>
</svg>
