<?xml version="1.0" encoding="UTF-8"?>
<!DOCTYPE svg PUBLIC "-//W3C//DTD SVG 1.1//EN" "http://www.w3.org/Graphics/SVG/1.1/DTD/svg11.dtd">
<!-- Creator: CorelDRAW -->
<svg xmlns="http://www.w3.org/2000/svg" xml:space="preserve" width="210mm" height="297mm" version="1.1" style="shape-rendering:geometricPrecision; text-rendering:geometricPrecision; image-rendering:optimizeQuality; fill-rule:evenodd; clip-rule:evenodd"
viewBox="0 0 21000 29700"
 xmlns:xlink="http://www.w3.org/1999/xlink"
 xmlns:xodm="http://www.corel.com/coreldraw/odm/2003"
 data-name="å¾å± 1">
 <defs>
  <style type="text/css">
   <![CDATA[
    .str0 {stroke:#30384A;stroke-width:26.46;stroke-miterlimit:22.9256}
    .fil5 {fill:#299CC6;fill-rule:nonzero}
    .fil2 {fill:#313849;fill-rule:nonzero}
    .fil3 {fill:#3E5CCD;fill-rule:nonzero}
    .fil7 {fill:#6B3E0C;fill-rule:nonzero}
    .fil15 {fill:#91C11F;fill-rule:nonzero}
    .fil12 {fill:#995F13;fill-rule:nonzero}
    .fil13 {fill:#9B7513;fill-rule:nonzero}
    .fil17 {fill:#9BC152;fill-rule:nonzero}
    .fil16 {fill:#A1CE49;fill-rule:nonzero}
    .fil11 {fill:#AB6D16;fill-rule:nonzero}
    .fil14 {fill:#B78814;fill-rule:nonzero}
    .fil10 {fill:#BD7B1A;fill-rule:nonzero}
    .fil0 {fill:#CDDCFF;fill-rule:nonzero}
    .fil9 {fill:#CF891D;fill-rule:nonzero}
    .fil6 {fill:#E0ECEF;fill-rule:nonzero}
    .fil8 {fill:#E19720;fill-rule:nonzero}
    .fil18 {fill:#EFF6DA;fill-rule:nonzero}
    .fil4 {fill:#F15322;fill-rule:nonzero}
    .fil1 {fill:#F1F4FF;fill-rule:nonzero}
    .fil19 {fill:white;fill-rule:nonzero}
   ]]>
  </style>
 </defs>
 <g id="圖層_x0020_1">
  <metadata id="CorelCorpID_0Corel-Layer"/>
  <polygon class="fil0" points="-14411.84,-102.4 36731.85,-102.4 36731.85,31062.34 -14411.84,31062.34 "/>
  <polygon class="fil1 str0" points="-15718.62,-1349.11 35425.07,-1349.11 35425.07,29815.63 -15718.62,29815.63 "/>
  <polygon class="fil0" points="12444.16,21089.67 32270.71,21089.67 32270.71,22128.42 12444.16,22128.42 "/>
  <polygon class="fil0" points="14922.51,23167.18 32270.71,23167.18 32270.71,24205.93 14922.51,24205.93 "/>
  <polygon class="fil0" points="4107.93,25244.95 32270.71,25244.95 32270.71,26283.7 4107.93,26283.7 "/>
  <polygon class="fil2" points="20780.39,1351.75 22132.14,1351.75 22132.14,2598.47 20780.39,2598.47 "/>
  <polygon class="fil2" points="22808.15,1351.75 24159.91,1351.75 24159.91,2598.47 22808.15,2598.47 "/>
  <polygon class="fil2" points="24835.92,1351.75 26187.67,1351.75 26187.67,2598.47 24835.92,2598.47 "/>
  <polygon class="fil2" points="26863.69,1351.75 28215.44,1351.75 28215.44,2598.47 26863.69,2598.47 "/>
  <polygon class="fil2" points="28891.19,1351.75 30242.94,1351.75 30242.94,2598.47 28891.19,2598.47 "/>
  <polygon class="fil2" points="30918.95,1351.75 32270.71,1351.75 32270.71,2598.47 30918.95,2598.47 "/>
  <path class="fil3" d="M-669.92 12910.67c-251.1,-95.08 -474.78,-193.2 -671.03,-294.37 -196.24,-101.17 -374.82,-211.49 -535.72,-330.94 -158.46,114.58 -337.64,223.67 -537.55,327.28 -199.9,103.61 -427.85,206.61 -683.82,309l-190.16 -376.65c229.16,-78.01 435.16,-160.29 618,-246.84 182.84,-86.54 347.4,-178.57 493.67,-276.08 -109.7,-112.15 -209.04,-232.82 -298.03,-362.03 -88.98,-129.21 -171.26,-270.6 -246.83,-424.19 -95.08,282.79 -215.14,557.06 -360.2,822.78 -145.05,265.73 -322.41,520.49 -532.06,764.28l-285.23 -299.86c146.27,-168.22 274.26,-341.3 383.96,-519.27 109.71,-177.96 204.78,-358.37 285.23,-541.21 80.45,-182.84 147.49,-368.12 201.13,-555.83 53.63,-187.72 97.51,-375.43 131.64,-563.15l-778.9 0 0 -362.02 833.75 0c19.51,-156.03 34.13,-307.18 43.89,-453.45l398.59 14.63c-12.19,146.27 -26.82,292.54 -43.88,438.82l1857.66 0 0 362.02 -1912.52 0c-12.19,63.38 -24.37,126.77 -36.56,190.15 -12.19,63.39 -25.6,126.77 -40.23,190.16l1649.22 0 0 347.39c-85.32,195.03 -179.79,371.17 -283.4,528.41 -103.61,157.25 -226.11,302.91 -367.51,436.99 138.96,95.08 295.59,181.62 469.9,259.64 174.31,78.01 372.39,152.36 594.23,223.06l-157.24 391.28zm-1744.3 -1839.38c75.57,146.28 156.63,278.53 243.18,396.77 86.54,118.24 184.67,228.55 294.37,330.94 126.77,-109.7 236.48,-224.89 329.11,-345.57 92.64,-120.67 173.09,-248.05 241.35,-382.14l-1108.01 0z"/>
  <path id="_1" class="fil3" d="M2891.81 12888.73c-214.53,-104.83 -411.39,-212.1 -590.57,-321.8 -179.19,-109.7 -345.57,-226.72 -499.16,-351.05 -160.9,129.2 -341.91,250.49 -543.03,363.85 -201.13,113.36 -432.12,224.89 -692.97,334.6l-186.5 -354.71c241.35,-92.64 455.28,-187.72 641.77,-285.23 186.5,-97.52 352.88,-201.13 499.16,-310.83 -138.96,-138.96 -262.07,-284.02 -369.34,-435.16 -107.27,-151.15 -199.91,-314.49 -277.92,-490.02 -24.38,175.53 -58.51,340.09 -102.39,493.67 -43.88,153.59 -99.34,302.3 -166.38,446.13 -67.05,143.84 -145.06,287.06 -234.04,429.68 -88.98,142.61 -191.98,288.28 -309,436.99l-310.83 -230.38c129.21,-158.46 241.35,-310.83 336.43,-457.1 95.07,-146.28 175.52,-296.2 241.35,-449.79 65.82,-153.59 117.62,-316.31 155.41,-488.18 37.79,-171.87 62.78,-363.86 74.97,-575.95 2.43,-29.26 4.87,-66.43 7.31,-111.53 2.44,-45.11 4.88,-93.25 7.31,-144.45 2.44,-51.19 4.88,-103.61 7.32,-157.24 2.43,-53.64 4.87,-103.61 7.31,-149.93l-544.86 0 0 -351.05 2413.49 0 0 358.36 -402.25 544.87 676.51 0 0 347.39c-85.32,190.16 -179.79,366.29 -283.4,528.41 -103.61,162.12 -224.9,313.88 -363.85,455.28 285.23,209.65 624.09,394.93 1016.59,555.83l-208.44 369.34zm-1956.39 -2632.9c92.64,312.04 209.65,587.52 351.05,826.43 141.4,238.92 312.05,453.45 511.95,643.6 109.71,-109.7 207.83,-224.89 294.38,-345.57 86.54,-120.67 166.38,-254.14 239.52,-400.42l-738.68 0 0 -325.45 409.57 -574.12 -1060.48 0c0,26.82 -0.61,54.85 -1.83,84.11 -1.22,29.25 -3.04,59.72 -5.48,91.42z"/>
  <path id="_2" class="fil3" d="M5246.8 11155.4c104.82,314.49 276.69,582.04 515.61,802.67 238.91,220.63 542.42,411.39 910.54,572.29l-204.78 398.59c-180.4,-97.51 -344.35,-195.64 -491.84,-294.37 -147.49,-98.73 -279.75,-201.73 -396.76,-309 -117.02,-107.27 -220.02,-220.02 -309.01,-338.25 -88.98,-118.24 -163.94,-245.62 -224.89,-382.14 -107.27,229.16 -274.26,455.88 -500.98,680.17 -226.72,224.28 -533.9,437.59 -921.52,639.94l-219.41 -376.65c397.38,-190.16 713.08,-399.21 947.12,-627.15 234.03,-227.94 381.52,-483.31 442.47,-766.1l-1276.23 0 0 -362.02 1305.49 0 0 -687.48 -1111.67 0 0 -354.71 2629.24 0 0 354.71 -1126.3 0 0 687.48 1320.11 0 0 362.02 -1287.19 0z"/>
  <path id="_3" class="fil3" d="M8746.36 10116.87l0 680.16 157.24 -237.69c80.45,56.07 172.48,120.68 276.09,193.81 103.61,73.14 206.61,147.49 309,223.07 102.39,75.57 199.3,148.71 290.72,219.41 91.42,70.69 165.17,131.64 221.24,182.84l-201.13 351.05c-65.82,-60.95 -142,-127.38 -228.55,-199.3 -86.54,-71.91 -177.35,-145.66 -272.43,-221.23 -95.08,-75.58 -190.15,-149.32 -285.23,-221.24 -95.08,-71.92 -184.06,-137.13 -266.95,-195.64l0 1941.77 -387.62 0 0 -2717.01 -1294.51 0 0 -362.03 3144.86 0 0 362.03 -1462.73 0z"/>
  <path id="_4" class="fil3" d="M11631.58 16852.71c170.65,4.87 340.08,6.09 508.29,3.66 168.22,-2.44 337.65,-8.54 508.3,-18.29l-69.48 318.14c-165.78,9.76 -330.33,15.85 -493.67,18.29 -163.34,2.44 -327.89,1.22 -493.67,-3.66 -87.76,-2.44 -166.99,-9.14 -237.69,-20.11 -70.7,-10.97 -134.69,-30.47 -191.98,-58.51 -57.29,-28.04 -110.32,-65.82 -159.08,-113.36 -48.75,-47.54 -96.29,-110.31 -142.61,-188.33 -70.7,124.33 -153.59,241.35 -248.66,351.06l-234.04 -204.78 87.76 -109.71c-65.82,17.07 -148.1,37.79 -246.83,62.17 -98.74,24.38 -199.3,49.97 -301.69,76.79 -102.39,26.82 -200.51,52.41 -294.37,76.79 -93.86,24.38 -167.61,43.88 -221.24,58.51l-58.51 -314.48c51.2,-12.19 123.72,-29.87 217.58,-53.03 93.86,-23.16 194.42,-48.15 301.69,-74.96l0 -947.12 -413.22 0 0 -303.51 413.22 0 0 -259.63 -215.75 0 0 -76.8 -87.77 109.71 -201.12 -234.04c56.07,-65.82 111.53,-140.18 166.38,-223.06 54.86,-82.89 106.66,-170.05 155.42,-261.47 48.76,-91.42 93.86,-182.84 135.3,-274.26 41.44,-91.42 75.57,-177.35 102.39,-257.8l318.14 51.19 -43.88 120.68c73.14,73.13 150.54,153.58 232.21,241.35 81.67,87.76 152.98,163.33 213.92,226.72l-201.12 223.07c-51.2,-58.51 -110.32,-124.34 -177.36,-197.47 -67.04,-73.14 -131.03,-142.62 -191.98,-208.44 -41.44,78.01 -82.89,155.41 -124.33,232.21 -41.44,76.79 -86.55,150.54 -135.3,221.23l639.94 0 0 307.18 -281.58 0 0 259.63 383.97 0 0 303.51 -383.97 0 0 870.33c70.7,-19.51 134.7,-37.18 191.99,-53.03 57.29,-15.84 104.22,-29.86 140.78,-42.05l18.29 153.58 14.63 98.74c29.25,-41.45 59.11,-84.11 89.59,-127.99 30.47,-43.88 60.33,-88.98 89.59,-135.3l0 -1115.33 -212.1 0 0 -310.83 490.02 0 0 1426.16c36.57,70.7 72.52,129.2 107.87,175.52 35.35,46.32 76.8,84.11 124.33,113.37 47.54,29.25 104.22,50.58 170.05,63.99 65.82,13.41 146.27,21.33 241.35,23.77zm40.22 -2303.79l-541.21 0 0 -285.23 541.21 0 0 -321.8 270.6 14.63 0 307.17 563.15 0 0 285.23 -563.15 0 0 223.06 482.7 0 0 1188.47 -482.7 0 0 223.06 614.35 0 0 285.23 -614.35 0 0 340.09 -270.6 0 0 -340.09 -581.43 0 0 -285.23 581.43 0 0 -223.06 -493.67 0 0 -1188.47 493.67 0 0 -223.06zm-852.04 329.11c-12.19,-48.76 -28.03,-106.66 -47.53,-173.7 -19.51,-67.04 -41.45,-135.3 -65.83,-204.78 -24.38,-69.48 -48.75,-137.13 -73.13,-202.95 -24.38,-65.82 -46.32,-123.11 -65.83,-171.87l270.61 -91.42c19.5,46.32 41.44,101.17 65.82,164.56 24.38,63.38 48.15,129.2 71.31,197.46 23.16,68.26 45.1,134.7 65.82,199.3 20.72,64.6 38.4,120.06 53.02,166.38l-274.26 117.02zm621.66 153.59l0 204.78 230.38 0 0 -204.78 -230.38 0zm500.98 0l0 204.78 223.07 0 0 -204.78 -223.07 0zm-270.6 669.19l0 -208.43 -230.38 0 0 208.43 230.38 0zm493.67 0l0 -208.43 -223.07 0 0 208.43 223.07 0zm-1985.65 687.48c36.57,-90.2 71.31,-187.1 104.22,-290.71 32.91,-103.61 60.34,-198.08 82.28,-283.4l219.41 73.13c-19.51,90.2 -46.32,189.55 -80.45,298.03 -34.13,108.49 -68.26,205.39 -102.39,290.72l-223.07 -87.77zm-530.24 -563.14c17.07,46.32 34.74,97.51 53.03,153.58 18.28,56.07 36.57,112.75 54.85,170.04 18.28,57.29 34.74,113.36 49.37,168.22 14.62,54.85 28.03,104.22 40.22,148.1l-219.41 91.42c-12.19,-46.32 -25.59,-97.52 -40.22,-153.59 -14.63,-56.07 -31.08,-113.36 -49.37,-171.87 -18.28,-58.51 -36.57,-115.8 -54.85,-171.87 -18.28,-56.07 -35.96,-107.27 -53.02,-153.58l219.4 -80.45z"/>
  <path id="_5" class="fil3" d="M16049 17276.9c-214.53,-104.83 -411.39,-212.1 -590.57,-321.8 -179.19,-109.7 -345.57,-226.72 -499.16,-351.05 -160.9,129.2 -341.91,250.49 -543.03,363.85 -201.13,113.36 -432.12,224.89 -692.97,334.6l-186.5 -354.71c241.35,-92.64 455.28,-187.72 641.77,-285.23 186.5,-97.52 352.88,-201.13 499.16,-310.83 -138.96,-138.96 -262.07,-284.02 -369.34,-435.16 -107.27,-151.15 -199.91,-314.49 -277.92,-490.02 -24.38,175.53 -58.51,340.09 -102.39,493.67 -43.88,153.59 -99.34,302.3 -166.38,446.13 -67.05,143.84 -145.06,287.06 -234.04,429.68 -88.98,142.61 -191.98,288.28 -309,436.99l-310.83 -230.38c129.21,-158.46 241.35,-310.83 336.43,-457.1 95.07,-146.28 175.52,-296.2 241.35,-449.79 65.82,-153.59 117.62,-316.31 155.41,-488.18 37.79,-171.87 62.78,-363.86 74.97,-575.95 2.43,-29.26 4.87,-66.43 7.31,-111.53 2.44,-45.11 4.88,-93.25 7.31,-144.45 2.44,-51.19 4.88,-103.61 7.32,-157.24 2.43,-53.64 4.87,-103.61 7.31,-149.93l-544.86 0 0 -351.05 2413.49 0 0 358.36 -402.25 544.87 676.51 0 0 347.39c-85.32,190.16 -179.79,366.29 -283.4,528.41 -103.61,162.12 -224.9,313.88 -363.85,455.28 285.23,209.65 624.09,394.93 1016.59,555.83l-208.44 369.34zm-1956.39 -2632.9c92.64,312.04 209.65,587.52 351.05,826.43 141.4,238.92 312.05,453.45 511.95,643.6 109.71,-109.7 207.83,-224.89 294.38,-345.57 86.54,-120.67 166.38,-254.14 239.52,-400.42l-738.68 0 0 -325.45 409.57 -574.12 -1060.48 0c0,26.82 -0.61,54.85 -1.83,84.11 -1.22,29.25 -3.04,59.72 -5.48,91.42z"/>
  <path id="_6" class="fil3" d="M18371.07 15455.81l0 453.44 1009.28 0 0 347.4 -1009.28 0 0 530.24 1323.77 0 0 336.42 -3002.24 0 0 -336.42 1290.85 0 0 -530.24 -976.37 0 0 -347.4 976.37 0 0 -453.44 -881.29 0 0 -208.44c-65.82,41.44 -134.08,81.67 -204.78,120.67 -70.7,39.01 -143.83,79.24 -219.41,120.68l-171.87 -351.05c182.84,-90.21 350.45,-182.24 502.81,-276.09 152.37,-93.86 291.94,-191.38 418.71,-292.55 126.77,-101.17 241.35,-206.61 343.74,-316.31 102.39,-109.71 192.59,-225.51 270.6,-347.4l303.52 0c158.46,251.1 368.12,478.43 628.97,682 260.85,203.56 561.93,389.45 903.23,557.66l-182.84 336.43c-146.27,-75.58 -282.79,-151.15 -409.56,-226.73l0 201.13 -914.21 0zm-175.52 -1173.84c-102.39,151.15 -226.12,293.77 -371.17,427.85 -145.05,134.08 -312.66,265.73 -502.81,394.93l1733.33 0c-182.84,-124.33 -346.18,-255.36 -490.01,-393.1 -143.84,-137.74 -266.95,-280.97 -369.34,-429.68z"/>
  <path id="_7" class="fil3" d="M23289.48 14102.79l0 2713.35c0,80.45 -6.7,145.66 -20.11,195.64 -13.41,49.98 -35.96,89.59 -67.65,118.85 -31.69,29.25 -73.75,51.19 -126.16,65.82 -52.41,14.63 -117.63,25.6 -195.64,32.91l-215.75 21.94 -98.74 -347.4 215.76 -21.94c43.88,-4.87 79.23,-9.75 106.04,-14.62 26.82,-4.88 47.54,-13.41 62.17,-25.6 14.63,-12.19 24.38,-29.87 29.25,-53.03 4.88,-23.15 7.32,-55.46 7.32,-96.9l0 -2259.91 -1206.75 0 0 2782.83 -299.86 0 0 -340.08 -255.98 80.45c-12.18,-53.63 -25.59,-112.14 -40.22,-175.53 -14.63,-63.38 -30.47,-127.99 -47.54,-193.81 -17.06,-65.82 -34.13,-130.42 -51.19,-193.81 -17.07,-63.38 -34.13,-121.89 -51.2,-175.53l237.69 -80.45c17.07,43.89 34.74,93.86 53.03,149.93 18.28,56.07 36.57,113.36 54.85,171.87 18.28,58.51 35.96,116.41 53.02,173.7 17.07,57.29 32.91,110.32 47.54,159.07l0 -778.9 -237.69 91.42c-7.31,-19.5 -14.63,-40.83 -21.94,-63.99 -7.32,-23.16 -14.63,-45.71 -21.94,-67.65 -51.2,4.87 -115.19,10.97 -191.99,18.28 -76.79,7.32 -156.63,15.85 -239.52,25.6 -82.88,9.75 -162.11,19.5 -237.69,29.25 -75.57,9.76 -136.52,19.51 -182.84,29.26l-69.48 -314.49c39.01,-19.5 68.87,-40.22 89.59,-62.16 20.72,-21.94 37.18,-39.01 49.37,-51.2 41.44,-53.63 87.76,-120.06 138.96,-199.29 51.19,-79.24 104.83,-165.17 160.9,-257.81 -70.7,4.88 -146.27,10.36 -226.72,16.46 -80.45,6.09 -146.28,15.23 -197.47,27.42l-80.45 -310.83c36.57,-19.5 65.82,-40.83 87.76,-63.99 21.94,-23.16 36.57,-40.84 43.88,-53.02 17.07,-31.7 43.89,-81.06 80.45,-148.11 36.57,-67.04 76.19,-142.61 118.85,-226.72 42.66,-84.1 85.33,-171.87 127.99,-263.29 42.66,-91.42 81.06,-177.35 115.19,-257.8l285.23 120.67c-29.26,65.82 -65.21,143.84 -107.88,234.04 -42.66,90.2 -85.93,178.57 -129.81,265.12 -43.89,86.54 -85.33,163.33 -124.34,230.38 -39,67.04 -68.26,111.53 -87.76,133.47l274.26 -7.31c46.32,-80.45 90.81,-159.69 133.48,-237.7 42.66,-78.01 83.49,-152.36 122.5,-223.06l259.63 146.27c-51.19,92.64 -107.87,192.59 -170.04,299.86 -62.17,107.26 -125.55,213.31 -190.15,318.14 -64.61,104.83 -127.99,204.78 -190.16,299.86 -62.16,95.08 -118.84,176.74 -170.04,245.01l405.91 -51.2c-24.38,-63.38 -47.54,-123.72 -69.48,-181.01 -21.94,-57.29 -42.67,-107.88 -62.17,-151.76l230.38 -95.08c17.07,43.88 37.79,95.08 62.17,153.59 24.38,58.51 49.36,120.06 74.96,184.67 25.6,64.6 51.2,128.6 76.79,191.98 25.6,63.39 49.37,121.89 71.31,175.53l0 -1857.66 1810.12 0zm-1459.06 939.8l299.85 0c-17.06,-34.13 -36.56,-72.53 -58.51,-115.19 -21.94,-42.66 -43.88,-85.94 -65.82,-129.82 -21.94,-43.88 -42.05,-85.32 -60.34,-124.33 -18.28,-39.01 -33.52,-70.7 -45.71,-95.08l215.76 -117.01c17.06,29.25 36.56,63.38 58.51,102.39 21.94,39 43.88,80.45 65.82,124.33 21.94,43.88 43.88,87.15 65.82,129.81 21.94,42.67 42.66,81.06 62.17,115.19l-226.73 109.71 223.07 0c21.94,-43.88 45.71,-92.03 71.31,-144.45 25.6,-52.41 51.19,-104.21 76.79,-155.41 25.6,-51.2 48.76,-99.34 69.48,-144.44 20.72,-45.1 37.18,-83.5 49.37,-115.19l245 91.42c-12.19,26.81 -27.42,59.11 -45.71,96.9 -18.28,37.79 -37.78,77.4 -58.51,118.85 -20.72,41.44 -42.05,84.1 -63.99,127.99 -21.94,43.88 -42.66,85.32 -62.17,124.33l288.89 0 0 299.86 -1104.35 0 0 -299.86zm113.36 1638.25l0 -720.39 -127.99 0 0 -303.52 442.47 0c-12.19,-41.44 -24.38,-79.23 -36.57,-113.36 -12.19,-34.13 -23.16,-63.38 -32.91,-87.76l296.2 -40.23c12.19,26.82 25.6,62.17 40.23,106.05 14.63,43.88 30.47,88.98 47.54,135.3l376.65 0 0 303.52 -716.74 0 0 409.56 614.35 0 0 310.83 -903.23 0zm-1799.15 394.93c19.5,-70.69 39,-145.05 58.5,-223.06 19.51,-78.01 39.01,-156.02 58.51,-234.04 19.51,-78.01 37.79,-154.8 54.86,-230.38 17.06,-75.57 31.69,-146.27 43.88,-212.09l277.92 43.88c-12.19,65.82 -26.82,138.96 -43.89,219.41 -17.06,80.45 -34.74,162.12 -53.02,245.01 -18.28,82.88 -36.57,164.55 -54.85,245 -18.29,80.45 -34.74,153.59 -49.37,219.41l-292.54 -73.14zm819.12 -899.57c7.32,56.07 15.24,121.89 23.77,197.47 8.53,75.57 17.07,152.97 25.6,232.2 8.53,79.24 15.84,156.64 21.94,232.21 6.09,75.58 11.58,140.18 16.45,193.81l-296.2 21.94c-2.43,-58.51 -6.09,-124.94 -10.97,-199.29 -4.87,-74.36 -10.36,-149.93 -16.45,-226.72 -6.1,-76.8 -12.19,-151.76 -18.29,-224.9 -6.09,-73.13 -11.58,-138.96 -16.45,-197.47l270.6 -29.25z"/>
  <path id="_8" class="fil3" d="M10860 12983.81c43.88,-73.14 85.93,-154.81 126.16,-245.01 40.22,-90.2 75.57,-182.23 106.04,-276.09 30.48,-93.86 54.86,-185.89 73.14,-276.09 18.28,-90.2 27.43,-171.87 27.43,-245l438.81 0c0,78.01 -12.19,164.55 -36.56,259.63 -24.38,95.08 -56.08,190.15 -95.08,285.23 -39.01,95.08 -82.28,186.5 -129.82,274.26 -47.54,87.76 -94.47,162.12 -140.79,223.07l-369.33 0z"/>
  <path class="fil4" d="M-5648.84 6257.39c0,-169.6 126.74,-306.39 281.78,-306.39l0 -296.6c-156.1,0 -281.78,-137.58 -281.78,-306.39 0,-168.81 126.74,-306.39 281.78,-306.39l0 -296.6c-156.1,0 -281.78,-137.58 -281.78,-306.39 0,-168.81 126.74,-306.39 281.78,-306.39l0 -296.6c-156.1,0 -281.78,-137.58 -281.78,-306.39 0,-168.81 126.74,-306.39 281.78,-306.39l0 -301.36c-156.1,0 -281.78,-137.58 -281.78,-306.39 0,-168.81 126.74,-306.39 281.78,-306.39l0 -296.6c-156.1,0 -281.78,-137.58 -281.78,-306.39 0,-168.81 126.74,-306.39 281.78,-306.39l0 -183.09 -478.9 0.04c0,210.34 -156.9,381 -350.57,381 -193.67,0 -350.57,-170.66 -350.57,-381l-360.37 0c0,210.34 -156.9,381 -350.57,381 -193.67,0 -350.57,-170.66 -350.57,-381l-358.51 0c0,210.34 -156.9,381 -350.57,381 -193.67,0 -350.57,-170.66 -350.57,-381l-360.37 0c0,210.34 -156.9,381 -350.57,381 -193.67,0 -350.57,-170.66 -350.57,-381l-360.37 0c0,210.34 -156.9,381 -350.57,381 -193.67,0 -350.57,-170.66 -350.57,-381l-360.37 0c0,210.34 -156.9,381 -350.57,381 -193.67,0 -350.57,-170.66 -350.57,-381l-360.37 0c0,210.34 -156.9,381 -350.57,381 -193.67,0 -350.57,-170.66 -350.57,-381l-437.09 0 0 191.82c123.03,33.07 214.05,153.99 214.05,297.66 0,143.67 -91.02,264.58 -214.05,297.66l0 315.12c123.03,33.07 214.05,153.99 214.05,297.66 0,143.67 -91.02,264.58 -214.05,297.66l0 315.12c123.03,33.07 214.05,153.99 214.05,297.66 0,143.67 -91.02,264.58 -214.05,297.66l0 315.12c123.03,33.07 214.05,153.99 214.05,297.66 0,143.67 -91.02,264.58 -214.05,297.66l0 315.12c123.03,33.07 214.05,153.99 214.05,297.66 0,143.67 -91.02,264.58 -214.05,297.66l0 315.12c123.03,33.07 214.05,153.99 214.05,297.66 0,143.67 -91.02,264.58 -214.05,297.66l0 245.27 438.94 -0.05c0,-210.34 156.9,-381 350.57,-381 193.67,0 350.57,170.66 350.57,381l360.37 0c0,-210.34 156.9,-381 350.57,-381 193.67,0 350.57,170.66 350.57,381l360.37 0c0,-210.34 156.9,-381 350.57,-381 193.67,0 350.57,170.66 350.57,381l360.36 0c0,-210.34 156.9,-381 350.57,-381 193.67,0 350.57,170.66 350.57,381l360.37 0c0,-210.34 156.9,-381 350.57,-381 193.67,0 350.57,170.66 350.57,381l360.37 0c0,-210.34 156.9,-381 350.57,-381 193.67,0 350.57,170.66 350.57,381l360.37 0c0,-210.34 156.9,-381 350.57,-381 193.67,0 350.57,170.66 350.57,381l478.9 0 0 -236.54c-158.75,1.06 -285.49,-136.79 -285.49,-306.39l0.01 0 0 -0.53z"/>
  <polygon class="fil5" points="-12473.51,1987.81 -6242.83,1987.81 -6242.83,6028.53 -12473.51,6028.53 "/>
  <path class="fil6" d="M-6582.82 5351.99c-57.15,0 -103.45,-50.27 -103.45,-112.45l0 -2396.86c0,-61.91 46.3,-112.45 103.45,-112.45 57.15,0 103.45,50.27 103.45,112.45l0 2395.8c0,61.91 -46.3,113.51 -103.45,113.51zm0 -2772.04c-57.15,0 -103.45,-50.27 -103.45,-112.45l0 -96.84c0,-61.91 46.3,-112.45 103.45,-112.45 57.15,0 103.45,50.27 103.45,112.45l0 96.84c0,61.12 -46.3,112.45 -103.45,112.45z"/>
  <polygon class="fil7" points="-9627.12,4361.39 -9113.3,4361.39 -9113.3,6027.47 -9627.12,6027.47 "/>
  <polygon class="fil8" points="-9627.12,4361.39 -9113.3,4361.39 -9113.3,4921.51 -9627.12,4921.51 "/>
  <polygon class="fil9" points="-9627.12,4636.82 -9113.3,4636.82 -9113.3,5196.94 -9627.12,5196.94 "/>
  <polygon class="fil10" points="-9627.12,4911.99 -9113.3,4911.99 -9113.3,5472.11 -9627.12,5472.11 "/>
  <polygon class="fil11" points="-9627.12,5186.36 -9113.3,5186.36 -9113.3,5746.48 -9627.12,5746.48 "/>
  <polygon class="fil12" points="-9627.12,5461.53 -9113.3,5461.53 -9113.3,6021.65 -9627.12,6021.65 "/>
  <path class="fil13" d="M-10076.65 4029.07c0,269.88 201.08,488.69 449.26,488.69 248.18,0 449.79,-218.55 449.79,-488.16l0 -0.53c0,-269.88 -201.08,-488.69 -449.26,-488.69 -248.18,0 -449.79,218.55 -449.79,488.16l0 0.53z"/>
  <path class="fil13" d="M-8977.83 3777.98c0,269.88 201.08,488.69 449.26,488.69 248.18,0 449.79,-218.55 449.79,-488.16l0 -0.53c0,-269.88 -201.08,-488.69 -449.26,-488.69 -248.18,0 -449.79,218.55 -449.79,488.16l0 0.53z"/>
  <path class="fil14" d="M-9492.45 3886.46c0,269.88 201.35,488.42 449.53,488.42 248.18,0 449.53,-218.81 449.53,-488.42 0,-269.88 -201.08,-488.69 -449.26,-488.69 -248.18,0 -449.79,218.55 -449.79,488.16 0,0 0,0.26 0,0.53l-0.01 0z"/>
  <path class="fil15" d="M-8200.75 2923.11c589.49,311.15 976.84,704.59 864.39,880 -112.45,175.41 -681.57,64.82 -1272.12,-246.06 -590.55,-311.15 -976.84,-704.59 -864.39,-880 112.45,-175.42 681.57,-64.82 1272.12,246.06z"/>
  <path class="fil16" d="M-8426.44 3390.37c346.08,533.14 470.96,1047.75 278.34,1150.41 -192.62,102.66 -629.71,-246.06 -975.78,-779.2 -346.08,-533.14 -470.96,-1047.75 -278.34,-1150.41 192.62,-101.86 629.71,246.06 975.78,779.2z"/>
  <path class="fil15" d="M-10538.87 2923.11c-589.49,311.15 -976.84,704.59 -864.39,880 112.45,175.42 681.57,64.82 1272.12,-246.06 590.55,-311.15 976.84,-704.59 864.39,-880 -113.24,-175.42 -682.36,-64.82 -1272.12,246.06z"/>
  <path class="fil16" d="M-10313.98 3390.37c-346.08,533.14 -470.96,1047.75 -278.34,1150.41 192.62,102.66 629.71,-246.06 975.78,-779.2 346.08,-533.14 470.96,-1047.75 278.34,-1150.41 -192.62,-101.86 -629.71,246.06 -975.78,779.2z"/>
  <path class="fil17" d="M-9765.5 3639.34c0,577.59 181.24,1045.9 405.08,1045.9 223.84,0 405.08,-468.31 405.08,-1045.9 0,-577.59 -180.98,-1046.16 -404.81,-1046.43 -223.57,-0.26 -405.08,467.52 -405.08,1045.1 0,0.53 0,0.79 0,1.32l-0.27 0.01z"/>
  <path class="fil18" d="M-9177.59 3956.31c-41.8,0 -75.94,-36.78 -75.94,-82.29l0 -393.44c0,-45.51 33.87,-82.29 75.94,-82.29 42.07,0 75.94,36.78 75.94,82.29l0 393.44c0,45.51 -33.87,82.29 -75.94,82.29z"/>
  <path class="fil19" d="M-12172.27 2408.45l0 104.99 105.53 0 0 -104.99 -105.53 0zm-21.95 -9.58c0,-41.38 -0.49,-72.71 -1.5,-93.98l35.2 17.53 -11.75 12.71 0 63.74 102.58 0 11.7 -19.1 24.94 20.73 -13.19 12.71 0 92.28c0,11.69 0.5,23.92 1.44,36.62l-21.94 9.59 0 -28.68 -105.53 0c0,80.73 0.49,128.02 1.49,141.82l-24.94 14.34c1.01,-24.47 1.5,-76.52 1.5,-156.16l-101.15 0 0 19.09 -21.94 12.78c1,-19.16 1.43,-46.75 1.43,-82.77 0,-36.08 -0.43,-65.3 -1.43,-87.59l21.94 14.34 101.15 0zm-101.15 9.58l0 104.99 101.15 0 0 -104.99 -101.15 0z"/>
  <path id="_1_15" class="fil19" d="M-11901.2 2374.81l158.23 0 17.63 -19.09 26.39 28.67 -96.72 0 0 74.82 39.51 0 17.63 -19.09 26.38 28.67 -83.52 0 0 104.99 49.82 0 20.51 -22.29 29.26 31.87 -165.55 0c-12.68,0 -24.44,1.57 -35.2,4.76l-13.13 -14.34 93.78 0 0 -104.99 -39.57 0 -20.51 4.76 -13.19 -14.34 73.27 0 0 -74.82 -51.33 0 -20.5 4.76 -13.19 -14.34zm121.6 106.69c21.5,10.6 35.44,19.1 41.76,25.48 6.37,6.39 9.57,12.71 9.57,19.1 0,5.3 -1.51,10.87 -4.45,16.71 -2.88,5.78 -5.31,8.7 -7.31,8.7 -2.94,0 -5.82,-4.75 -8.75,-14.27 -4.88,-13.79 -16.63,-30.78 -35.2,-50.9l4.38 -4.82zm-161.18 192.78c1.01,-23.37 1.5,-46.2 1.5,-68.49l0 -226.29c0,-20.18 -0.49,-43.56 -1.5,-70.13l22.01 14.48 228.57 0 11.74 -14.48 23.46 20.73 -13.2 9.58 0 251.77c0,21.2 0.5,43.01 1.44,65.3l-21.94 9.58 0 -32 -230.07 0 0 28.74 -22.01 11.21zm22.01 -340.85l0 291.32 230.07 0 0 -291.32 -230.07 0z"/>
  <path id="_2_16" class="fil19" d="M-11489.46 2395.81l0 98.47 45.45 0 0 -98.47 -45.45 0zm-64.46 0l0 98.47 45.39 0 0 -98.47 -45.39 0zm0 108.05l0 100.5 45.39 0 0 -100.5 -45.39 0zm64.46 0l0 100.5 45.45 0 0 -100.5 -45.45 0zm-84.96 149.9c0.94,-16.99 1.43,-33.43 1.43,-49.4l0 -181.5c0,-15.9 -0.49,-32.89 -1.43,-50.97l20.5 14.34 45.39 0c0,-31.87 -0.43,-58.44 -1.44,-79.71l29.32 17.53 -8.81 12.78 0 49.4 43.95 0 10.25 -14.34 20.5 19.16 -10.24 9.52 0 186.33c0,9.51 0.49,26.5 1.49,50.96l-20.5 7.95 0 -31.87 -109.91 0 0 30.24 -20.5 9.58zm243.19 -179.87l32.26 -111.51 -68.89 0 0 302.46 -20.51 12.71c0.99,-31.87 1.5,-54.64 1.5,-68.43l0 -211.75c0,-20.11 -0.51,-40.29 -1.5,-60.47l19.06 15.9 67.4 0 14.63 -15.9 23.44 25.48c-9.75,4.21 -19.25,17.26 -28.57,39 -9.25,21.82 -19.25,45.4 -30.01,70.88 29.32,31.87 44.7,54.97 46.14,69.31 1.5,14.34 2.19,24.12 2.19,29.42 0,16.99 -3.88,30.79 -11.69,41.46 -7.82,10.6 -18.57,17.46 -32.27,20.65 -1.93,-15.9 -16.12,-27.04 -42.44,-33.43l0 -7.95c16.56,2.11 31.01,3.47 43.2,4.01 12.19,0.48 19.07,-6.93 20.51,-22.36 1.5,-15.35 -1.19,-32.61 -8.07,-51.71 -6.81,-19.16 -15.63,-35.06 -26.38,-47.77z"/>
  <path id="_3_17" class="fil19" d="M-11225.71 2365.44l134.79 0 19.08 -20.66 27.81 30.24 -76.21 0 0 92.35 20.51 0 14.69 -15.91 23.44 25.49 -58.64 0 0 109.88 68.89 -19.1 1.45 6.39c-83.03,31.8 -134.79,51.99 -155.3,60.48l-7.31 9.58 -16.13 -31.87c4.88,0 15.63,-2.11 32.26,-6.39 0,-74.27 -0.5,-133.73 -1.5,-178.37l33.7 19.16 -13.2 9.51 0 144.95 38.14 -9.59 0 -216.56 -38.14 0c-12.68,0 -24.38,1.56 -35.13,4.75l-13.2 -14.33zm211 -62.18l32.2 17.53 -11.7 9.51c-4.87,16.99 -11.25,38.26 -19.06,63.68l83.52 0 17.57 -19.1 26.38 28.68 -42.45 0c-5.87,73.25 -19.57,131.69 -41.07,175.25 26.38,37.17 55.2,58.92 86.46,65.3l0 6.32c-15.63,2.18 -25.38,8.56 -29.32,19.17 -27.32,-19.1 -50.76,-44.58 -70.33,-76.45 -41.95,41.38 -87.4,69.51 -136.23,84.4l-1.5 -4.76c49.83,-22.29 91.84,-54.7 126.03,-97.17 -18.56,-45.67 -30.25,-91.88 -35.19,-138.56 -12.69,31.87 -25.38,56.81 -38.07,74.82l-4.37 -3.13c24.38,-55.25 43.44,-123.74 57.13,-205.49zm-1.5 100.3l-7.32 22.29c9.76,56.26 23.45,100.36 41.02,132.17 17.62,-37.11 28.38,-88.62 32.25,-154.46l-65.95 0z"/>
  <path class="fil19" d="M-7902.44 5499.89l0 241.99c0,8.49 2.44,14.88 7.32,19.09 4.87,4.28 11.74,6.39 20.5,6.39l14.69 0 0 9.38 -107.16 0 0 -9.38 13.2 0c9.75,0 16.81,-2.11 21.26,-6.39 4.37,-4.21 6.56,-10.6 6.56,-19.09l0 -192.99c0,-4.21 -1.25,-7.68 -3.69,-10.33 -2.44,-2.65 -6.07,-4.01 -10.94,-4.01l-26.39 0 0 -9.38 13.2 0c11.69,0 21.26,-2.1 28.57,-6.32 7.38,-4.21 13.06,-10.53 17,-18.96l5.88 0z"/>
  <path id="_1_18" class="fil19" d="M-7775.47 5781.63c-5.88,0 -11,-2.11 -15.38,-6.39 -4.37,-4.21 -6.56,-10.06 -6.56,-17.46 0,-7.41 2.19,-13.25 6.56,-17.47 4.38,-4.28 9.5,-6.38 15.38,-6.38 5.88,0 11,2.37 15.38,7.13 4.37,4.76 6.56,10.33 6.56,16.72 0,7.4 -2.19,13.25 -6.56,17.46 -4.38,4.28 -9.5,6.39 -15.38,6.39z"/>
  <path id="_2_19" class="fil19" d="M-7498.46 5571.38c0,-19.09 -3.87,-33.64 -11.68,-43.76 -7.76,-10.06 -19.45,-15.09 -35.02,-15.09 -11.63,0 -21.63,3.47 -29.88,10.33 -8.32,6.93 -12.44,15.63 -12.44,26.23 0,6.39 1.94,11.69 5.87,15.97 2.95,4.21 4.38,8.43 4.38,12.71 0,5.3 -1.25,9.24 -3.69,11.89 -2.44,2.65 -6.06,4.01 -11,4.01 -5.88,0 -10.5,-1.83 -13.94,-5.57 -3.44,-3.67 -5.12,-9.79 -5.12,-18.28 0,-22.22 7.31,-39.14 21.87,-50.83 14.63,-11.62 30.2,-17.46 46.77,-17.46 23.38,0 40.63,6.38 51.82,19.09 11.2,12.71 16.82,28.61 16.82,47.7 0,12.71 -2.69,25.49 -8.06,38.19 -5.32,12.71 -13.88,24.94 -25.58,36.56 -28.25,29.63 -49.94,53.75 -65.08,72.3 -15.12,18.49 -24.13,30.92 -27,37.31l86.27 0c8.81,0 16.14,-3.74 21.94,-11.14 5.88,-7.41 9.76,-18.49 11.76,-33.3l8.75 0 -8.75 68.5 -136.04 0 0 -20.8c4.88,-9.58 12.94,-21.74 24.13,-36.62 11.26,-14.82 26.07,-32.35 44.64,-52.46 16.57,-18.01 28.76,-35 36.58,-50.9 7.81,-15.9 11.68,-30.78 11.68,-44.58z"/>
  <path id="_3_20" class="fil19" d="M-7353.29 5514.16c-13.69,0 -25.2,11.42 -34.45,34.25 -9.32,22.84 -13.94,53.35 -13.94,91.54 0,40.36 4.62,71.69 13.94,93.98 9.25,22.28 20.76,33.43 34.45,33.43 14.63,0 26.13,-11.15 34.44,-33.43 8.32,-22.29 12.45,-53.62 12.45,-93.98 0,-38.19 -3.95,-68.7 -11.76,-91.54 -7.81,-22.83 -19.5,-34.25 -35.13,-34.25zm0 265.84c-21.51,0 -39.57,-12.23 -54.21,-36.63 -14.63,-24.39 -21.94,-58.85 -21.94,-103.42 0,-41.39 7.07,-74.75 21.26,-100.23 14.12,-25.49 32.44,-38.19 54.89,-38.19 21.44,0 39.26,12.23 53.39,36.62 14.19,24.4 21.26,58.31 21.26,101.8 0,43.49 -7.07,77.74 -21.26,102.67 -14.13,24.94 -31.95,37.38 -53.39,37.38z"/>
  <path id="_4_21" class="fil19" d="M-7228.76 5590.61l262.33 0 21.94 -23.85 30.76 33.43 -111.34 0 0 154.46c0,20.18 10.74,29.22 32.25,27.05l33.7 0c14.63,0 23.2,-7.95 25.63,-23.85 2.44,-15.97 4.63,-37.18 6.56,-63.74l7.38 0c0,29.76 0.94,50.42 2.88,62.1 2,11.69 7.37,19.17 16.13,22.29 -9.75,15.97 -23.95,23.92 -42.45,23.92l-63.02 0c-27.38,1.09 -41.07,-10.6 -41.07,-35.06l0 -167.17 -52.7 0c-4.88,69.04 -17.38,118.17 -37.39,147.33 -20,29.22 -53.95,54.43 -101.84,75.7l-2.94 -4.76c49.82,-31.87 81.58,-64.83 95.28,-98.8 13.63,-33.98 21.44,-73.8 23.44,-119.47l-57.14 0c-12.69,0 -24.44,1.57 -35.2,4.76l-13.19 -14.34zm42.51 -101.93l190.5 0 20.5 -22.22 29.32 31.8 -194.92 0c-12.7,0 -23.45,1.57 -32.2,4.76l-13.2 -14.34z"/>
  <path class="fil19" d="M21178.31 1804.55c0,-69.97 22.31,-127.87 66.55,-173.48 38.39,-39.57 85.66,-59.45 141.82,-59.45 65.04,0 116.65,19.88 155.03,59.45 35.55,36.45 53.32,85.18 53.32,146.2 0,60.81 -14.93,106.62 -44.43,137.03 -20.6,21.24 -42.73,33.52 -66.36,36.45 29.49,9.16 54.64,24.36 75.24,45.8 35.55,36.45 53.14,85.19 53.14,146.2 0,66.86 -20.61,121.82 -62.02,164.32 -41.4,42.69 -98.88,64.13 -172.82,64.13 -62.01,0 -113.63,-21.44 -155.03,-64.13 -41.41,-42.5 -62.02,-92.79 -62.02,-150.68l0 -36.64 101.91 0 0 32.16c0,39.57 13.24,73.09 39.89,100.38 20.61,21.45 45.77,31.97 75.25,31.97 38.39,0 69.4,-12.08 93.04,-36.45 23.63,-24.37 35.54,-62.57 35.54,-114.22 0,-42.69 -11.91,-76.22 -35.54,-100.59 -23.64,-24.36 -50.11,-36.45 -79.8,-36.45l-35.35 0 0 -77.77 26.65 0c26.47,0 51.63,-12.09 75.26,-36.45 23.63,-24.37 35.55,-59.45 35.55,-105.06 0,-39.57 -11.92,-71.74 -35.55,-96.1 -17.77,-18.13 -41.41,-27.29 -70.9,-27.29 -26.67,0 -50.3,10.72 -70.91,31.97 -23.64,24.36 -36.87,63.93 -39.89,118.7l-97.57 0z"/>
  <path class="fil19" d="M23266.13 1808.25c0,-69.97 22.31,-127.87 66.55,-173.48 38.39,-39.57 85.66,-59.45 141.82,-59.45 65.04,0 116.65,19.88 155.03,59.45 35.55,36.45 53.32,85.18 53.32,146.2 0,60.81 -14.93,106.62 -44.43,137.03 -20.6,21.24 -42.73,33.52 -66.36,36.45 29.49,9.16 54.64,24.36 75.24,45.8 35.55,36.45 53.14,85.19 53.14,146.2 0,66.86 -20.61,121.82 -62.02,164.32 -41.4,42.69 -98.88,64.13 -172.82,64.13 -62.01,0 -113.63,-21.44 -155.03,-64.13 -41.41,-42.5 -62.02,-92.79 -62.02,-150.68l0 -36.64 101.91 0 0 32.16c0,39.57 13.24,73.09 39.89,100.38 20.61,21.45 45.77,31.97 75.25,31.97 38.39,0 69.4,-12.08 93.04,-36.45 23.63,-24.37 35.54,-62.57 35.54,-114.22 0,-42.69 -11.91,-76.22 -35.54,-100.59 -23.64,-24.36 -50.11,-36.45 -79.8,-36.45l-35.35 0 0 -77.77 26.65 0c26.47,0 51.63,-12.09 75.26,-36.45 23.63,-24.37 35.55,-59.45 35.55,-105.06 0,-39.57 -11.92,-71.74 -35.55,-96.1 -17.77,-18.13 -41.41,-27.29 -70.9,-27.29 -26.67,0 -50.3,10.72 -70.91,31.97 -23.64,24.36 -36.87,63.93 -39.89,118.7l-97.57 0z"/>
  <path class="fil19" d="M25290.19 1991.09c0,-167.63 35.55,-287.9 106.46,-361 35.36,-36.45 79.78,-54.77 132.92,-54.77 56.15,0 101.91,18.32 137.26,54.77 38.39,39.57 57.67,89.86 57.67,150.88l-101.91 0c0,-42.69 -8.88,-73.1 -26.65,-91.42 -17.59,-18.33 -39.9,-27.49 -66.37,-27.49 -26.67,0 -48.78,9.16 -66.56,27.49 -47.27,48.73 -70.9,133.91 -70.9,255.74 11.91,-21.25 26.66,-41.13 44.44,-59.26 26.46,-27.49 58.98,-41.13 97.36,-41.13 53.13,0 97.57,18.32 132.92,54.77 44.44,45.62 66.56,114.23 66.56,205.65 0,94.34 -23.63,165.88 -70.9,214.61 -35.55,36.64 -84.14,54.97 -146.35,54.97 -53.13,0 -101.91,-23 -146.16,-68.62 -53.12,-54.77 -79.79,-159.83 -79.79,-315.19zm234.84 -63.93c-29.5,0 -54.64,10.52 -75.25,31.97 -32.53,33.52 -48.78,79.13 -48.78,137.03 0,73.09 17.77,127.87 53.12,164.51 20.8,21.25 42.92,31.97 66.56,31.97 26.66,0 48.78,-9.16 66.36,-27.49 26.67,-27.48 39.9,-80.69 39.9,-159.83 0,-70.17 -13.23,-118.91 -39.9,-146.19 -20.6,-21.45 -41.21,-31.97 -62.01,-31.97z"/>
  <path class="fil19" d="M27287.8 1849.38c0,-94.34 23.63,-165.88 70.91,-214.61 38.57,-39.57 84.32,-59.45 137.46,-59.45 65.04,0 116.65,19.88 155.03,59.45 38.39,39.57 57.67,88.3 57.67,146.2 0,73.09 -22.12,137.03 -66.55,191.8 -41.22,51.85 -84.14,101.94 -128.38,150.68 -23.64,27.48 -47.27,54.96 -70.91,82.25 -20.8,24.37 -38.38,48.73 -53.13,73.1l332.21 0 0 86.94 -451.89 0 0 -77.78c5.86,-30.41 31.01,-73.1 75.25,-127.87 73.93,-82.26 134.43,-150.67 181.7,-205.64 50.29,-54.78 75.45,-112.67 75.45,-173.48 0,-36.65 -11.92,-67.06 -35.55,-91.42 -17.77,-18.33 -39.9,-27.49 -66.56,-27.49 -23.63,0 -44.24,9.16 -62.02,27.49 -32.51,33.52 -48.59,86.74 -48.59,159.83l-102.1 0z"/>
  <path class="fil19" d="M29258.94 1844.9c0,-91.42 26.67,-164.52 79.79,-219.29 32.53,-33.53 76.77,-50.29 132.92,-50.29 53.14,0 99.08,19.88 137.46,59.45 62.02,63.94 93.03,175.04 93.03,333.52 0,161.39 -32.52,275.62 -97.57,342.48 -41.21,42.69 -89.99,64.13 -146.15,64.13 -56.15,0 -100.4,-16.77 -132.92,-50.29 -38.38,-39.57 -57.66,-91.42 -57.66,-155.36l101.91 0c-3.03,39.57 8.88,73.1 35.55,100.39 11.71,12.28 29.48,18.32 53.12,18.32 26.47,0 50.1,-10.52 70.91,-31.97 47.27,-48.73 70.9,-138.59 70.9,-269.58 -11.91,18.33 -25.15,35.09 -39.9,50.29 -32.51,33.53 -72.41,50.29 -119.68,50.29 -44.25,0 -81.3,-15.2 -110.8,-45.61 -47.27,-48.73 -70.91,-114.22 -70.91,-196.48zm212.71 -187.32c-23.63,0 -44.24,9.16 -62.01,27.29 -29.5,30.6 -44.24,83.82 -44.24,160.03 0,60.82 11.72,103.5 35.36,127.87 20.79,21.25 41.41,31.97 62.01,31.97 35.55,0 62.02,-9.16 79.79,-27.49 32.52,-33.33 48.78,-74.46 48.78,-123.19 0,-76.21 -16.26,-130.99 -48.78,-164.51 -20.61,-21.25 -44.24,-31.97 -70.91,-31.97z"/>
  <path class="fil19" d="M31385.64 1793.11c0,-91.42 26.67,-164.52 79.79,-219.29 32.53,-33.53 76.77,-50.29 132.92,-50.29 53.14,0 99.08,19.88 137.46,59.45 62.02,63.94 93.03,175.04 93.03,333.52 0,161.39 -32.52,275.62 -97.57,342.48 -41.21,42.69 -89.99,64.13 -146.15,64.13 -56.15,0 -100.4,-16.77 -132.92,-50.29 -38.38,-39.57 -57.66,-91.42 -57.66,-155.36l101.91 0c-3.03,39.57 8.88,73.1 35.55,100.39 11.71,12.28 29.48,18.32 53.12,18.32 26.47,0 50.1,-10.52 70.91,-31.97 47.27,-48.73 70.9,-138.59 70.9,-269.58 -11.91,18.33 -25.15,35.09 -39.9,50.29 -32.51,33.53 -72.41,50.29 -119.68,50.29 -44.25,0 -81.3,-15.2 -110.8,-45.61 -47.27,-48.73 -70.91,-114.22 -70.91,-196.48zm212.71 -187.32c-23.63,0 -44.24,9.16 -62.01,27.29 -29.5,30.6 -44.24,83.82 -44.24,160.03 0,60.82 11.72,103.5 35.36,127.87 20.79,21.25 41.41,31.97 62.01,31.97 35.55,0 62.02,-9.16 79.79,-27.49 32.52,-33.33 48.78,-74.46 48.78,-123.19 0,-76.21 -16.26,-130.99 -48.78,-164.51 -20.61,-21.25 -44.24,-31.97 -70.91,-31.97z"/>
  <polygon class="fil3" points="9810.89,22099.05 9174.06,22099.05 9174.06,22424.47 9779.75,22424.47 9779.75,22606.64 9174.06,22606.64 9174.06,23112.68 8965.42,23112.68 8965.42,21916.87 9810.89,21916.87 "/>
  <path id="_1_22" class="fil3" d="M9970.02 22292.12l189.96 0 0 160.38c23.87,-49.83 59.43,-91.35 106.66,-124.57 47.23,-33.21 101.46,-49.82 162.71,-49.82 34.25,0 61.24,3.11 80.96,9.34l0 182.17c-21.8,-6.23 -53.46,-9.34 -94.98,-9.34 -50.86,0 -95.24,10.64 -133.12,31.92 -37.89,21.28 -66.18,52.16 -84.86,92.64 -19.72,43.6 -29.59,111.07 -29.59,202.42l0 325.42 -197.74 0 0 -820.56z"/>
  <path id="_2_23" class="fil3" d="M10853.17 23112.68l-197.74 0 0 -820.56 197.74 0 0 820.56zm-219.54 -1094.6c0,-35.29 10.9,-63.84 32.7,-85.64 21.8,-21.79 50.86,-32.69 87.19,-32.69 36.33,0 65.66,10.9 87.98,32.69 22.31,21.8 33.47,50.35 33.47,85.64 0,34.26 -11.16,62.28 -33.47,84.08 -22.32,21.8 -51.65,32.7 -87.98,32.7 -36.33,0 -65.39,-10.9 -87.19,-32.7 -21.8,-21.8 -32.7,-49.82 -32.7,-84.08z"/>
  <path id="_3_24" class="fil3" d="M11440.49 23136.04c-83.04,0 -155.7,-17.91 -217.99,-53.72 -62.28,-35.81 -110.03,-86.42 -143.24,-151.81 -33.22,-65.4 -49.83,-142.21 -49.83,-230.45 0,-87.19 17.39,-163.48 52.16,-228.88 34.78,-65.4 83.3,-116 145.59,-151.81 62.28,-35.81 133.38,-53.72 213.31,-53.72 69.55,0 134.42,15.31 194.63,45.93 60.21,30.62 108.47,77.34 144.81,140.14 36.33,62.8 54.49,138.83 54.49,228.1 0,25.95 -1.04,50.35 -3.11,73.18l-604.13 0c6.22,71.63 28.28,126.9 66.17,165.83 37.89,38.92 86.93,58.39 147.14,58.39 97.57,0 160.89,-46.71 189.96,-140.14l186.84 45.16c-26.98,82 -73.18,144.8 -138.57,188.4 -65.4,43.6 -144.81,65.4 -238.23,65.4zm196.19 -527.84c-8.31,-58.13 -29.33,-103.28 -63.06,-135.46 -33.74,-32.18 -79.15,-48.27 -136.24,-48.27 -55.02,0 -100.17,15.83 -135.47,47.49 -35.29,31.66 -58.64,77.07 -70.06,136.24l404.83 0z"/>
  <path id="_4_25" class="fil3" d="M12007.57 22292.12l189.96 0 0 126.12c33.22,-45.67 74.22,-82.26 123,-109.77 48.79,-27.51 102.25,-41.26 160.38,-41.26 94.46,0 166.34,27.25 215.65,81.74 49.31,54.5 73.96,132.61 73.96,234.34l0 529.39 -197.74 0 0 -488.91c0,-69.55 -11.68,-119.11 -35.04,-148.7 -23.35,-29.58 -60.46,-44.37 -111.33,-44.37 -35.29,0 -68.77,9.34 -100.43,28.02 -31.66,18.69 -57.35,45.16 -77.07,79.41 -14.53,25.95 -25.43,57.09 -32.7,93.42 -7.26,36.34 -10.9,84.08 -10.9,143.25l0 337.88 -197.74 0 0 -820.56z"/>
  <path id="_5_26" class="fil3" d="M13289.33 23136.04c-68.51,0 -128.71,-17.39 -180.61,-52.17 -51.91,-34.77 -92.65,-85.11 -122.23,-151.03 -29.59,-65.91 -44.38,-142.99 -44.38,-231.22 0,-89.27 14.79,-166.6 44.38,-232 29.58,-65.39 70.84,-115.48 123.78,-150.25 52.94,-34.78 113.15,-52.16 180.62,-52.16 55.01,0 104.84,10.9 149.47,32.7 44.64,21.79 83.05,52.42 115.23,91.86l0 -474.9 196.18 0 0 1195.81 -189.96 0 0 -108.99c-32.17,41.52 -71.36,73.96 -117.55,97.31 -46.19,23.36 -97.84,35.04 -154.93,35.04zm-149.47 -434.42c0,86.16 17.9,153.37 53.71,201.64 35.82,48.27 85.9,72.4 150.26,72.4 68.51,0 122.49,-24.65 161.93,-73.96 39.45,-49.31 59.17,-116 59.17,-200.08 0,-84.08 -19.72,-150.77 -59.17,-200.08 -39.44,-49.3 -93.42,-73.96 -161.93,-73.96 -64.36,0 -114.44,24.14 -150.26,72.4 -35.81,48.27 -53.71,115.49 -53.71,201.64z"/>
  <path id="_6_27" class="fil3" d="M14300.16 23137.59c-111.06,0 -199.82,-23.35 -266.25,-70.06 -66.43,-46.72 -107.95,-109 -124.56,-186.85l193.07 -46.71c9.34,43.6 30.88,79.67 64.62,108.21 33.73,28.55 78.11,42.82 133.12,42.82 51.91,0 90.83,-9.86 116.78,-29.58 25.95,-19.72 38.93,-45.16 38.93,-76.3 0,-30.1 -10.38,-51.9 -31.14,-65.39 -20.76,-13.5 -57.09,-23.36 -109,-29.59l-82.52 -12.45c-108.99,-15.57 -186.32,-43.08 -232,-82.52 -45.67,-39.45 -68.51,-92.39 -68.51,-158.82 0,-48.79 14.02,-93.43 42.04,-133.91 28.03,-40.48 67.47,-72.4 118.34,-95.76 50.86,-23.35 110.55,-35.03 179.06,-35.03 94.46,0 173.35,21.8 236.67,65.4 63.32,43.59 105.36,101.72 126.12,174.38l-185.29 43.6c-11.42,-38.41 -32.7,-69.55 -63.84,-93.42 -31.14,-23.88 -72.14,-35.81 -123,-35.81 -45.68,0 -80.45,9.34 -104.33,28.02 -23.87,18.69 -35.81,41.01 -35.81,66.96 0,23.87 9.86,42.82 29.59,56.83 19.72,14.01 53.97,24.65 102.76,31.92l88.75 12.45c101.73,16.61 177.24,44.9 226.55,84.86 49.31,39.97 73.96,95.24 73.96,165.83 0,82 -30.62,147.66 -91.87,196.96 -61.24,49.31 -145.32,73.96 -252.24,73.96z"/>
  <path id="_7_28" class="fil3" d="M15348.05 23134.48c-86.15,0 -155.18,-20.76 -207.08,-62.28 -51.9,-41.52 -77.85,-98.1 -77.85,-169.72 0,-72.66 26.98,-130.53 80.96,-173.61 53.98,-43.08 134.43,-74.48 241.34,-94.2l63.84 -10.9c55.02,-10.38 94.46,-21.8 118.34,-34.26 23.87,-12.45 35.81,-33.73 35.81,-63.83 0,-31.14 -14.27,-56.32 -42.82,-75.52 -28.55,-19.2 -66.17,-28.81 -112.89,-28.81 -53.97,0 -96.27,14.28 -126.89,42.82 -30.63,28.55 -51.13,63.58 -61.51,105.1l-188.4 -38.92c16.61,-73.7 57.09,-136.24 121.45,-187.63 64.36,-51.38 148.44,-77.07 252.24,-77.07 53.98,0 103.02,6.49 147.14,19.46 44.12,12.98 80.71,31.92 109.77,56.84 65.4,52.93 98.1,127.67 98.1,224.21l0 325.42c0,119.37 4.15,193.07 12.45,221.1l-180.61 0c-6.23,-25.95 -10.9,-58.13 -14.02,-96.54 -30.1,36.33 -68.51,65.14 -115.22,86.42 -46.71,21.28 -98.09,31.92 -154.15,31.92zm-87.19 -246.01c0,30.1 11.68,52.94 35.03,68.51 23.36,15.57 54.24,23.35 92.65,23.35 65.39,0 117.81,-17.39 157.26,-52.16 39.44,-34.77 59.17,-85.9 59.17,-153.37l0 -73.18c-12.46,13.5 -28.55,24.91 -48.27,34.26 -19.72,9.34 -50.35,18.16 -91.87,26.47l-59.17 14.01c-49.82,11.42 -86.41,24.91 -109.77,40.48 -23.35,15.57 -35.03,39.45 -35.03,71.63z"/>
  <path id="_8_29" class="fil3" d="M16376.01 23136.04c-78.89,0 -148.95,-17.91 -210.2,-53.72 -61.24,-35.81 -108.99,-86.68 -143.25,-152.59 -34.25,-65.92 -51.38,-142.47 -51.38,-229.67 0,-87.19 17.13,-163.48 51.38,-228.88 34.26,-65.4 82.01,-116 143.25,-151.81 61.25,-35.81 131.31,-53.72 210.2,-53.72 93.42,0 172.83,23.36 238.23,70.07 65.4,46.71 110.55,111.58 135.46,194.63l-189.96 42.04c-13.49,-46.71 -35.55,-82.53 -66.17,-107.44 -30.62,-24.91 -69.81,-37.37 -117.56,-37.37 -65.39,0 -116.26,24.14 -152.59,72.4 -36.33,48.27 -54.49,114.97 -54.49,200.08 0,86.16 18.16,153.37 54.49,201.64 36.33,48.27 87.2,72.4 152.59,72.4 49.83,0 91.09,-13.75 123.79,-41.26 32.69,-27.51 55.27,-67.21 67.73,-119.11l185.29 46.71c-23.88,86.16 -69.03,153.63 -135.47,202.41 -66.43,48.79 -146.88,73.19 -241.34,73.19z"/>
  <path id="_9" class="fil3" d="M16913.51 22292.12l189.96 0 0 160.38c23.87,-49.83 59.43,-91.35 106.66,-124.57 47.23,-33.21 101.46,-49.82 162.71,-49.82 34.25,0 61.24,3.11 80.96,9.34l0 182.17c-21.8,-6.23 -53.46,-9.34 -94.98,-9.34 -50.86,0 -95.24,10.64 -133.12,31.92 -37.89,21.28 -66.18,52.16 -84.86,92.64 -19.72,43.6 -29.59,111.07 -29.59,202.42l0 325.42 -197.74 0 0 -820.56z"/>
  <path id="_10" class="fil3" d="M17964.83 23136.04c-80.97,0 -152.33,-17.91 -214.09,-53.72 -61.77,-35.81 -110.03,-86.68 -144.81,-152.59 -34.77,-65.92 -52.16,-142.47 -52.16,-229.67 0,-87.19 17.39,-163.48 52.16,-228.88 34.78,-65.4 83.04,-116 144.81,-151.81 61.76,-35.81 133.12,-53.72 214.09,-53.72 79.93,0 150.77,17.91 212.54,53.72 61.76,35.81 110.03,86.41 144.8,151.81 34.78,65.4 52.16,141.69 52.16,228.88 0,87.2 -17.38,163.75 -52.16,229.67 -34.77,65.91 -83.04,116.78 -144.8,152.59 -61.77,35.81 -132.61,53.72 -212.54,53.72zm-213.31 -435.98c0,86.16 18.68,153.37 56.05,201.64 37.37,48.27 89.79,72.4 157.26,72.4 66.43,0 118.34,-24.13 155.7,-72.4 37.37,-48.27 56.06,-115.48 56.06,-201.64 0,-85.11 -18.69,-151.81 -56.06,-200.08 -37.36,-48.26 -89.27,-72.4 -155.7,-72.4 -67.47,0 -119.89,24.14 -157.26,72.4 -37.37,48.27 -56.05,114.97 -56.05,200.08z"/>
  <path id="_11" class="fil3" d="M18894.7 23137.59c-111.06,0 -199.82,-23.35 -266.25,-70.06 -66.43,-46.72 -107.95,-109 -124.56,-186.85l193.07 -46.71c9.34,43.6 30.88,79.67 64.62,108.21 33.73,28.55 78.11,42.82 133.12,42.82 51.91,0 90.83,-9.86 116.78,-29.58 25.95,-19.72 38.93,-45.16 38.93,-76.3 0,-30.1 -10.38,-51.9 -31.14,-65.39 -20.76,-13.5 -57.09,-23.36 -109,-29.59l-82.52 -12.45c-108.99,-15.57 -186.32,-43.08 -232,-82.52 -45.67,-39.45 -68.51,-92.39 -68.51,-158.82 0,-48.79 14.02,-93.43 42.04,-133.91 28.03,-40.48 67.47,-72.4 118.34,-95.76 50.86,-23.35 110.55,-35.03 179.06,-35.03 94.46,0 173.35,21.8 236.67,65.4 63.32,43.59 105.36,101.72 126.12,174.38l-185.29 43.6c-11.42,-38.41 -32.7,-69.55 -63.84,-93.42 -31.14,-23.88 -72.14,-35.81 -123,-35.81 -45.68,0 -80.45,9.34 -104.33,28.02 -23.87,18.69 -35.81,41.01 -35.81,66.96 0,23.87 9.86,42.82 29.59,56.83 19.72,14.01 53.97,24.65 102.76,31.92l88.75 12.45c101.73,16.61 177.24,44.9 226.55,84.86 49.31,39.97 73.96,95.24 73.96,165.83 0,82 -30.62,147.66 -91.87,196.96 -61.24,49.31 -145.32,73.96 -252.24,73.96z"/>
  <path id="_12" class="fil3" d="M19751.39 23137.59c-111.06,0 -199.82,-23.35 -266.25,-70.06 -66.43,-46.72 -107.95,-109 -124.56,-186.85l193.07 -46.71c9.34,43.6 30.88,79.67 64.62,108.21 33.73,28.55 78.11,42.82 133.12,42.82 51.91,0 90.83,-9.86 116.78,-29.58 25.95,-19.72 38.93,-45.16 38.93,-76.3 0,-30.1 -10.38,-51.9 -31.14,-65.39 -20.76,-13.5 -57.09,-23.36 -109,-29.59l-82.52 -12.45c-108.99,-15.57 -186.32,-43.08 -232,-82.52 -45.67,-39.45 -68.51,-92.39 -68.51,-158.82 0,-48.79 14.02,-93.43 42.04,-133.91 28.03,-40.48 67.47,-72.4 118.34,-95.76 50.86,-23.35 110.55,-35.03 179.06,-35.03 94.46,0 173.35,21.8 236.67,65.4 63.32,43.59 105.36,101.72 126.12,174.38l-185.29 43.6c-11.42,-38.41 -32.7,-69.55 -63.84,-93.42 -31.14,-23.88 -72.14,-35.81 -123,-35.81 -45.68,0 -80.45,9.34 -104.33,28.02 -23.87,18.69 -35.81,41.01 -35.81,66.96 0,23.87 9.86,42.82 29.59,56.83 19.72,14.01 53.97,24.65 102.76,31.92l88.75 12.45c101.73,16.61 177.24,44.9 226.55,84.86 49.31,39.97 73.96,95.24 73.96,165.83 0,82 -30.62,147.66 -91.87,196.96 -61.24,49.31 -145.32,73.96 -252.24,73.96z"/>
  <path id="_13" class="fil3" d="M20877.14 23136.04c-93.43,0 -159.86,-20.51 -199.3,-61.51 -39.45,-41 -59.17,-101.98 -59.17,-182.95l0 -440.64 -130.79 0 0 -158.82 130.79 0 0 -300.51 197.74 0 0 300.51 202.42 0 0 158.82 -202.42 0 0 417.28c0,40.49 9.08,68.77 27.25,84.86 18.17,16.09 45.41,24.14 81.74,24.14 40.49,0 77.86,-8.31 112.11,-24.92l0 155.71c-43.6,18.68 -97.05,28.03 -160.37,28.03z"/>
  <path id="_14" class="fil3" d="M21202.87 21916.87l197.74 0 0 492.03c32.18,-43.6 72.15,-78.11 119.9,-103.55 47.75,-25.43 99.65,-38.14 155.7,-38.14 94.46,0 166.34,27.25 215.65,81.74 49.31,54.5 73.96,132.61 73.96,234.34l0 529.39 -197.74 0 0 -488.91c0,-69.55 -11.68,-119.11 -35.04,-148.7 -23.35,-29.58 -60.46,-44.37 -111.33,-44.37 -35.29,0 -68.77,9.34 -100.43,28.02 -31.66,18.69 -57.35,45.16 -77.07,79.41 -14.53,25.95 -25.43,57.09 -32.7,93.42 -7.26,36.34 -10.9,84.08 -10.9,143.25l0 337.88 -197.74 0 0 -1195.81z"/>
  <path id="_15" class="fil3" d="M22548.47 23136.04c-83.04,0 -155.7,-17.91 -217.99,-53.72 -62.28,-35.81 -110.03,-86.42 -143.24,-151.81 -33.22,-65.4 -49.83,-142.21 -49.83,-230.45 0,-87.19 17.39,-163.48 52.16,-228.88 34.78,-65.4 83.3,-116 145.59,-151.81 62.28,-35.81 133.38,-53.72 213.31,-53.72 69.55,0 134.42,15.31 194.63,45.93 60.21,30.62 108.47,77.34 144.81,140.14 36.33,62.8 54.49,138.83 54.49,228.1 0,25.95 -1.04,50.35 -3.11,73.18l-604.13 0c6.22,71.63 28.28,126.9 66.17,165.83 37.89,38.92 86.93,58.39 147.14,58.39 97.57,0 160.89,-46.71 189.96,-140.14l186.84 45.16c-26.98,82 -73.18,144.8 -138.57,188.4 -65.4,43.6 -144.81,65.4 -238.23,65.4zm196.19 -527.84c-8.31,-58.13 -29.33,-103.28 -63.06,-135.46 -33.74,-32.18 -79.15,-48.27 -136.24,-48.27 -55.02,0 -100.17,15.83 -135.47,47.49 -35.29,31.66 -58.64,77.07 -70.06,136.24l404.83 0z"/>
  <polygon id="_16" class="fil3" points="23339.45,22292.12 23551.21,22292.12 23688.23,22924.28 23837.7,22292.12 24086.83,22292.12 24231.63,22924.28 24373.32,22292.12 24583.52,22292.12 24371.77,23112.68 24103.96,23112.68 23959.15,22486.75 23809.67,23112.68 23541.86,23112.68 "/>
  <path id="_17" class="fil3" d="M25103.89 23136.04c-80.97,0 -152.33,-17.91 -214.09,-53.72 -61.77,-35.81 -110.03,-86.68 -144.81,-152.59 -34.77,-65.92 -52.16,-142.47 -52.16,-229.67 0,-87.19 17.39,-163.48 52.16,-228.88 34.78,-65.4 83.04,-116 144.81,-151.81 61.76,-35.81 133.12,-53.72 214.09,-53.72 79.93,0 150.77,17.91 212.54,53.72 61.76,35.81 110.03,86.41 144.8,151.81 34.78,65.4 52.16,141.69 52.16,228.88 0,87.2 -17.38,163.75 -52.16,229.67 -34.77,65.91 -83.04,116.78 -144.8,152.59 -61.77,35.81 -132.61,53.72 -212.54,53.72zm-213.31 -435.98c0,86.16 18.68,153.37 56.05,201.64 37.37,48.27 89.79,72.4 157.26,72.4 66.43,0 118.34,-24.13 155.7,-72.4 37.37,-48.27 56.06,-115.48 56.06,-201.64 0,-85.11 -18.69,-151.81 -56.06,-200.08 -37.36,-48.26 -89.27,-72.4 -155.7,-72.4 -67.47,0 -119.89,24.14 -157.26,72.4 -37.37,48.27 -56.05,114.97 -56.05,200.08z"/>
  <path id="_18" class="fil3" d="M25689.65 22292.12l189.96 0 0 160.38c23.87,-49.83 59.43,-91.35 106.66,-124.57 47.23,-33.21 101.46,-49.82 162.71,-49.82 34.25,0 61.24,3.11 80.96,9.34l0 182.17c-21.8,-6.23 -53.46,-9.34 -94.98,-9.34 -50.86,0 -95.24,10.64 -133.12,31.92 -37.89,21.28 -66.18,52.16 -84.86,92.64 -19.72,43.6 -29.59,111.07 -29.59,202.42l0 325.42 -197.74 0 0 -820.56z"/>
  <polygon id="_19" class="fil3" points="26572.8,23112.68 26375.06,23112.68 26375.06,21916.87 26572.8,21916.87 "/>
  <path id="_20" class="fil3" d="M27096.28 23136.04c-68.51,0 -128.71,-17.39 -180.61,-52.17 -51.91,-34.77 -92.65,-85.11 -122.23,-151.03 -29.59,-65.91 -44.38,-142.99 -44.38,-231.22 0,-89.27 14.79,-166.6 44.38,-232 29.58,-65.39 70.84,-115.48 123.78,-150.25 52.94,-34.78 113.15,-52.16 180.62,-52.16 55.01,0 104.84,10.9 149.47,32.7 44.64,21.79 83.05,52.42 115.23,91.86l0 -474.9 196.18 0 0 1195.81 -189.96 0 0 -108.99c-32.17,41.52 -71.36,73.96 -117.55,97.31 -46.19,23.36 -97.84,35.04 -154.93,35.04zm-149.47 -434.42c0,86.16 17.9,153.37 53.71,201.64 35.82,48.27 85.9,72.4 150.26,72.4 68.51,0 122.49,-24.65 161.93,-73.96 39.45,-49.31 59.17,-116 59.17,-200.08 0,-84.08 -19.72,-150.77 -59.17,-200.08 -39.44,-49.3 -93.42,-73.96 -161.93,-73.96 -64.36,0 -114.44,24.14 -150.26,72.4 -35.81,48.27 -53.71,115.49 -53.71,201.64z"/>
  <path id="_21" class="fil3" d="M28310.77 23134.48c-86.15,0 -155.18,-20.76 -207.08,-62.28 -51.9,-41.52 -77.85,-98.1 -77.85,-169.72 0,-72.66 26.98,-130.53 80.96,-173.61 53.98,-43.08 134.43,-74.48 241.34,-94.2l63.84 -10.9c55.02,-10.38 94.46,-21.8 118.34,-34.26 23.87,-12.45 35.81,-33.73 35.81,-63.83 0,-31.14 -14.27,-56.32 -42.82,-75.52 -28.55,-19.2 -66.17,-28.81 -112.89,-28.81 -53.97,0 -96.27,14.28 -126.89,42.82 -30.63,28.55 -51.13,63.58 -61.51,105.1l-188.4 -38.92c16.61,-73.7 57.09,-136.24 121.45,-187.63 64.36,-51.38 148.44,-77.07 252.24,-77.07 53.98,0 103.02,6.49 147.14,19.46 44.12,12.98 80.71,31.92 109.77,56.84 65.4,52.93 98.1,127.67 98.1,224.21l0 325.42c0,119.37 4.15,193.07 12.45,221.1l-180.61 0c-6.23,-25.95 -10.9,-58.13 -14.02,-96.54 -30.1,36.33 -68.51,65.14 -115.22,86.42 -46.71,21.28 -98.09,31.92 -154.15,31.92zm-87.19 -246.01c0,30.1 11.68,52.94 35.03,68.51 23.36,15.57 54.24,23.35 92.65,23.35 65.39,0 117.81,-17.39 157.26,-52.16 39.44,-34.77 59.17,-85.9 59.17,-153.37l0 -73.18c-12.46,13.5 -28.55,24.91 -48.27,34.26 -19.72,9.34 -50.35,18.16 -91.87,26.47l-59.17 14.01c-49.82,11.42 -86.41,24.91 -109.77,40.48 -23.35,15.57 -35.03,39.45 -35.03,71.63z"/>
  <path id="_22" class="fil3" d="M28969.72 22292.12l189.96 0 0 126.12c33.22,-45.67 74.22,-82.26 123,-109.77 48.79,-27.51 102.25,-41.26 160.38,-41.26 94.46,0 166.34,27.25 215.65,81.74 49.31,54.5 73.96,132.61 73.96,234.34l0 529.39 -197.74 0 0 -488.91c0,-69.55 -11.68,-119.11 -35.04,-148.7 -23.35,-29.58 -60.46,-44.37 -111.33,-44.37 -35.29,0 -68.77,9.34 -100.43,28.02 -31.66,18.69 -57.35,45.16 -77.07,79.41 -14.53,25.95 -25.43,57.09 -32.7,93.42 -7.26,36.34 -10.9,84.08 -10.9,143.25l0 337.88 -197.74 0 0 -820.56z"/>
  <path id="_23" class="fil3" d="M30251.48 23136.04c-68.51,0 -128.71,-17.39 -180.61,-52.17 -51.91,-34.77 -92.65,-85.11 -122.23,-151.03 -29.59,-65.91 -44.38,-142.99 -44.38,-231.22 0,-89.27 14.79,-166.6 44.38,-232 29.58,-65.39 70.84,-115.48 123.78,-150.25 52.94,-34.78 113.15,-52.16 180.62,-52.16 55.01,0 104.84,10.9 149.47,32.7 44.64,21.79 83.05,52.42 115.23,91.86l0 -474.9 196.18 0 0 1195.81 -189.96 0 0 -108.99c-32.17,41.52 -71.36,73.96 -117.55,97.31 -46.19,23.36 -97.84,35.04 -154.93,35.04zm-149.47 -434.42c0,86.16 17.9,153.37 53.71,201.64 35.82,48.27 85.9,72.4 150.26,72.4 68.51,0 122.49,-24.65 161.93,-73.96 39.45,-49.31 59.17,-116 59.17,-200.08 0,-84.08 -19.72,-150.77 -59.17,-200.08 -39.44,-49.3 -93.42,-73.96 -161.93,-73.96 -64.36,0 -114.44,24.14 -150.26,72.4 -35.81,48.27 -53.71,115.49 -53.71,201.64z"/>
  <path id="_24" class="fil3" d="M9325.09 25110.37c-78.89,0 -148.95,-17.91 -210.2,-53.72 -61.24,-35.81 -108.99,-86.68 -143.25,-152.59 -34.25,-65.92 -51.38,-142.47 -51.38,-229.67 0,-87.19 17.13,-163.48 51.38,-228.88 34.26,-65.4 82.01,-116 143.25,-151.81 61.25,-35.81 131.31,-53.72 210.2,-53.72 93.42,0 172.83,23.36 238.23,70.07 65.4,46.71 110.55,111.58 135.46,194.63l-189.96 42.04c-13.49,-46.71 -35.55,-82.53 -66.17,-107.44 -30.62,-24.91 -69.81,-37.37 -117.56,-37.37 -65.39,0 -116.26,24.14 -152.59,72.4 -36.33,48.27 -54.49,114.97 -54.49,200.08 0,86.16 18.16,153.37 54.49,201.64 36.33,48.27 87.2,72.4 152.59,72.4 49.83,0 91.09,-13.75 123.79,-41.26 32.69,-27.51 55.27,-67.21 67.73,-119.11l185.29 46.71c-23.88,86.16 -69.03,153.63 -135.47,202.41 -66.43,48.79 -146.88,73.19 -241.34,73.19z"/>
  <path id="_25" class="fil3" d="M10239.39 25110.37c-80.97,0 -152.33,-17.91 -214.09,-53.72 -61.77,-35.81 -110.03,-86.68 -144.81,-152.59 -34.77,-65.92 -52.16,-142.47 -52.16,-229.67 0,-87.19 17.39,-163.48 52.16,-228.88 34.78,-65.4 83.04,-116 144.81,-151.81 61.76,-35.81 133.12,-53.72 214.09,-53.72 79.93,0 150.77,17.91 212.54,53.72 61.76,35.81 110.03,86.41 144.8,151.81 34.78,65.4 52.16,141.69 52.16,228.88 0,87.2 -17.38,163.75 -52.16,229.67 -34.77,65.91 -83.04,116.78 -144.8,152.59 -61.77,35.81 -132.61,53.72 -212.54,53.72zm-213.31 -435.98c0,86.16 18.68,153.37 56.05,201.64 37.37,48.27 89.79,72.4 157.26,72.4 66.43,0 118.34,-24.13 155.7,-72.4 37.37,-48.27 56.06,-115.48 56.06,-201.64 0,-85.11 -18.69,-151.81 -56.06,-200.08 -37.36,-48.26 -89.27,-72.4 -155.7,-72.4 -67.47,0 -119.89,24.14 -157.26,72.4 -37.37,48.27 -56.05,114.97 -56.05,200.08z"/>
  <path id="_26" class="fil3" d="M10825.15 24266.45l189.96 0 0 126.12c33.22,-45.67 74.22,-82.26 123,-109.77 48.79,-27.51 102.25,-41.26 160.38,-41.26 94.46,0 166.34,27.25 215.65,81.74 49.31,54.5 73.96,132.61 73.96,234.34l0 529.39 -197.74 0 0 -488.91c0,-69.55 -11.68,-119.11 -35.04,-148.7 -23.35,-29.58 -60.46,-44.37 -111.33,-44.37 -35.29,0 -68.77,9.34 -100.43,28.02 -31.66,18.69 -57.35,45.16 -77.07,79.41 -14.53,25.95 -25.43,57.09 -32.7,93.42 -7.26,36.34 -10.9,84.08 -10.9,143.25l0 337.88 -197.74 0 0 -820.56z"/>
  <path id="_27" class="fil3" d="M11795.5 24266.45l189.96 0 0 126.12c33.22,-45.67 74.22,-82.26 123,-109.77 48.79,-27.51 102.25,-41.26 160.38,-41.26 94.46,0 166.34,27.25 215.65,81.74 49.31,54.5 73.96,132.61 73.96,234.34l0 529.39 -197.74 0 0 -488.91c0,-69.55 -11.68,-119.11 -35.04,-148.7 -23.35,-29.58 -60.46,-44.37 -111.33,-44.37 -35.29,0 -68.77,9.34 -100.43,28.02 -31.66,18.69 -57.35,45.16 -77.07,79.41 -14.53,25.95 -25.43,57.09 -32.7,93.42 -7.26,36.34 -10.9,84.08 -10.9,143.25l0 337.88 -197.74 0 0 -820.56z"/>
  <path id="_28" class="fil3" d="M13141.1 25110.37c-83.04,0 -155.7,-17.91 -217.99,-53.72 -62.28,-35.81 -110.03,-86.42 -143.24,-151.81 -33.22,-65.4 -49.83,-142.21 -49.83,-230.45 0,-87.19 17.39,-163.48 52.16,-228.88 34.78,-65.4 83.3,-116 145.59,-151.81 62.28,-35.81 133.38,-53.72 213.31,-53.72 69.55,0 134.42,15.31 194.63,45.93 60.21,30.62 108.47,77.34 144.81,140.14 36.33,62.8 54.49,138.83 54.49,228.1 0,25.95 -1.04,50.35 -3.11,73.18l-604.13 0c6.22,71.63 28.28,126.9 66.17,165.83 37.89,38.92 86.93,58.39 147.14,58.39 97.57,0 160.89,-46.71 189.96,-140.14l186.84 45.16c-26.98,82 -73.18,144.8 -138.57,188.4 -65.4,43.6 -144.81,65.4 -238.23,65.4zm196.19 -527.84c-8.31,-58.13 -29.33,-103.28 -63.06,-135.46 -33.74,-32.18 -79.15,-48.27 -136.24,-48.27 -55.02,0 -100.17,15.83 -135.47,47.49 -35.29,31.66 -58.64,77.07 -70.06,136.24l404.83 0z"/>
  <path id="_29" class="fil3" d="M14094.32 25110.37c-78.89,0 -148.95,-17.91 -210.2,-53.72 -61.24,-35.81 -108.99,-86.68 -143.25,-152.59 -34.25,-65.92 -51.38,-142.47 -51.38,-229.67 0,-87.19 17.13,-163.48 51.38,-228.88 34.26,-65.4 82.01,-116 143.25,-151.81 61.25,-35.81 131.31,-53.72 210.2,-53.72 93.42,0 172.83,23.36 238.23,70.07 65.4,46.71 110.55,111.58 135.46,194.63l-189.96 42.04c-13.49,-46.71 -35.55,-82.53 -66.17,-107.44 -30.62,-24.91 -69.81,-37.37 -117.56,-37.37 -65.39,0 -116.26,24.14 -152.59,72.4 -36.33,48.27 -54.49,114.97 -54.49,200.08 0,86.16 18.16,153.37 54.49,201.64 36.33,48.27 87.2,72.4 152.59,72.4 49.83,0 91.09,-13.75 123.79,-41.26 32.69,-27.51 55.27,-67.21 67.73,-119.11l185.29 46.71c-23.88,86.16 -69.03,153.63 -135.47,202.41 -66.43,48.79 -146.88,73.19 -241.34,73.19z"/>
  <path id="_30" class="fil3" d="M14975.93 25110.37c-93.43,0 -159.86,-20.51 -199.3,-61.51 -39.45,-41 -59.17,-101.98 -59.17,-182.95l0 -440.64 -130.79 0 0 -158.82 130.79 0 0 -300.51 197.74 0 0 300.51 202.42 0 0 158.82 -202.42 0 0 417.28c0,40.49 9.08,68.77 27.25,84.86 18.17,16.09 45.41,24.14 81.74,24.14 40.49,0 77.86,-8.31 112.11,-24.92l0 155.71c-43.6,18.68 -97.05,28.03 -160.37,28.03z"/>
  <path id="_31" class="fil3" d="M15499.4 25087.01l-197.74 0 0 -820.56 197.74 0 0 820.56zm-219.54 -1094.6c0,-35.29 10.9,-63.84 32.7,-85.64 21.8,-21.79 50.86,-32.69 87.19,-32.69 36.33,0 65.66,10.9 87.98,32.69 22.31,21.8 33.47,50.35 33.47,85.64 0,34.26 -11.16,62.28 -33.47,84.08 -22.32,21.8 -51.65,32.7 -87.98,32.7 -36.33,0 -65.39,-10.9 -87.19,-32.7 -21.8,-21.8 -32.7,-49.82 -32.7,-84.08z"/>
  <path id="_32" class="fil3" d="M15708.36 24266.45l189.96 0 0 126.12c33.22,-45.67 74.22,-82.26 123,-109.77 48.79,-27.51 102.25,-41.26 160.38,-41.26 94.46,0 166.34,27.25 215.65,81.74 49.31,54.5 73.96,132.61 73.96,234.34l0 529.39 -197.74 0 0 -488.91c0,-69.55 -11.68,-119.11 -35.04,-148.7 -23.35,-29.58 -60.46,-44.37 -111.33,-44.37 -35.29,0 -68.77,9.34 -100.43,28.02 -31.66,18.69 -57.35,45.16 -77.07,79.41 -14.53,25.95 -25.43,57.09 -32.7,93.42 -7.26,36.34 -10.9,84.08 -10.9,143.25l0 337.88 -197.74 0 0 -820.56z"/>
  <path id="_33" class="fil3" d="M17043.06 25428c-106.92,0 -192.81,-21.54 -257.69,-64.62 -64.88,-43.07 -108.73,-97.31 -131.57,-162.71l193.07 -65.39c11.42,39.44 34,72.14 67.74,98.09 33.73,25.95 77.59,38.93 131.57,38.93 71.62,0 124.56,-17.39 158.81,-52.16 34.26,-34.78 51.39,-91.09 51.39,-168.94l0 -93.42c-32.18,38.4 -70.59,67.73 -115.23,87.97 -44.63,20.24 -94.46,30.36 -149.47,30.36 -67.47,0 -127.68,-16.61 -180.62,-49.82 -52.94,-33.22 -94.2,-81.23 -123.78,-144.03 -29.59,-62.8 -44.38,-137.28 -44.38,-223.44 0,-86.15 14.79,-160.37 44.38,-222.65 29.58,-62.28 70.32,-110.29 122.23,-144.03 51.9,-33.73 112.1,-50.6 180.61,-50.6 57.09,0 108.74,11.16 154.93,33.47 46.19,22.32 85.38,53.72 117.55,94.2l0 -102.76 189.96 0 0 787.86c0,121.45 -35.81,214.1 -107.43,277.93 -71.63,63.84 -172.32,95.76 -302.07,95.76zm-202.41 -769.18c0,82.01 17.9,145.33 53.71,189.96 35.82,44.64 85.9,66.96 150.26,66.96 68.51,0 122.49,-23.1 161.93,-69.29 39.45,-46.19 59.17,-108.74 59.17,-187.63 0,-77.85 -19.72,-140.13 -59.17,-186.84 -39.44,-46.71 -93.42,-70.07 -161.93,-70.07 -64.36,0 -114.44,22.32 -150.26,66.96 -35.81,44.63 -53.71,107.95 -53.71,189.95z"/>
  <path id="_34" class="fil3" d="M18280.92 25110.37c-93.43,0 -159.86,-20.51 -199.3,-61.51 -39.45,-41 -59.17,-101.98 -59.17,-182.95l0 -440.64 -130.79 0 0 -158.82 130.79 0 0 -300.51 197.74 0 0 300.51 202.42 0 0 158.82 -202.42 0 0 417.28c0,40.49 9.08,68.77 27.25,84.86 18.17,16.09 45.41,24.14 81.74,24.14 40.49,0 77.86,-8.31 112.11,-24.92l0 155.71c-43.6,18.68 -97.05,28.03 -160.37,28.03z"/>
  <path id="_35" class="fil3" d="M18606.65 23891.2l197.74 0 0 492.03c32.18,-43.6 72.15,-78.11 119.9,-103.55 47.75,-25.43 99.65,-38.14 155.7,-38.14 94.46,0 166.34,27.25 215.65,81.74 49.31,54.5 73.96,132.61 73.96,234.34l0 529.39 -197.74 0 0 -488.91c0,-69.55 -11.68,-119.11 -35.04,-148.7 -23.35,-29.58 -60.46,-44.37 -111.33,-44.37 -35.29,0 -68.77,9.34 -100.43,28.02 -31.66,18.69 -57.35,45.16 -77.07,79.41 -14.53,25.95 -25.43,57.09 -32.7,93.42 -7.26,36.34 -10.9,84.08 -10.9,143.25l0 337.88 -197.74 0 0 -1195.81z"/>
  <path id="_36" class="fil3" d="M19952.25 25110.37c-83.04,0 -155.7,-17.91 -217.99,-53.72 -62.28,-35.81 -110.03,-86.42 -143.24,-151.81 -33.22,-65.4 -49.83,-142.21 -49.83,-230.45 0,-87.19 17.39,-163.48 52.16,-228.88 34.78,-65.4 83.3,-116 145.59,-151.81 62.28,-35.81 133.38,-53.72 213.31,-53.72 69.55,0 134.42,15.31 194.63,45.93 60.21,30.62 108.47,77.34 144.81,140.14 36.33,62.8 54.49,138.83 54.49,228.1 0,25.95 -1.04,50.35 -3.11,73.18l-604.13 0c6.22,71.63 28.28,126.9 66.17,165.83 37.89,38.92 86.93,58.39 147.14,58.39 97.57,0 160.89,-46.71 189.96,-140.14l186.84 45.16c-26.98,82 -73.18,144.8 -138.57,188.4 -65.4,43.6 -144.81,65.4 -238.23,65.4zm196.19 -527.84c-8.31,-58.13 -29.33,-103.28 -63.06,-135.46 -33.74,-32.18 -79.15,-48.27 -136.24,-48.27 -55.02,0 -100.17,15.83 -135.47,47.49 -35.29,31.66 -58.64,77.07 -70.06,136.24l404.83 0z"/>
  <path id="_37" class="fil3" d="M21185.43 25110.37c-83.04,0 -155.7,-17.91 -217.99,-53.72 -62.28,-35.81 -110.03,-86.42 -143.24,-151.81 -33.22,-65.4 -49.83,-142.21 -49.83,-230.45 0,-87.19 17.39,-163.48 52.16,-228.88 34.78,-65.4 83.3,-116 145.59,-151.81 62.28,-35.81 133.38,-53.72 213.31,-53.72 69.55,0 134.42,15.31 194.63,45.93 60.21,30.62 108.47,77.34 144.81,140.14 36.33,62.8 54.49,138.83 54.49,228.1 0,25.95 -1.04,50.35 -3.11,73.18l-604.13 0c6.22,71.63 28.28,126.9 66.17,165.83 37.89,38.92 86.93,58.39 147.14,58.39 97.57,0 160.89,-46.71 189.96,-140.14l186.84 45.16c-26.98,82 -73.18,144.8 -138.57,188.4 -65.4,43.6 -144.81,65.4 -238.23,65.4zm196.19 -527.84c-8.31,-58.13 -29.33,-103.28 -63.06,-135.46 -33.74,-32.18 -79.15,-48.27 -136.24,-48.27 -55.02,0 -100.17,15.83 -135.47,47.49 -35.29,31.66 -58.64,77.07 -70.06,136.24l404.83 0z"/>
  <path id="_38" class="fil3" d="M21752.51 24266.45l189.96 0 0 126.12c33.22,-45.67 74.22,-82.26 123,-109.77 48.79,-27.51 102.25,-41.26 160.38,-41.26 94.46,0 166.34,27.25 215.65,81.74 49.31,54.5 73.96,132.61 73.96,234.34l0 529.39 -197.74 0 0 -488.91c0,-69.55 -11.68,-119.11 -35.04,-148.7 -23.35,-29.58 -60.46,-44.37 -111.33,-44.37 -35.29,0 -68.77,9.34 -100.43,28.02 -31.66,18.69 -57.35,45.16 -77.07,79.41 -14.53,25.95 -25.43,57.09 -32.7,93.42 -7.26,36.34 -10.9,84.08 -10.9,143.25l0 337.88 -197.74 0 0 -820.56z"/>
  <path id="_39" class="fil3" d="M23049.84 25110.37c-93.43,0 -159.86,-20.51 -199.3,-61.51 -39.45,-41 -59.17,-101.98 -59.17,-182.95l0 -440.64 -130.79 0 0 -158.82 130.79 0 0 -300.51 197.74 0 0 300.51 202.42 0 0 158.82 -202.42 0 0 417.28c0,40.49 9.08,68.77 27.25,84.86 18.17,16.09 45.41,24.14 81.74,24.14 40.49,0 77.86,-8.31 112.11,-24.92l0 155.71c-43.6,18.68 -97.05,28.03 -160.37,28.03z"/>
  <path id="_40" class="fil3" d="M23573.31 25087.01l-197.74 0 0 -820.56 197.74 0 0 820.56zm-219.54 -1094.6c0,-35.29 10.9,-63.84 32.7,-85.64 21.8,-21.79 50.86,-32.69 87.19,-32.69 36.33,0 65.66,10.9 87.98,32.69 22.31,21.8 33.47,50.35 33.47,85.64 0,34.26 -11.16,62.28 -33.47,84.08 -22.32,21.8 -51.65,32.7 -87.98,32.7 -36.33,0 -65.39,-10.9 -87.19,-32.7 -21.8,-21.8 -32.7,-49.82 -32.7,-84.08z"/>
  <path id="_41" class="fil3" d="M23782.27 24266.45l189.96 0 0 160.38c23.87,-49.83 59.43,-91.35 106.66,-124.57 47.23,-33.21 101.46,-49.82 162.71,-49.82 34.25,0 61.24,3.11 80.96,9.34l0 182.17c-21.8,-6.23 -53.46,-9.34 -94.98,-9.34 -50.86,0 -95.24,10.64 -133.12,31.92 -37.89,21.28 -66.18,52.16 -84.86,92.64 -19.72,43.6 -29.59,111.07 -29.59,202.42l0 325.42 -197.74 0 0 -820.56z"/>
  <path id="_42" class="fil3" d="M24833.59 25110.37c-83.04,0 -155.7,-17.91 -217.99,-53.72 -62.28,-35.81 -110.03,-86.42 -143.24,-151.81 -33.22,-65.4 -49.83,-142.21 -49.83,-230.45 0,-87.19 17.39,-163.48 52.16,-228.88 34.78,-65.4 83.3,-116 145.59,-151.81 62.28,-35.81 133.38,-53.72 213.31,-53.72 69.55,0 134.42,15.31 194.63,45.93 60.21,30.62 108.47,77.34 144.81,140.14 36.33,62.8 54.49,138.83 54.49,228.1 0,25.95 -1.04,50.35 -3.11,73.18l-604.13 0c6.22,71.63 28.28,126.9 66.17,165.83 37.89,38.92 86.93,58.39 147.14,58.39 97.57,0 160.89,-46.71 189.96,-140.14l186.84 45.16c-26.98,82 -73.18,144.8 -138.57,188.4 -65.4,43.6 -144.81,65.4 -238.23,65.4zm196.19 -527.84c-8.31,-58.13 -29.33,-103.28 -63.06,-135.46 -33.74,-32.18 -79.15,-48.27 -136.24,-48.27 -55.02,0 -100.17,15.83 -135.47,47.49 -35.29,31.66 -58.64,77.07 -70.06,136.24l404.83 0z"/>
  <path id="_43" class="fil3" d="M25688.41 24266.45l189.96 0 0 126.12c33.22,-45.67 74.22,-82.26 123,-109.77 48.79,-27.51 102.25,-41.26 160.38,-41.26 94.46,0 166.34,27.25 215.65,81.74 49.31,54.5 73.96,132.61 73.96,234.34l0 529.39 -197.74 0 0 -488.91c0,-69.55 -11.68,-119.11 -35.04,-148.7 -23.35,-29.58 -60.46,-44.37 -111.33,-44.37 -35.29,0 -68.77,9.34 -100.43,28.02 -31.66,18.69 -57.35,45.16 -77.07,79.41 -14.53,25.95 -25.43,57.09 -32.7,93.42 -7.26,36.34 -10.9,84.08 -10.9,143.25l0 337.88 -197.74 0 0 -820.56z"/>
  <path id="_44" class="fil3" d="M27034.01 25110.37c-83.04,0 -155.7,-17.91 -217.99,-53.72 -62.28,-35.81 -110.03,-86.42 -143.24,-151.81 -33.22,-65.4 -49.83,-142.21 -49.83,-230.45 0,-87.19 17.39,-163.48 52.16,-228.88 34.78,-65.4 83.3,-116 145.59,-151.81 62.28,-35.81 133.38,-53.72 213.31,-53.72 69.55,0 134.42,15.31 194.63,45.93 60.21,30.62 108.47,77.34 144.81,140.14 36.33,62.8 54.49,138.83 54.49,228.1 0,25.95 -1.04,50.35 -3.11,73.18l-604.13 0c6.22,71.63 28.28,126.9 66.17,165.83 37.89,38.92 86.93,58.39 147.14,58.39 97.57,0 160.89,-46.71 189.96,-140.14l186.84 45.16c-26.98,82 -73.18,144.8 -138.57,188.4 -65.4,43.6 -144.81,65.4 -238.23,65.4zm196.19 -527.84c-8.31,-58.13 -29.33,-103.28 -63.06,-135.46 -33.74,-32.18 -79.15,-48.27 -136.24,-48.27 -55.02,0 -100.17,15.83 -135.47,47.49 -35.29,31.66 -58.64,77.07 -70.06,136.24l404.83 0z"/>
  <path id="_45" class="fil3" d="M27932.74 25110.37c-93.43,0 -159.86,-20.51 -199.3,-61.51 -39.45,-41 -59.17,-101.98 -59.17,-182.95l0 -440.64 -130.79 0 0 -158.82 130.79 0 0 -300.51 197.74 0 0 300.51 202.42 0 0 158.82 -202.42 0 0 417.28c0,40.49 9.08,68.77 27.25,84.86 18.17,16.09 45.41,24.14 81.74,24.14 40.49,0 77.86,-8.31 112.11,-24.92l0 155.71c-43.6,18.68 -97.05,28.03 -160.37,28.03z"/>
  <polygon id="_46" class="fil3" points="28208.65,24266.45 28420.41,24266.45 28557.43,24898.61 28706.9,24266.45 28956.03,24266.45 29100.83,24898.61 29242.52,24266.45 29452.72,24266.45 29240.97,25087.01 28973.16,25087.01 28828.35,24461.08 28678.87,25087.01 28411.06,25087.01 "/>
  <path id="_47" class="fil3" d="M29973.09 25110.37c-80.97,0 -152.33,-17.91 -214.09,-53.72 -61.77,-35.81 -110.03,-86.68 -144.81,-152.59 -34.77,-65.92 -52.16,-142.47 -52.16,-229.67 0,-87.19 17.39,-163.48 52.16,-228.88 34.78,-65.4 83.04,-116 144.81,-151.81 61.76,-35.81 133.12,-53.72 214.09,-53.72 79.93,0 150.77,17.91 212.54,53.72 61.76,35.81 110.03,86.41 144.8,151.81 34.78,65.4 52.16,141.69 52.16,228.88 0,87.2 -17.38,163.75 -52.16,229.67 -34.77,65.91 -83.04,116.78 -144.8,152.59 -61.77,35.81 -132.61,53.72 -212.54,53.72zm-213.31 -435.98c0,86.16 18.68,153.37 56.05,201.64 37.37,48.27 89.79,72.4 157.26,72.4 66.43,0 118.34,-24.13 155.7,-72.4 37.37,-48.27 56.06,-115.48 56.06,-201.64 0,-85.11 -18.69,-151.81 -56.06,-200.08 -37.36,-48.26 -89.27,-72.4 -155.7,-72.4 -67.47,0 -119.89,24.14 -157.26,72.4 -37.37,48.27 -56.05,114.97 -56.05,200.08z"/>
  <path id="_48" class="fil3" d="M30558.85 24266.45l189.96 0 0 160.38c23.87,-49.83 59.43,-91.35 106.66,-124.57 47.23,-33.21 101.46,-49.82 162.71,-49.82 34.25,0 61.24,3.11 80.96,9.34l0 182.17c-21.8,-6.23 -53.46,-9.34 -94.98,-9.34 -50.86,0 -95.24,10.64 -133.12,31.92 -37.89,21.28 -66.18,52.16 -84.86,92.64 -19.72,43.6 -29.59,111.07 -29.59,202.42l0 325.42 -197.74 0 0 -820.56z"/>
  <polygon id="_49" class="fil3" points="31244.26,23891.2 31442,23891.2 31442,24596.54 31747.18,24266.45 32002.54,24266.45 31647.53,24630.8 32036.79,25087.01 31778.32,25087.01 31442,24680.62 31442,25087.01 31244.26,25087.01 "/>
 </g>
</svg>
