<?xml version="1.0" encoding="UTF-8"?>
<!DOCTYPE svg PUBLIC "-//W3C//DTD SVG 1.1//EN" "http://www.w3.org/Graphics/SVG/1.1/DTD/svg11.dtd">
<!-- Creator: CorelDRAW -->
<svg xmlns="http://www.w3.org/2000/svg" xml:space="preserve" width="46.3972mm" height="46.5666mm" version="1.1" style="shape-rendering:geometricPrecision; text-rendering:geometricPrecision; image-rendering:optimizeQuality; fill-rule:evenodd; clip-rule:evenodd"
viewBox="0 0 4639.72 4656.66"
 xmlns:xlink="http://www.w3.org/1999/xlink"
 xmlns:xodm="http://www.corel.com/coreldraw/odm/2003">
 <defs>
  <style type="text/css">
   <![CDATA[
    .str0 {stroke:#373435;stroke-width:16.93;stroke-miterlimit:22.9256}
    .fil0 {fill:#52658C}
    .fil3 {fill:#E6E7E8;fill-rule:nonzero}
    .fil2 {fill:#F7ADAF;fill-rule:nonzero}
    .fil1 {fill:#F58634;fill-rule:nonzero}
   ]]>
  </style>
 </defs>
 <g id="圖層_x0020_1">
  <metadata id="CorelCorpID_0Corel-Layer"/>
  <rect class="fil0 str0" x="-110.07" y="-54.16" width="4876.8" height="4875.14"/>
  <path class="fil1" d="M1649.79 3057.17c-228.78,0 -405.94,-54.4 -531.49,-163.21 -125.55,-108.81 -201.34,-258.08 -227.38,-447.79l351.54 -55.8c13.02,109.74 54.87,198.08 125.54,265.04 70.68,66.96 164.61,100.44 281.79,100.44 132.06,0 231.1,-39.06 297.13,-117.18 66.03,-78.12 99.05,-179.48 99.05,-304.1 0,-124.62 -30.23,-220.88 -90.68,-288.76 -60.45,-67.89 -153.91,-101.84 -280.39,-101.84 -55.8,0 -107.88,7.44 -156.24,22.32 -48.36,14.88 -88.35,34.41 -119.97,58.59l-133.91 -203.67 633.32 -633.32 -926.27 0 0 -318.06 1347.55 0 0 306.9 -479.87 485.45c174.84,22.32 314.34,90.21 418.5,203.67 104.15,113.46 156.23,267.84 156.23,463.14 0,119.04 -26.97,234.82 -80.91,347.35 -53.94,112.53 -138.56,204.13 -253.88,274.81 -115.32,70.68 -258.54,106.02 -429.66,106.02z"/>
  <path class="fil2" d="M2542.8 3020.61c25.62,-319.22 110.72,-643.57 255.29,-973.06 144.58,-329.49 316.6,-615.58 516.08,-858.26l-1004.7 0 0 -319.22 1405.47 0 0 316.42c-203.13,233.35 -377.44,510.1 -522.93,830.26 -145.49,320.15 -232.88,654.77 -262.16,1003.86l-387.05 0z"/>
  <path class="fil3" d="M1252.58 3201.11c78.82,0 140.41,16.38 184.79,49.12 44.38,32.75 66.57,79.62 66.57,140.61 0,39.17 -11.1,72.55 -33.29,100.16 -22.18,27.61 -50.82,47.19 -85.93,58.75 44.38,12.2 79.48,33.55 105.31,64.04 25.84,30.5 38.76,68.86 38.76,115.09 0,64.21 -22.36,115.57 -67.07,154.1 -44.71,38.52 -110.11,57.78 -196.22,57.78l-331.84 0 0 -739.65 318.92 0zm3.97 629.86c49.01,0 84.78,-9.79 107.3,-29.38 22.52,-19.58 33.79,-47.03 33.79,-82.34 0,-34.67 -12.26,-62.12 -36.77,-82.34 -24.5,-20.23 -59.94,-30.34 -106.3,-30.34l-187.78 0 0 224.4 189.76 0zm-3.97 -332.26c39.74,0 69.71,-8.35 89.92,-25.04 20.2,-16.7 30.3,-40.45 30.3,-71.27 0,-29.54 -9.77,-52.17 -29.31,-67.9 -19.54,-15.73 -49.84,-23.59 -90.91,-23.59l-185.79 0 0 187.8 185.79 0z"/>
  <polygon id="_1" class="fil3" points="1781.33,3828.08 2142.97,3828.08 2142.97,3940.76 1648.2,3940.76 1648.2,3201.11 1781.33,3201.11 "/>
  <path id="_2" class="fil3" d="M2538.6 3956.17c-70.88,0 -133.3,-15.73 -187.28,-47.19 -53.99,-31.46 -96.05,-76.41 -126.18,-134.83 -30.14,-58.43 -45.21,-126.17 -45.21,-203.21 0,-77.05 15.07,-144.79 45.21,-203.21 30.13,-58.43 72.19,-103.37 126.18,-134.83 53.98,-31.46 116.4,-47.19 187.28,-47.19 70.87,0 133.3,15.73 187.28,47.19 53.98,31.46 96.04,76.4 126.17,134.83 30.15,58.42 45.21,126.16 45.21,203.21 0,77.04 -15.06,144.78 -45.21,203.21 -30.13,58.42 -72.19,103.37 -126.17,134.83 -53.98,31.46 -116.41,47.19 -187.28,47.19zm-223.55 -385.23c0,85.39 19.54,151.84 58.62,199.35 39.08,47.52 94.05,71.27 164.93,71.27 70.87,0 125.84,-23.75 164.92,-71.27 39.08,-47.51 58.62,-113.96 58.62,-199.35 0,-86.04 -19.54,-152.65 -58.62,-199.84 -39.08,-47.19 -94.05,-70.79 -164.92,-70.79 -70.88,0 -125.85,23.6 -164.93,70.79 -39.08,47.19 -58.62,113.8 -58.62,199.84z"/>
  <path id="_3" class="fil3" d="M3338.58 3955.21c-68.22,0 -127.66,-15.73 -178.33,-47.19 -50.67,-31.47 -89.59,-76.25 -116.74,-134.35 -27.16,-58.11 -40.74,-125.69 -40.74,-202.73 0,-77.05 15.07,-144.79 45.21,-203.21 30.13,-58.43 72.19,-103.37 126.17,-134.83 53.99,-31.46 116.41,-47.19 187.28,-47.19 80.81,0 149.03,19.1 204.68,57.3 55.63,38.2 95.37,91.97 119.22,161.31l-127.18 37.56c-13.9,-45.58 -37.41,-80.57 -70.54,-104.97 -33.11,-24.4 -75.17,-36.6 -126.18,-36.6 -70.87,0 -125.84,23.6 -164.92,70.79 -39.08,47.19 -58.62,113.8 -58.62,199.84 0,84.75 19.21,151.04 57.63,198.87 38.42,47.84 91.07,71.75 157.97,71.75 58.29,0 107.13,-16.37 146.54,-49.11 39.41,-32.75 62.77,-77.69 70.05,-134.84l-229.5 0 0 -113.64 361.64 0 0 396.79 -114.26 0 -10.93 -105.94c-26.49,37.88 -59.77,67.42 -99.85,88.6 -40.07,21.19 -86.27,31.79 -138.6,31.79z"/>
 </g>
</svg>
