<?xml version="1.0" encoding="utf-8"?>
<!-- Generator: Adobe Illustrator 28.0.0, SVG Export Plug-In . SVG Version: 6.00 Build 0)  -->
<svg version="1.1" id="Layer_2" xmlns="http://www.w3.org/2000/svg" xmlns:xlink="http://www.w3.org/1999/xlink" x="0px" y="0px"
	 viewBox="0 0 85 45.8" style="enable-background:new 0 0 85 45.8;" xml:space="preserve">
<style type="text/css">
	.st0{fill:#282828;}
	.st1{fill:#0473EA;}
	.st2{fill:#50DD8C;}
	.st3{fill:#0A108F;}
	.st4{font-family:'HarmonyOS_Sans_Black';}
	.st5{font-size:1.545px;}
	.st6{fill:#D7D7D8;}
	.st7{font-family:'HarmonyOS_Sans_Bold';}
	.st8{font-size:11.3996px;}
	.st9{fill:#525355;}
	.st10{font-family:'MS-UIGothic';}
	.st11{font-size:12px;}
</style>
<g id="text_00000005949591350882824650000000751189715446452873_">
	<path class="st0" d="M1.5,39.1l0.4,0.5c0.8,1.1,2.4,1.4,3.5,0.6l11.6-8.4c1.1-0.8,1.4-2.4,0.6-3.5l-0.4-0.5
		c-0.8-1.1-2.4-1.4-3.5-0.6L2.1,35.6C0.9,36.4,0.7,37.9,1.5,39.1z"/>
	<path class="st1" d="M15.8,32.7l2.2-1.6c0.6-0.4,0.7-1.2,0.3-1.8l-11-15.6c-0.4-0.6-1.2-0.7-1.8-0.3L3.3,15
		c-0.6,0.4-0.7,1.2-0.3,1.8l11.1,15.5C14.4,33,15.2,33.1,15.8,32.7z"/>
	<path class="st2" d="M2.6,16.4L3,16.9c0.8,1.1,2.4,1.4,3.5,0.6l10-7.2c1.1-0.8,1.4-2.4,0.6-3.5l-0.4-0.5c-0.8-1.1-2.4-1.4-3.5-0.6
		l-10,7.2C2,13.7,1.8,15.3,2.6,16.4z"/>
	<circle class="st1" cx="4.8" cy="15.2" r="1"/>
	<circle class="st0" cx="15.3" cy="29.6" r="1"/>
	<text transform="matrix(1 0 0 1 4.3626 15.8029)" class="st3 st4 st5">3</text>
	<text transform="matrix(1 0 0 1 14.7919 30.2137)" class="st6 st4 st5">7</text>
</g>
<text transform="matrix(1 0 0 1 18.2402 15.4485)" class="st1 st7 st8">T</text>
<text transform="matrix(1 0 0 1 25.1402 15.4485)" class="st9 st7 st8">hirty</text>
<text transform="matrix(1 0 0 1 51.1402 15.4485)" class="st1 st7 st8">S</text>
<text transform="matrix(1 0 0 1 57.8402 15.4485)" class="st9 st7 st8">even</text>
<text transform="matrix(1 0 0 1 18.3314 27.3389)" class="st9 st7 st8">World-WEB</text>
<text transform="matrix(1 0 0 1 18.1489 39.627)" class="st9 st10 st11">三七世界</text>
</svg>
