<?xml version="1.0" encoding="UTF-8"?>
<svg id="_图层_1" data-name="图层 1" xmlns="http://www.w3.org/2000/svg" viewBox="0 0 819 772">
  <defs>
    <style>
      .cls-1 {
        fill: #017cd3;
      }

      .cls-1, .cls-2, .cls-3 {
        stroke-width: 0px;
      }

      .cls-2 {
        fill: #f15001;
      }

      .cls-3 {
        fill: #fefefd;
      }
    </style>
  </defs>
  <path class="cls-3" d="m442.99,771.91c-146.13,0-292.27-.02-438.4.09-3.75,0-4.6-.84-4.59-4.59.11-128.47.09-256.94.09-385.41,1.45.66.92,1.99.97,3.06.73,13.64,1.4,27.28,2.12,40.92.11,2.05-.5,4.44,2.77,4.91,20.73,3.01,41.46,6.05,62.17,9.22,3.74.57,3.27-1.42,2.83-3.69-5.19-26.76-7.2-53.77-6.06-81,.13-3.15-.67-3.51-3.6-2.84-12.21,2.77-24.46,5.43-36.76,7.79-8.14,1.56-16.12,4.02-24.44,4.64C.09,244.87.11,124.73,0,4.59,0,.84.84,0,4.59,0c139.47.11,278.94.09,418.4.09-8.25,20.78-16.49,41.57-24.74,62.35q-2.3,5.79,3.75,5.71c29.12-.38,57.74,2.78,85.37,12.5,3.89,1.37,3.96-.12,3.89-3.26-.25-11.26-1.81-22.46-2.06-33.68-.22-10.12-.59-20.23-.96-30.34-.09-2.58-1.04-3.26-3.44-3.61-10.03-1.44-20.05-2.99-30.02-4.77-9.26-1.66-18.72-2.21-27.79-4.91C556.13.09,685.27.11,814.41,0c3.75,0,4.59.84,4.59,4.59-.1,254.27-.1,508.54,0,762.81,0,3.75-.84,4.6-4.59,4.59-122.47-.11-244.94-.09-367.42-.09.3-1.06,1.23-.87,2-1.03,18.54-3.93,37.06-7.95,55.63-11.72,2.97-.6,4.21-1.52,4.32-4.7.52-14.64,1.3-29.28,1.98-43.92.36-7.76.69-15.52,1.06-23.88-31.69,13.75-64.23,20.77-98.24,20.39-.25,2.13.91,3.47,1.59,4.93,5.43,11.59,11.23,23.01,16.34,34.73,3.68,8.45,8.81,16.24,11.33,25.2Zm-68.33-492.48c-8.33,4.72-15.8,10.5-22.87,16.77-17.88,15.86-33.21,33.62-39.97,57.17-6.24,21.76-4.44,41.97,13.45,58.23,7.51,6.82,16.41,11.33,26.02,14.39,28.31,9.02,56.86,7.39,85.41,1.51,41.61-8.57,78.4-28.29,114.24-50.09,15.48-9.41,28.28-22,41.06-34.71,12.09-12.02,20.87-26.15,27-41.66,9.55-24.18,14.1-49.11,8.16-75.3-3.79-16.74-9.91-32.21-19.51-46.41-21.59-31.95-52.41-52.34-86.51-68.21-36.01-16.76-74.65-22.66-113.89-25.16-24.01-1.53-48-.41-71.74,3.39-56.99,9.1-106.94,33.36-149.86,71.73-32.97,29.48-59.06,64.26-77.33,104.7-17.24,38.15-26.93,77.94-25.06,120.04,1.62,36.28,7.88,71.76,19.98,106.06,23.45,66.51,63.77,119.45,125.72,154.67,50.76,28.86,106.19,40.39,163.8,43.26,14.92.74,29.86-.06,44.8-1.65,40.1-4.28,76.88-18.02,111.24-38.5,22.96-13.69,43.15-30.85,61.88-50.04,24.51-25.11,44.69-53.15,61.52-83.76.78-1.42,2.42-2.77,1.23-5.08-.71.49-1.3.77-1.73,1.21-20.21,20.97-43.33,38.01-68.64,52.4-59.84,34.02-123.99,43.02-191.28,33.22-13.33-1.94-26.37-6.15-39.41-9.78-43.6-12.15-80.88-34.49-108.2-71.04-42.97-57.47-54.35-121.95-36.38-190.72,17.66-67.58,59.25-115.1,126.6-137.27,34.92-11.5,71.1-15.09,107.93-11.91,19.02,1.64,37.16,5.86,53.74,15.35,30.39,17.38,41.85,45.54,37.57,75.96-4.08,29.03-18.94,52.4-42,69.96-32.37,24.65-68.26,41.99-109.08,47.33-14.45,1.89-29.01,1.67-42.63-4.77-10.28-4.86-17.11-12.79-18.74-24.23-1.55-10.87.76-21.4,5.14-31.33,7.29-16.53,17.37-31.39,28.35-45.77Zm-74.09,59.24c-6.73,7.68-11.61,16.47-15.77,25.7-17.19,38.12-7.87,75.11,25.34,100.41,16.86,12.84,36.09,20.44,56.57,25.07,35.51,8.02,71.29,7.59,107.21,3.31,32.75-3.89,64.62-11.55,95.89-21.84,26.18-8.61,51.5-19.36,76.33-31.25,29.88-14.31,58.29-31.09,84.91-50.85,16.03-11.9,30.67-25.28,44.13-40.04,22.49-24.67,38.71-52.34,42.36-86.21,2.88-26.76-5.34-48.76-27.43-65.15-13.78-10.23-29.57-16.1-45.48-21.52-18.61-6.33-38.07-8.73-57.61-10.38-16.32-1.38-32.62-1.26-48.89.36-3.96.39-8.13.25-12.48,2.25,1.14.29,1.61.44,2.09.53,21.05,4.08,41.32,10.33,59.47,22.12,28.74,18.67,37.76,44.8,26.84,77.33-7.63,22.71-21.3,41.69-37.21,59.15-31.89,35.01-70.07,61.7-112.03,83.09-49.44,25.2-101.4,41.79-157.36,43.64-22.51.74-44.82-.56-66.29-8.36-11.39-4.14-22.28-9.72-30.17-18.77-14.16-16.26-18.75-35.85-16.6-57.22,1.07-10.63,3.51-20.92,6.17-31.38Zm-150.38,266.24c-.91,1.85-1.66,3.31-2.36,4.79-8.75,18.46-17.37,36.98-26.36,55.32-1.81,3.69-1.01,5.39,1.93,7.7,14.79,11.61,29.48,23.35,44.03,35.25,2.62,2.15,4.2,1.93,6.71-.02,16.03-12.45,32.19-24.73,48.3-37.07,6.31-4.83,6.24-4.74-.68-8.97-26.03-15.92-51.36-32.74-71.57-57.01Zm60.84-488.99c-.59-.51-1.17-1.07-1.81-1.55-16.64-12.5-33.31-24.96-49.89-37.54-1.96-1.49-3.14-.96-4.7.4-15.56,13.56-31.15,27.09-46.78,40.57-1.54,1.32-1.81,2.33-.79,4.15,10.46,18.68,20.88,37.39,31.19,56.15,1.54,2.8,2.46,2.22,4.14.2,2.98-3.58,6.11-7.04,9.34-10.39,17.27-17.89,36.43-33.63,56.07-48.81,1.12-.87,2.65-1.38,3.21-3.19ZM81.95,488.51c-17.89,15.65-35.29,30.9-52.75,46.08-1.67,1.45-1.35,2.64-.46,4.3,9.37,17.61,18.72,35.24,27.97,52.91,1.09,2.08,2.18,2.36,4.34,1.67,19.62-6.29,39.28-12.48,58.94-18.62,2.38-.74,2.69-1.63,1.41-3.81-3.21-5.44-6.23-10.99-9.21-16.57-11.29-21.12-21.32-42.82-30.25-65.96Zm468.07,180.93c.49.6.74,1.04,1.11,1.34,16.86,13.75,33.78,27.43,50.56,41.29,2.34,1.94,3.68.97,5.51-.38,14.86-10.96,29.69-21.97,44.71-32.71,2.96-2.11,3.14-3.81,1.87-6.91-7.95-19.43-15.7-38.95-23.52-58.43-2.26-5.62-2.22-5.59-6.5-1.28-22,22.13-44.93,43.08-73.74,57.08Zm-181.49,37.82c-1.19-.21-1.83-.36-2.47-.43-30.48-3.51-60.58-8.82-89.58-19.15-3.4-1.21-3.47.03-3.46,2.71.06,20.16.1,40.32-.07,60.48-.03,3.13.99,4.3,3.91,4.87,20.08,3.93,40.14,7.92,60.17,12.06,3.44.71,4.95-.21,6.28-3.47,3.7-9.06,7.85-17.94,11.82-26.89,4.43-9.99,8.86-19.99,13.39-30.2ZM250.38,49.05s-.03,0-.04,0c.64,13.79,1.45,27.58,1.83,41.38.13,4.7,1.4,5.03,5.46,3.39,27.04-10.91,54.7-19.82,83.52-24.69,4.54-.77,2.48-2.6,1.29-4.55-11.05-18.11-22.17-36.18-33.1-54.36-1.56-2.6-2.85-3.23-5.87-2.3-16.84,5.17-33.74,10.15-50.69,14.94-3.15.89-3.78,2.32-3.55,5.25.54,6.97.8,13.97,1.17,20.95Zm357.2,101.26c9.99-22.24,19.74-44.05,29.65-65.79,1.1-2.42.05-3.21-1.59-4.3-15.37-10.21-30.75-20.41-46.03-30.76-2.13-1.45-3.36-1.09-5.07.49-4.41,4.05-8.98,7.92-13.49,11.88-12.74,11.18-25.48,22.36-38.54,33.81,28.91,13.19,54.35,30.37,75.07,54.67ZM74.54,303.51c.51-.67.82-.91.89-1.2,6.8-29.13,19.5-55.67,35.46-80.77,1.61-2.53,1.03-3.1-1.71-3.78-20.47-5.03-40.92-10.18-61.32-15.47-3.14-.81-3.98.54-4.97,2.99-6.88,16.91-13.8,33.8-20.9,50.62-1.17,2.78-.91,4.35,1.51,6.26,10.04,7.94,19.92,16.09,29.85,24.16,7.05,5.73,14.11,11.45,21.18,17.19Z"/>
  <path class="cls-2" d="m442.99,771.91c-2.52-8.96-7.65-16.75-11.33-25.2-5.1-11.73-10.9-23.15-16.34-34.73-.68-1.45-1.84-2.8-1.59-4.93,34.01.38,66.55-6.64,98.24-20.39-.37,8.36-.7,16.12-1.06,23.88-.67,14.64-1.45,29.27-1.98,43.92-.11,3.18-1.35,4.1-4.32,4.7-18.57,3.77-37.09,7.79-55.63,11.72-.77.16-1.7-.03-2,1.03h-4Z"/>
  <path class="cls-2" d="m427,.09c9.07,2.7,18.53,3.25,27.79,4.91,9.97,1.78,19.99,3.33,30.02,4.77,2.4.35,3.35,1.03,3.44,3.61.37,10.11.74,20.22.96,30.34.25,11.22,1.81,22.42,2.06,33.68.07,3.13,0,4.62-3.89,3.26-27.63-9.72-56.24-12.88-85.37-12.5q-6.05.08-3.75-5.71c8.25-20.78,16.49-41.57,24.74-62.35,1.33,0,2.67,0,4,0Z"/>
  <path class="cls-2" d="m.09,365.01c8.32-.63,16.3-3.08,24.44-4.64,12.3-2.36,24.55-5.02,36.76-7.79,2.94-.67,3.74-.31,3.6,2.84-1.14,27.23.87,54.24,6.06,81,.44,2.27.91,4.26-2.83,3.69-20.71-3.17-41.44-6.2-62.17-9.22-3.27-.47-2.66-2.86-2.77-4.91-.72-13.64-1.39-27.28-2.12-40.92-.06-1.06.48-2.4-.97-3.06v-17Z"/>
  <path class="cls-2" d="m374.66,279.43c-10.98,14.38-21.06,29.23-28.35,45.77-4.38,9.93-6.69,20.46-5.14,31.33,1.63,11.43,8.46,19.36,18.74,24.23,13.62,6.44,28.18,6.66,42.63,4.77,40.81-5.33,76.71-22.68,109.08-47.33,23.06-17.56,37.92-40.93,42-69.96,4.28-30.42-7.18-58.58-37.57-75.96-16.58-9.48-34.73-13.7-53.74-15.35-36.82-3.18-73.01.41-107.93,11.91-67.34,22.17-108.94,69.7-126.6,137.27-17.97,68.77-6.59,133.24,36.38,190.72,27.32,36.54,64.6,58.89,108.2,71.04,13.04,3.63,26.08,7.84,39.41,9.78,67.29,9.8,131.44.8,191.28-33.22,25.31-14.39,48.43-31.43,68.64-52.4.43-.44,1.02-.73,1.73-1.21,1.19,2.31-.45,3.66-1.23,5.08-16.84,30.61-37.01,58.65-61.52,83.76-18.74,19.19-38.93,36.35-61.88,50.04-34.35,20.48-71.14,34.22-111.24,38.5-14.94,1.59-29.88,2.39-44.8,1.65-57.61-2.86-113.04-14.4-163.8-43.26-61.95-35.22-102.26-88.15-125.72-154.67-12.1-34.3-18.36-69.78-19.98-106.06-1.88-42.11,7.82-81.89,25.06-120.04,18.27-40.44,44.37-75.22,77.33-104.7,42.92-38.37,92.87-62.63,149.86-71.73,23.75-3.79,47.73-4.91,71.74-3.39,39.24,2.49,77.88,8.4,113.89,25.16,34.11,15.87,64.92,36.26,86.51,68.21,9.59,14.19,15.71,29.67,19.51,46.41,5.93,26.18,1.39,51.11-8.16,75.3-6.13,15.52-14.91,29.65-27,41.66-12.78,12.7-25.58,25.29-41.06,34.71-35.83,21.79-72.62,41.52-114.24,50.09-28.54,5.88-57.1,7.51-85.41-1.51-9.61-3.06-18.51-7.57-26.02-14.39-17.9-16.26-19.7-36.47-13.45-58.23,6.76-23.55,22.09-41.31,39.97-57.17,7.07-6.27,14.54-12.04,22.87-16.77Z"/>
  <path class="cls-1" d="m300.57,338.66c-2.67,10.45-5.11,20.75-6.17,31.38-2.15,21.37,2.44,40.96,16.6,57.22,7.89,9.05,18.78,14.64,30.17,18.77,21.47,7.8,43.77,9.1,66.29,8.36,55.96-1.85,107.91-18.44,157.36-43.64,41.96-21.39,80.15-48.07,112.03-83.09,15.91-17.47,29.58-36.44,37.21-59.15,10.93-32.53,1.9-58.66-26.84-77.33-18.15-11.79-38.42-18.04-59.47-22.12-.48-.09-.95-.24-2.09-.53,4.35-2,8.52-1.85,12.48-2.25,16.27-1.62,32.58-1.74,48.89-.36,19.54,1.65,39,4.04,57.61,10.38,15.91,5.42,31.7,11.3,45.48,21.52,22.09,16.39,30.31,38.39,27.43,65.15-3.65,33.87-19.87,61.54-42.36,86.21-13.46,14.76-28.1,28.15-44.13,40.04-26.62,19.76-55.03,36.54-84.91,50.85-24.84,11.9-50.16,22.64-76.33,31.25-31.27,10.29-63.14,17.94-95.89,21.84-35.92,4.27-71.7,4.71-107.21-3.31-20.48-4.63-39.71-12.23-56.57-25.07-33.22-25.3-42.53-62.29-25.34-100.41,4.16-9.23,9.04-18.02,15.77-25.7Z"/>
  <path class="cls-2" d="m150.19,604.9c20.21,24.27,45.54,41.09,71.57,57.01,6.93,4.24,6.99,4.14.68,8.97-16.11,12.34-32.27,24.62-48.3,37.07-2.51,1.95-4.09,2.16-6.71.02-14.56-11.9-29.24-23.64-44.03-35.25-2.94-2.31-3.74-4.01-1.93-7.7,8.99-18.34,17.61-36.87,26.36-55.32.7-1.48,1.45-2.94,2.36-4.79Z"/>
  <path class="cls-2" d="m211.03,115.91c-.57,1.81-2.09,2.32-3.21,3.19-19.64,15.18-38.8,30.91-56.07,48.81-3.23,3.35-6.36,6.82-9.34,10.39-1.68,2.02-2.61,2.59-4.14-.2-10.31-18.76-20.73-37.47-31.19-56.15-1.02-1.82-.75-2.83.79-4.15,15.64-13.47,31.22-27.01,46.78-40.57,1.56-1.36,2.74-1.89,4.7-.4,16.58,12.58,33.25,25.03,49.89,37.54.64.48,1.22,1.04,1.81,1.55Z"/>
  <path class="cls-2" d="m81.95,488.51c8.93,23.14,18.95,44.84,30.25,65.96,2.98,5.57,6.01,11.12,9.21,16.57,1.28,2.17.96,3.06-1.41,3.81-19.67,6.15-39.32,12.34-58.94,18.62-2.16.69-3.25.41-4.34-1.67-9.26-17.67-18.6-35.3-27.97-52.91-.88-1.66-1.21-2.84.46-4.3,17.46-15.18,34.86-30.43,52.75-46.08Z"/>
  <path class="cls-2" d="m550.02,669.43c28.81-14,51.73-34.95,73.74-57.08,4.28-4.31,4.24-4.34,6.5,1.28,7.82,19.49,15.57,39,23.52,58.43,1.27,3.1,1.09,4.79-1.87,6.91-15.02,10.74-29.85,21.75-44.71,32.71-1.83,1.35-3.17,2.32-5.51.38-16.77-13.86-33.69-27.54-50.56-41.29-.37-.3-.62-.75-1.11-1.34Z"/>
  <path class="cls-2" d="m368.53,707.26c-4.53,10.21-8.96,20.21-13.39,30.2-3.97,8.95-8.12,17.83-11.82,26.89-1.33,3.25-2.84,4.18-6.28,3.47-20.03-4.15-40.1-8.13-60.17-12.06-2.92-.57-3.94-1.74-3.91-4.87.17-20.16.13-40.32.07-60.48,0-2.68.06-3.92,3.46-2.71,29.01,10.33,59.1,15.64,89.58,19.15.65.07,1.29.22,2.47.43Z"/>
  <path class="cls-2" d="m250.38,49.05c-.37-6.99-.63-13.98-1.17-20.95-.23-2.93.4-4.36,3.55-5.25,16.95-4.78,33.85-9.77,50.69-14.94,3.02-.93,4.31-.29,5.87,2.3,10.94,18.18,22.05,36.25,33.1,54.36,1.19,1.95,3.25,3.79-1.29,4.55-28.82,4.88-56.48,13.78-83.52,24.69-4.06,1.64-5.33,1.31-5.46-3.39-.38-13.8-1.19-27.59-1.83-41.38.01,0,.03,0,.04,0Z"/>
  <path class="cls-2" d="m607.58,150.31c-20.72-24.3-46.16-41.47-75.07-54.67,13.05-11.46,25.79-22.64,38.54-33.81,4.5-3.95,9.08-7.82,13.49-11.88,1.71-1.58,2.94-1.93,5.07-.49,15.28,10.35,30.66,20.55,46.03,30.76,1.64,1.09,2.7,1.88,1.59,4.3-9.91,21.74-19.66,43.55-29.65,65.79Z"/>
  <path class="cls-2" d="m74.54,303.51c-7.07-5.74-14.13-11.46-21.18-17.19-9.94-8.07-19.81-16.23-29.85-24.16-2.42-1.91-2.68-3.48-1.51-6.26,7.09-16.82,14.02-33.71,20.9-50.62.99-2.45,1.83-3.8,4.97-2.99,20.41,5.29,40.85,10.44,61.32,15.47,2.74.67,3.32,1.25,1.71,3.78-15.96,25.1-28.66,51.64-35.46,80.77-.07.29-.38.53-.89,1.2Z"/>
</svg>