<?xml version="1.0" encoding="UTF-8"?>
<!DOCTYPE svg PUBLIC "-//W3C//DTD SVG 1.1//EN" "http://www.w3.org/Graphics/SVG/1.1/DTD/svg11.dtd">
<!-- Creator: CorelDRAW -->
<svg xmlns="http://www.w3.org/2000/svg" xml:space="preserve" width="25.4mm" height="12.7mm" version="1.1" style="shape-rendering:geometricPrecision; text-rendering:geometricPrecision; image-rendering:optimizeQuality; fill-rule:evenodd; clip-rule:evenodd"
viewBox="0 0 2540 1270"
 xmlns:xlink="http://www.w3.org/1999/xlink"
 xmlns:xodm="http://www.corel.com/coreldraw/odm/2003"
 t="1732023186028"
 p-id="10719">
 <defs>
  <style type="text/css">
   <![CDATA[
    .fil0 {fill:#40C4FF}
    .fil1 {fill:#263238;fill-rule:nonzero}
    .fil3 {fill:#40C4FF;fill-rule:nonzero}
    .fil2 {fill:#FF5252;fill-rule:nonzero}
   ]]>
  </style>
 </defs>
 <g id="圖層_x0020_1">
  <metadata id="CorelCorpID_0Corel-Layer"/>
  <rect class="fil0" x="1061.92" y="651.51" width="1266.4" height="51.06"/>
  <path class="fil1" d="M1249.62 558.12l0 -146.08 22.15 0 0 146.08 -22.15 0zm3.69 -236.25l16.08 0c21.97,40.08 58.98,74.88 111.01,104.41l-13.19 19.51c-45.7,-28.3 -80.94,-60.9 -105.73,-97.82 -24.78,36.92 -59.85,69.52 -105.2,97.82l-13.19 -19.51c51.33,-29.18 88.07,-63.98 110.22,-104.41z"/>
  <path id="_1" class="fil1" d="M1548.04 354.3c3.34,45.18 13.45,81.39 30.32,108.63 16.88,27.07 42.45,50.45 76.73,70.14l-15.56 20.3c-29,-18.98 -51.15,-38.93 -66.44,-59.85 -16,-21.62 -27.16,-47.37 -33.49,-77.26 -5.97,29.36 -16.78,54.67 -32.43,75.94 -15.64,21.44 -39.11,42.71 -70.4,63.81l-13.45 -19.51c35.86,-23.21 61.53,-47.55 77,-73.04 14.06,-23.2 22.5,-52.73 25.31,-88.59 1.23,-15.3 1.84,-32.61 1.84,-51.95l21.89 0c-0.35,10.55 -0.79,21.01 -1.32,31.38z"/>
  <path id="_2" class="fil1" d="M1862.81 445c6.68,13.71 15.82,33.31 27.42,58.8l-15.82 9.49c-5.62,-13 -12.74,-28.65 -21.36,-46.93 -10.19,21.09 -19.07,38.58 -26.63,52.47l-13.18 -12.39c11.25,-19.87 21.53,-39.64 30.85,-59.33 -11.25,-23.03 -20.57,-41.83 -27.95,-56.42l15.03 -8.44c9.14,17.58 16.61,32.17 22.41,43.77 7.56,-17.23 14.59,-34.63 21.1,-52.21l15.02 7.12c-7.38,19.16 -16.34,40.52 -26.89,64.07zm-145.55 111.27l0 -220.95 199.6 0 0 191.68c0,10.9 -2.46,18.2 -7.38,21.89 -5.1,3.69 -15.12,5.54 -30.06,5.54l-29.53 0 -2.9 -18.72 28.74 0c8.26,0 13.8,-1.06 16.61,-3.17 2.81,-2.11 4.22,-6.15 4.22,-12.13l0 -165.85 -158.99 0 0 201.71 -20.31 0zm75.41 -116.8c10.02,20.39 18.2,37.44 24.53,51.15l-16.62 9.49c-1.58,-3.87 -7.38,-16.88 -17.4,-39.02 -7.56,17.22 -16.52,36.03 -26.89,56.42l-13.45 -12.92c10.2,-18.98 20.57,-39.99 31.11,-63.02 -10.54,-22.32 -20.21,-41.66 -29,-58l15.56 -8.44c7.55,14.94 15.11,29.88 22.67,44.82 8.09,-19.68 14.33,-35.94 18.72,-48.78l15.3 7.12c-8.27,21.8 -16.44,42.19 -24.53,61.18z"/>
  <path id="_3" class="fil1" d="M2047.06 370.12l32.17 0 0 18.98 -97.82 0 0 -18.98 45.35 0c-5.1,-19.69 -9.4,-35.6 -12.92,-47.72l20.04 -2.38c4.39,16.7 8.79,33.4 13.18,50.1zm-1.05 138.16c8.26,-1.23 18.9,-2.98 31.9,-5.27l0 19.51c-37.44,7.03 -69.43,12.66 -95.97,16.88l-3.43 -20.83c16.87,-2.46 33.66,-4.93 50.36,-7.39 3.52,-14.59 11.78,-50.36 24.79,-107.31l18.19 3.96c-11.95,48.16 -20.57,81.64 -25.84,100.45zm-38.5 -17.4c-5.09,-29.18 -10.72,-57.04 -16.87,-83.58l17.14 -3.43c7.03,29.88 12.83,57.48 17.4,82.79l-17.67 4.22zm170.33 50.1l-70.4 0 0 17.14 -19.77 0 0 -121.03 40.87 0 0 -116.28 20.04 0 0 47.46 63.01 0 0 18.46 -63.01 0 0 50.36 49.04 0 0 121.03 -19.78 0 0 -17.14zm0 -18.72l0 -66.45 -70.4 0 0 66.45 70.4 0z"/>
  <path class="fil2" d="M1451.9 939.72l0 74.09c0,8.79 -2.02,14.68 -6.06,17.67 -4.22,2.99 -12.39,4.48 -24.52,4.48l-21.62 0 -2.64 -18.98 21.09 0c5.63,0 9.41,-0.71 11.34,-2.11 1.94,-1.41 2.9,-4.13 2.9,-8.18l0 -62.75c-10.72,2.29 -23.55,4.75 -38.49,7.38l-3.96 -21.62c16.7,-2.81 30.85,-5.27 42.45,-7.38l0 -53.26 -38.23 0 0 -18.72 38.23 0 0 -46.93 19.51 0 0 46.93 30.06 0 0 18.72 -30.06 0 0 49.83c10.02,-1.93 20.04,-3.95 30.06,-6.06l0.53 20.04c-13.71,3.16 -23.91,5.45 -30.59,6.85zm137.38 -84.11c-11.61,-10.37 -24.09,-20.83 -37.44,-31.38l11.33 -12.91c14.07,10.01 26.99,19.95 38.76,29.79l-12.65 14.5zm-37.18 114.43c2.81,9.85 6.33,18.55 10.55,26.11 3.51,6.33 6.94,11.07 10.28,14.24 3.69,3.51 7.65,5.18 11.86,5.01 5.98,0 10.11,-4.22 12.4,-12.66 2.46,-9.14 4.65,-21.62 6.59,-37.44l18.19 6.59c-1.76,12.48 -4.31,25.58 -7.64,39.29 -4.22,18.1 -13.72,26.89 -28.48,26.36 -15.82,0 -29.27,-9.93 -40.34,-29.79 -4.4,-8.09 -7.91,-16.44 -10.55,-25.05 -15.29,10.37 -33.93,21.01 -55.9,31.9l-11.6 -18.72c23.56,-10.37 44.12,-21.7 61.7,-34.01 -3.52,-15.82 -6.24,-35.16 -8.17,-58.01 -0.36,-5.27 -0.62,-9.31 -0.8,-12.13l-31.9 3.96 -1.84 -18.72 32.43 -3.96c-1.59,-25.84 -2.46,-49.21 -2.64,-70.13l20.57 0c0.17,22.32 0.87,44.91 2.11,67.76l79.62 -9.75 1.32 18.72 -79.89 9.75c0.53,5.27 0.97,10.55 1.32,15.82 1.58,17.4 3.51,31.82 5.8,43.24 16.7,-14.06 32.34,-31.02 46.93,-50.88l14.77 12.65c-17.4,23.73 -36.3,43.68 -56.69,59.85z"/>
  <path id="_1_21" class="fil2" d="M1849.79 949.21l0 55.11c13.01,-9.84 22.06,-17.05 27.16,-21.62l7.65 17.4c-13.54,10.9 -29.89,22.85 -49.05,35.86l-11.86 -14.5c2.63,-2.99 4.48,-5.98 5.53,-8.96 1.06,-2.99 1.59,-6.51 1.59,-10.55l0 -52.74 -30.59 0 0 -17.4 30.59 0 0 -32.17 -12.4 0 0 -17.4 56.43 0 0 17.4 -25.05 0 0 32.17 29.27 0 0 17.4 -29.27 0zm-12.92 -111.79l43.24 0 0 17.14 -53.26 0c-5.27,8.43 -12.04,18.28 -20.3,29.53l-11.6 -16.88c17.22,-24.43 29.53,-46.31 36.91,-65.65l19.51 3.43c-3.34,9.49 -8.17,20.3 -14.5,32.43zm156.62 46.4l37.71 0 0 17.14 -149.5 0 0 -17.14 31.9 0 0 -32.95 -25.58 0 0 -17.14 25.58 0 0 -30.32 19.25 0 0 30.32 41.39 0 0 -30.32 19.25 0 0 30.32 29.27 0 0 17.14 -29.27 0 0 32.95zm-19.25 0l0 -32.95 -41.39 0 0 32.95 41.39 0zm20.31 141.33l-81.48 0 0 14.77 -19.25 0 0 -115.49 119.71 0 0 115.22 -18.98 0 0 -14.5zm0 -16.87l0 -25.58 -81.48 0 0 25.58 81.48 0zm0 -41.4l0 -25.84 -81.48 0 0 25.84 81.48 0z"/>
  <g id="_2623632290368">
   <path class="fil1" d="M757.26 853.35c-0.01,0 0,0 0,0 2.05,0 4.02,-0.82 5.48,-2.3l43.82 -44.47c1.46,-1.48 2.28,-3.48 2.28,-5.57 0,-2.09 -0.82,-4.1 -2.28,-5.57l-89.27 -90.64c-1.46,-1.47 -3.43,-2.29 -5.48,-2.29 -2.41,0 -4.68,1.13 -6.16,3.06 -12.14,16.16 -26.44,30.67 -42.36,43.01 -1.92,1.47 -3.05,3.78 -3.05,6.23 0,2.1 0.82,4.1 2.29,5.58l89.27 90.63c1.42,1.49 3.38,2.33 5.42,2.33 0.01,0 0.03,0 0.03,0l0.01 0zm32.87 -52.35l-32.87 33.35 -77.66 -78.84c11.97,-9.99 22.99,-21.21 32.86,-33.35l77.65 78.84 0.02 0zm-6.23 -514.47l61.97 0c4.27,0 7.74,-3.52 7.74,-7.87 0,-4.34 -3.47,-7.86 -7.75,-7.86l-61.96 0c-4.28,0 -7.75,3.52 -7.75,7.86 0,4.35 3.47,7.87 7.75,7.87l0 0z" p-id="10720"/>
   <path class="fil2" d="M806.55 795.44l-54.78 55.61c-2.91,2.95 -4.54,6.95 -4.54,11.12 0,4.17 1.63,8.18 4.54,11.12l153.35 155.69c2.9,2.95 6.84,4.61 10.95,4.61 4.11,0 8.05,-1.66 10.95,-4.61l54.78 -55.61c2.9,-2.95 4.54,-6.95 4.54,-11.12 0,-4.17 -1.64,-8.18 -4.54,-11.12l-153.35 -155.69c-2.9,-2.95 -6.84,-4.61 -10.95,-4.61 -4.11,0 -8.05,1.66 -10.95,4.61l0 0z" p-id="10723"/>
   <path class="fil1" d="M916.1 1041.46c5.95,0 11.9,-2.3 16.44,-6.91l54.76 -55.61c4.35,-4.43 6.79,-10.43 6.79,-16.68 0,-6.26 -2.44,-12.26 -6.79,-16.68l-153.35 -155.69c-4.36,-4.42 -10.27,-6.9 -16.43,-6.9 -6.16,0 -12.07,2.48 -16.42,6.9l-54.78 55.59c-4.36,4.43 -6.8,10.44 -6.8,16.69 0,6.26 2.44,12.26 6.8,16.69l153.34 155.69c4.35,4.42 10.25,6.9 16.4,6.9 0.01,0 0.03,0 0.04,0l0 0.01zm-98.6 -242.76c0.01,0 0.02,0 0.03,0 2.04,0 4.01,0.82 5.45,2.29l153.35 155.69c1.45,1.47 2.27,3.48 2.27,5.56 0,2.09 -0.82,4.09 -2.27,5.56l-54.76 55.61c-1.45,1.48 -3.43,2.31 -5.49,2.31 -2.05,0 -4.03,-0.83 -5.48,-2.31l-153.35 -155.68c-1.44,-1.48 -2.26,-3.49 -2.26,-5.57 0,-2.09 0.82,-4.09 2.26,-5.57l54.78 -55.6c1.45,-1.47 3.42,-2.29 5.47,-2.29l0 0zm-290.27 12.53c132.4,0 240.11,-109.36 240.11,-243.77 0,-134.43 -107.71,-243.78 -240.11,-243.78 -132.4,0 -240.11,109.37 -240.11,243.78 0,134.41 107.71,243.77 240.11,243.77zm0 -471.82c123.85,0 224.62,102.3 224.62,228.05 0,125.74 -100.77,228.05 -224.62,228.05 -123.85,0 -224.62,-102.31 -224.62,-228.05 0,-125.75 100.77,-228.05 224.62,-228.05z" p-id="10724"/>
   <path class="fil3" d="M341.34 567.46c0,104.22 83.23,188.73 185.89,188.73 102.66,0 185.89,-84.51 185.89,-188.73 0,-104.23 -83.23,-188.74 -185.89,-188.74 -102.66,0 -185.89,84.51 -185.89,188.74z" p-id="10725"/>
   <path class="fil1" d="M527.23 764.05c106.78,0 193.64,-88.18 193.64,-196.59 0,-52.52 -20.14,-101.9 -56.71,-139.02 -36.09,-36.83 -85.23,-57.58 -136.42,-57.58 -0.14,0 -0.36,0 -0.5,0l-0.01 0c-106.78,0 -193.64,88.18 -193.64,196.6 0,108.41 86.88,196.59 193.64,196.59zm0.02 -377.46c0.15,0 0.33,0 0.48,0 47.1,0 92.27,19.08 125.48,52.97 33.36,33.7 52.17,79.6 52.17,127.41 0,0.15 0,0.33 0,0.48 0,99.73 -79.92,180.87 -178.15,180.87 -98.23,0 -178.15,-81.14 -178.15,-180.87 0,-99.73 79.92,-180.87 178.16,-180.87l0.01 0.01z" p-id="10726"/>
   <path class="fil1" d="M387.81 575.32c4.28,0 7.75,-3.52 7.75,-7.86 0,-73.72 59.06,-133.69 131.67,-133.69 4.28,0 7.75,-3.52 7.75,-7.86 0,-4.35 -3.47,-7.87 -7.75,-7.87 -81.14,0 -147.16,67.03 -147.16,149.42 0,4.34 3.46,7.86 7.74,7.86zm-99.62 329.4l30.98 0c4.28,0 7.75,-3.52 7.75,-7.87 0,-4.34 -3.47,-7.86 -7.75,-7.86l-30.98 0c-4.28,0 -7.75,3.52 -7.75,7.86 0,4.35 3.47,7.87 7.75,7.87l0 0zm61.96 0l170.41 0c4.27,0 7.74,-3.52 7.74,-7.87 0,-4.34 -3.47,-7.86 -7.74,-7.86l-170.41 0c-4.27,0 -7.74,3.52 -7.74,7.86 0,4.35 3.47,7.87 7.74,7.87l0 0z" p-id="10727"/>
  </g>
  <path class="fil1" d="M507.46 617.05l0 -2.47c0,-8.75 0.78,-15.63 2.33,-20.68 1.52,-5.04 3.78,-9.03 6.74,-11.99 2.96,-2.96 6.56,-5.75 10.76,-8.36 4.62,-2.97 8.5,-6.25 11.68,-9.77 3.17,-3.57 4.76,-7.84 4.76,-12.88 0,-5.36 -1.84,-9.63 -5.47,-12.81 -3.67,-3.17 -8.11,-4.76 -13.33,-4.76 -5.05,0 -9.53,1.62 -13.52,4.87 -3.95,3.25 -6.06,7.97 -6.35,14.25l-29.77 0c0.14,-9.91 2.47,-18.17 6.98,-24.69 4.52,-6.56 10.52,-11.43 18,-14.64 7.48,-3.18 15.73,-4.8 24.76,-4.8 9.91,0 18.66,1.66 26.25,4.97 7.58,3.28 13.51,8.05 17.81,14.26 4.31,6.2 6.46,13.65 6.46,22.33 0,8.75 -2.05,16.05 -6.21,21.94 -4.13,5.89 -9.74,10.94 -16.83,15.17 -5.99,3.56 -10.37,7.2 -13.19,10.9 -2.79,3.67 -4.16,9.24 -4.16,16.69l0 2.47 -27.7 0zm13.94 49.32c-5.36,0 -9.77,-1.63 -13.23,-4.87 -3.46,-3.25 -5.15,-7.45 -5.15,-12.63 0,-5.22 1.69,-9.46 5.15,-12.7 3.46,-3.25 7.87,-4.87 13.23,-4.87 5.36,0 9.77,1.62 13.19,4.87 3.39,3.24 5.12,7.48 5.12,12.7 0,5.18 -1.73,9.38 -5.12,12.63 -3.42,3.24 -7.83,4.87 -13.19,4.87z"/>
 </g>
</svg>
